<svg width="146" height="144" viewBox="0 0 146 144" fill="none" xmlns="http://www.w3.org/2000/svg">
<path d="M0 20C0 8.95432 8.9543 0 20 0H125.487C136.533 0 145.487 8.95431 145.487 20V123.249C145.487 134.294 136.533 143.249 125.487 143.249H20C8.95432 143.249 0 134.294 0 123.249V20Z" fill="#0B1F3B"/>
<rect x="36.9698" y="95.5647" width="72.7923" height="10.2679" fill="#D0AE6F"/>
<path d="M118.916 69.7958C118.551 69.5052 118.089 69.369 117.628 69.3989C116.674 69.4703 115.703 69.6969 114.794 70.0874C108.356 73.4173 107.313 80.1202 107.042 85.845C106.968 89.3522 106.932 92.8724 106.932 96.3864V100.699C106.933 103.83 107.288 109.581 107.533 113.54L107.54 113.647C107.605 114.704 108.48 115.527 109.539 115.527H110.718C111.869 115.527 112.783 114.559 112.716 113.409C112.486 109.489 112.172 103.71 112.17 100.699V96.3864C112.17 92.8724 112.134 89.3522 112.06 85.845L112.059 85.7924C111.95 81.2111 113.064 75.5201 116.447 73.5474C116.936 73.2679 117.476 73.067 118.066 72.9495C118.52 72.8667 118.935 72.6226 119.218 72.2523C119.501 71.8821 119.628 71.419 119.572 70.9616C119.516 70.5042 119.28 70.0862 118.916 69.7958Z" fill="#D0AE6F"/>
<path d="M26.5711 69.7958C26.9353 69.5052 27.398 69.369 27.8589 69.3989C28.8122 69.4703 29.7836 69.6969 30.6932 70.0874C37.131 73.4173 38.1738 80.1202 38.4448 85.845C38.5185 89.3522 38.5552 92.8724 38.5552 96.3864V100.699C38.5537 103.83 38.1983 109.581 37.9536 113.54L37.947 113.647C37.8817 114.704 37.0062 115.527 35.9479 115.527H34.7688C33.6173 115.527 32.704 114.559 32.7712 113.409C33.0003 109.489 33.3151 103.71 33.3163 100.699V96.3864C33.3163 92.8724 33.353 89.3522 33.4266 85.845L33.4274 85.7924C33.5371 81.2111 32.4228 75.5201 29.0399 73.5474C28.5505 73.2679 28.0109 73.067 27.4211 72.9495C26.9668 72.8667 26.5513 72.6226 26.2685 72.2523C25.9856 71.8821 25.8584 71.419 25.9147 70.9616C25.9711 70.5042 26.2069 70.0862 26.5711 69.7958Z" fill="#D0AE6F"/>
<path d="M38.263 73.1333V36.1123C38.263 34.1097 38.1004 32.625 37.7752 31.6583C37.4499 30.6225 36.8263 29.932 35.9047 29.5866C35.7179 29.4975 35.578 29.4179 35.4548 29.3479C35.0062 29.0927 34.7819 28.9652 33.3355 28.9652C33.2271 28.9652 33.1729 28.758 33.1729 28.3437C33.1729 27.9294 33.2271 27.7222 33.3355 27.7222L36.5964 27.7223L42.232 27.7222L48.4083 27.7223L52.0546 27.7222C52.2174 27.7222 52.2987 27.9294 52.2987 28.3437C52.2987 28.758 52.2174 28.9652 52.0546 28.9652C50.6716 28.9652 50.4423 29.089 49.9837 29.3366C49.849 29.4093 49.6946 29.4926 49.4854 29.5866C48.618 29.932 48.0216 30.6225 47.6964 31.6583C47.4252 32.625 47.2897 34.1097 47.2897 36.1123V83.8636C47.2897 86.0043 47.3439 87.5234 47.4525 88.4212C47.6151 89.3189 47.9674 89.8714 48.5095 90.0785C49.1059 90.2166 50.0547 90.2857 51.3559 90.2857H63.7166C65.1262 90.2857 66.1292 90.1821 66.7256 89.9749C67.376 89.6987 67.7828 89.1117 67.9454 88.214C68.108 87.2473 68.1893 85.7971 68.1893 83.8636V36.1123C68.1893 34.1097 68.0267 32.625 67.7015 31.6583C67.4303 30.6225 66.8339 29.932 65.9123 29.5866C65.7031 29.4926 65.5487 29.4093 65.414 29.3366C64.9554 29.089 64.7261 28.9652 63.3431 28.9652C63.1805 28.9652 63.0992 28.758 63.0992 28.3437C63.0992 27.9294 63.1805 27.7222 63.3431 27.7222C64.2647 27.7912 65.4294 27.7222 65.4294 27.7222H69.6988H72.762H78.5028H82.1435C82.252 27.7222 82.3061 27.9294 82.3061 28.3437C82.3061 28.758 82.252 28.9652 82.1435 28.9652C80.7605 28.9652 80.5312 29.089 80.0726 29.3366C79.9379 29.4093 79.7835 29.4926 79.5743 29.5866C78.6527 29.932 78.0292 30.6225 77.704 31.6583C77.3786 32.625 77.216 34.1097 77.216 36.1123V83.8636C77.216 86.0043 77.2702 87.5234 77.3786 88.4212C77.5412 89.3189 77.8937 89.8714 78.4358 90.0785C79.0322 90.2166 80.0081 90.2857 81.3633 90.2857H93.7242C95.2422 90.2857 96.2994 90.1821 96.8958 89.9749C97.4922 89.7678 97.8445 89.2153 97.953 88.3176C98.1156 87.4199 98.1969 85.9352 98.1969 83.8636V36.1123C98.1969 34.1097 98.0343 32.625 97.7089 31.6583C97.4379 30.6225 96.8415 29.932 95.9199 29.5866C95.7332 29.4975 95.5932 29.4179 95.47 29.3479C95.0215 29.0927 94.7971 28.9652 93.3507 28.9652C93.2422 28.9652 93.1881 28.758 93.1881 28.3437C93.1881 27.9294 93.2422 27.7222 93.3507 27.7222L97.0999 27.7223L103.275 27.7222H108.654H112.07C112.232 27.7222 112.314 27.9294 112.314 28.3437C112.314 28.758 112.232 28.9652 112.07 28.9652C110.687 28.9652 110.458 29.089 109.999 29.3366C109.864 29.4093 109.71 29.4926 109.501 29.5866C108.579 29.932 107.956 30.6225 107.63 31.6583C107.359 32.625 107.224 34.1097 107.224 36.1123V73.1331C104.966 76.8009 104.342 81.0759 104.113 84.5986L104.05 85.7431L104.049 85.7826C104.002 88.0051 103.97 90.2329 103.953 92.4608H41.5335C41.5163 90.2329 41.4843 88.0051 41.4376 85.7826L41.4368 85.7431L41.3732 84.5986C41.1445 81.076 40.5201 76.8011 38.263 73.1333Z" fill="#D0AE6F"/>
</svg>
