<svg width="396" height="241" viewBox="0 0 396 241" fill="none" xmlns="http://www.w3.org/2000/svg">
<path d="M320.911 190.596L322.437 189.177H343.4L344.112 190.596H320.911ZM356.158 202.744C356.339 202.744 356.429 202.879 356.429 203.15C356.429 203.42 356.339 203.555 356.158 203.555C354.852 203.555 353.688 203.555 353.688 203.555H346.056C346.056 203.555 345.409 203.555 344.147 203.555C343.967 203.555 343.877 203.42 343.877 203.15C343.877 202.879 343.967 202.744 344.147 202.744C346.535 202.744 346.525 202.406 347.111 201.73C347.697 201.009 347.539 199.68 346.638 197.742L331.633 166.042L333.323 163.947L320.21 194.971C319.083 197.72 319.016 199.703 320.007 200.919C320.999 202.136 321.462 202.744 324.391 202.744C324.616 202.744 324.729 202.879 324.729 203.15C324.729 203.42 324.616 203.555 324.391 203.555C323.039 203.555 322.195 203.555 322.195 203.555H313.967C313.967 203.555 313.371 203.555 311.974 203.555C311.793 203.555 311.703 203.42 311.703 203.15C311.703 202.879 311.793 202.744 311.974 202.744C313.19 202.744 313.768 202.691 314.437 201.953C315.106 201.216 315.388 200.739 316.155 199.567C316.966 198.351 317.844 196.616 318.791 194.363L333.052 160.703C333.142 160.568 333.3 160.5 333.525 160.5C333.751 160.5 333.886 160.568 333.931 160.703L349.882 194.295C350.919 196.503 351.842 198.238 352.653 199.5C353.37 200.765 353.665 201.584 354.287 202.002C354.908 202.42 355.212 202.744 356.158 202.744Z" fill="#04203F"/>
<path d="M356.429 203.15C356.429 202.913 356.36 202.781 356.222 202.751L356.158 202.744C355.449 202.744 355.1 202.562 354.708 202.295L354.287 202.002C353.821 201.688 353.538 201.15 353.123 200.366L352.653 199.5C351.842 198.238 350.919 196.503 349.882 194.295L333.931 160.703C333.897 160.601 333.812 160.538 333.677 160.513L333.525 160.5C333.3 160.5 333.142 160.568 333.052 160.703L318.791 194.363L318.439 195.184C317.626 197.042 316.864 198.503 316.155 199.567C315.388 200.739 315.106 201.216 314.437 201.953L314.312 202.084C313.693 202.697 313.114 202.744 311.974 202.744C311.793 202.744 311.703 202.879 311.703 203.15C311.703 203.386 311.772 203.519 311.91 203.549L311.974 203.555H324.391L324.47 203.549C324.618 203.523 324.703 203.422 324.724 203.245L324.729 203.15C324.729 202.913 324.642 202.781 324.47 202.751L324.391 202.744C321.462 202.744 320.999 202.136 320.007 200.919C319.016 199.703 319.083 197.72 320.21 194.971L322.06 190.596H343.255L346.638 197.742C347.539 199.68 347.697 201.009 347.111 201.73L346.913 201.968C346.49 202.485 346.237 202.744 344.147 202.744C343.967 202.744 343.877 202.879 343.877 203.15C343.877 203.386 343.945 203.519 344.083 203.549L344.147 203.555H356.158L356.222 203.549C356.34 203.523 356.407 203.422 356.424 203.245L356.429 203.15ZM342.583 189.177H322.659L332.058 166.939L342.583 189.177ZM323.413 188.677H341.793L332.083 168.163L323.413 188.677ZM356.929 203.149C356.929 203.324 356.903 203.544 356.778 203.731C356.628 203.955 356.394 204.056 356.158 204.056H344.147C343.911 204.056 343.678 203.955 343.529 203.731C343.403 203.544 343.376 203.324 343.376 203.149C343.376 202.975 343.403 202.756 343.529 202.568C343.678 202.345 343.911 202.244 344.147 202.244C345.345 202.244 345.838 202.155 346.097 202.036C346.334 201.927 346.377 201.815 346.723 201.415L346.785 201.327C346.923 201.106 346.997 200.768 346.936 200.252C346.866 199.662 346.625 198.901 346.186 197.956L342.939 191.096H322.391L320.67 195.166C319.554 197.891 319.595 199.621 320.395 200.604C320.904 201.228 321.203 201.593 321.697 201.841C322.195 202.091 322.947 202.244 324.391 202.244C324.607 202.244 324.852 202.313 325.029 202.525C325.191 202.72 325.229 202.957 325.229 203.149C325.229 203.342 325.191 203.58 325.029 203.774C324.852 203.986 324.607 204.056 324.391 204.056H311.974C311.738 204.056 311.504 203.955 311.355 203.731C311.229 203.544 311.203 203.324 311.203 203.149C311.203 202.975 311.23 202.756 311.355 202.568C311.504 202.345 311.738 202.244 311.974 202.244L312.395 202.24C312.777 202.232 313.048 202.207 313.277 202.144C313.55 202.068 313.784 201.929 314.067 201.617C314.703 200.916 314.961 200.478 315.736 199.294L315.739 199.29C316.524 198.112 317.388 196.409 318.329 194.169L318.33 194.168L332.592 160.508L332.611 160.465L332.636 160.426C332.852 160.102 333.204 160 333.526 160C333.81 160 334.225 160.089 334.388 160.5L350.334 194.081L350.335 194.083C351.238 196.007 352.05 197.559 352.771 198.744L353.074 199.229L353.081 199.241L353.088 199.254C353.271 199.577 353.428 199.871 353.566 200.132C353.705 200.396 353.823 200.62 353.938 200.817C354.168 201.214 354.351 201.443 354.566 201.587C354.922 201.826 355.09 201.968 355.321 202.081C355.515 202.176 355.751 202.244 356.158 202.244C356.394 202.244 356.628 202.345 356.778 202.568C356.903 202.756 356.929 202.975 356.929 203.149Z" fill="#04203F"/>
<path d="M297.876 202.744C298.282 202.744 298.507 202.789 298.552 202.879C298.642 202.924 298.688 203.15 298.688 203.555C298.688 204.186 298.688 205.583 298.688 205.583V211.762C298.688 211.942 298.552 212.033 298.282 212.033C298.012 212.033 297.876 211.942 297.876 211.762C297.876 207.932 296.412 206.61 294.7 204.762C293.032 202.96 290.261 203.555 286.386 203.555H265.23C263.473 203.555 261.896 203.871 260.499 204.502C259.147 205.177 258.8 205.298 257.322 206.452C255.844 207.605 255.429 208.898 255.429 211.782C255.429 211.962 255.294 212.052 255.024 212.052C254.754 212.052 254.618 211.962 254.618 211.782L254.618 205.201C254.618 205.201 254.618 204.073 254.618 203.488C254.618 203.127 254.641 202.902 254.686 202.812C254.776 202.722 254.979 202.677 255.294 202.677C257.232 202.677 258.944 202.046 260.431 200.784C261.963 199.477 263.315 197.765 264.487 195.647C265.703 193.529 266.74 191.186 267.596 188.618C268.497 186.049 269.218 183.458 269.759 180.845C270.299 178.186 270.705 175.708 270.975 173.41C271.246 171.067 271.381 169.107 271.381 167.529C271.381 166.448 271.246 165.502 270.975 164.691C270.705 163.88 270.388 163.044 269.397 162.593C268.451 162.143 268.101 162.122 265.983 162.122C265.893 162.122 265.848 161.987 265.848 161.717C265.848 161.446 265.893 161.311 265.983 161.311C266.254 161.311 266.997 161.311 268.214 161.311C269.476 161.311 269.556 161.311 271.448 161.311C273.341 161.311 275.369 161.311 277.532 161.311C279.74 161.311 281.925 161.311 284.088 161.311C286.251 161.311 288.256 161.311 290.104 161.311C291.951 161.311 291.964 161.311 293.135 161.311C294.307 161.311 294.983 161.311 295.163 161.311C295.253 161.311 295.298 161.446 295.298 161.717C295.298 161.987 295.253 162.122 295.163 162.122C293.496 162.122 293.018 162.122 292.468 162.437C291.918 162.751 291.455 163.204 291.185 163.88C290.915 164.51 290.779 165.479 290.779 166.786V198.08C290.779 199.207 290.802 200.108 290.847 200.784C290.937 201.415 291.185 201.865 291.59 202.136C291.996 202.406 292.672 202.586 293.618 202.677C294.61 202.722 296.029 202.744 297.876 202.744ZM286.386 197.945V166.921C286.386 165.524 286.296 164.555 286.116 164.015C285.98 163.429 285.552 163.091 284.831 163.001C284.11 162.866 282.871 162.798 281.114 162.798H277.802C276.495 162.798 275.549 163.001 274.963 163.406C274.377 163.812 273.994 164.578 273.814 165.704C273.634 166.831 273.454 168.498 273.273 170.706C273.183 171.517 273.026 172.756 272.8 174.424C272.575 176.091 272.237 177.983 271.786 180.101C271.381 182.219 270.863 184.45 270.232 186.793C269.601 189.091 268.857 191.321 268.001 193.484C267.145 195.647 266.154 197.562 265.027 199.229C263.901 200.852 262.617 202.091 261.175 202.947V202.068H280.776C282.623 202.068 283.93 202.001 284.696 201.865C285.507 201.73 285.98 201.392 286.116 200.852C286.296 200.266 286.386 199.297 286.386 197.945Z" fill="#04203F"/>
<path d="M297.883 211.826C297.908 211.944 298.01 212.011 298.187 212.028L298.282 212.033C298.518 212.032 298.651 211.963 298.681 211.826L298.688 211.762V203.555C298.688 203.15 298.642 202.924 298.552 202.879C298.507 202.789 298.282 202.744 297.876 202.744C296.491 202.744 295.346 202.732 294.442 202.707L293.618 202.677C292.79 202.598 292.169 202.45 291.755 202.233L291.59 202.136C291.185 201.865 290.937 201.415 290.847 200.784C290.813 200.277 290.792 199.643 290.783 198.883L290.779 198.08V166.786C290.779 165.479 290.915 164.51 291.185 163.88C291.455 163.204 291.918 162.751 292.468 162.437C292.881 162.201 293.252 162.142 294.115 162.127L295.163 162.122C295.253 162.122 295.298 161.987 295.298 161.717C295.298 161.48 295.264 161.346 295.195 161.317L295.163 161.311L295.163 160.811C295.54 160.811 295.694 161.122 295.738 161.254C295.787 161.4 295.798 161.567 295.798 161.716C295.798 161.866 295.787 162.033 295.738 162.179C295.694 162.312 295.54 162.622 295.163 162.623C293.439 162.623 293.124 162.638 292.716 162.871C292.246 163.139 291.871 163.512 291.65 164.065L291.645 164.077C291.416 164.612 291.28 165.497 291.28 166.786V198.081C291.28 199.189 291.301 200.07 291.344 200.728C291.422 201.255 291.616 201.553 291.867 201.72C292.164 201.918 292.731 202.088 293.651 202.177C294.63 202.222 296.037 202.244 297.876 202.244C298.091 202.244 298.287 202.256 298.447 202.288C298.527 202.304 298.62 202.328 298.708 202.373C298.766 202.401 298.842 202.451 298.91 202.528C298.983 202.595 299.031 202.667 299.059 202.723C299.103 202.812 299.128 202.904 299.144 202.984C299.176 203.144 299.188 203.34 299.188 203.555V211.762C299.188 211.998 299.087 212.232 298.863 212.381C298.676 212.506 298.457 212.533 298.282 212.533C298.108 212.533 297.888 212.507 297.7 212.381C297.477 212.232 297.376 211.998 297.376 211.762C297.376 209.917 297.025 208.716 296.493 207.762C295.95 206.788 295.209 206.047 294.333 205.102L294.332 205.101C293.629 204.341 292.677 204.056 291.343 203.982C290.675 203.945 289.933 203.962 289.102 203.99C288.276 204.017 287.365 204.055 286.386 204.055H265.23C263.533 204.055 262.028 204.36 260.704 204.958C259.375 205.622 259.061 205.729 257.63 206.846C256.954 207.374 256.546 207.91 256.294 208.632C256.034 209.378 255.93 210.353 255.93 211.782C255.93 212.017 255.829 212.251 255.606 212.4C255.418 212.525 255.199 212.552 255.024 212.552C254.849 212.552 254.63 212.525 254.443 212.4C254.219 212.251 254.118 212.017 254.118 211.782V203.488C254.118 203.299 254.124 203.134 254.138 202.999C254.15 202.882 254.172 202.722 254.239 202.588L254.275 202.515L254.332 202.459C254.475 202.316 254.656 202.254 254.797 202.222C254.947 202.189 255.117 202.176 255.294 202.176C257.112 202.176 258.71 201.588 260.108 200.403C261.585 199.142 262.901 197.48 264.049 195.405L264.053 195.398C265.251 193.312 266.275 191 267.121 188.46L267.124 188.452C268.018 185.904 268.733 183.335 269.269 180.744C269.807 178.097 270.21 175.633 270.479 173.351C270.748 171.019 270.881 169.081 270.881 167.53C270.881 166.489 270.751 165.598 270.501 164.849C270.232 164.041 269.969 163.402 269.19 163.048L269.182 163.044C268.736 162.832 268.465 162.736 268.065 162.684C267.634 162.628 267.055 162.623 265.984 162.623C265.607 162.623 265.452 162.312 265.407 162.179C265.359 162.033 265.348 161.866 265.348 161.716C265.348 161.567 265.359 161.4 265.407 161.254C265.452 161.122 265.606 160.811 265.984 160.811L265.983 161.311L265.951 161.317C265.883 161.347 265.848 161.48 265.848 161.717C265.848 161.987 265.893 162.122 265.983 162.122C268.101 162.122 268.451 162.143 269.397 162.593C270.388 163.044 270.705 163.88 270.975 164.691C271.246 165.502 271.381 166.448 271.381 167.529L271.374 168.139C271.345 169.603 271.212 171.36 270.975 173.41C270.705 175.708 270.299 178.186 269.759 180.845C269.218 183.458 268.497 186.049 267.596 188.618L267.266 189.57C266.477 191.768 265.551 193.794 264.487 195.647C263.315 197.765 261.963 199.477 260.431 200.784C258.944 202.046 257.232 202.677 255.294 202.677C254.979 202.677 254.776 202.722 254.686 202.812L254.656 202.905C254.631 203.023 254.618 203.217 254.618 203.488V211.782C254.618 211.939 254.722 212.028 254.929 212.047L255.024 212.052C255.26 212.052 255.393 211.983 255.423 211.845L255.429 211.782C255.429 209.078 255.794 207.773 257.057 206.67L257.322 206.452C258.8 205.298 259.147 205.177 260.499 204.502C261.896 203.871 263.473 203.555 265.23 203.555H286.386C290.261 203.555 293.032 202.96 294.7 204.762C296.412 206.61 297.876 207.932 297.876 211.762L297.883 211.826ZM285.886 197.945V166.921C285.886 165.523 285.793 164.628 285.641 164.172L285.634 164.15L285.628 164.127C285.583 163.933 285.499 163.806 285.383 163.714C285.261 163.618 285.069 163.534 284.77 163.497L284.754 163.495L284.739 163.493C284.069 163.367 282.871 163.298 281.114 163.298H277.802C276.524 163.298 275.706 163.501 275.248 163.818C274.826 164.11 274.479 164.713 274.308 165.784C274.131 166.891 273.952 168.542 273.772 170.747L273.771 170.754V170.761C273.68 171.579 273.522 172.823 273.296 174.491C273.069 176.173 272.728 178.079 272.276 180.206C271.868 182.334 271.348 184.573 270.715 186.922L270.714 186.925C270.079 189.24 269.329 191.488 268.466 193.669C267.599 195.86 266.591 197.808 265.442 199.509L265.438 199.514C264.907 200.279 264.339 200.963 263.735 201.568H280.776L280.776 202.068L262.435 202.068C263.292 201.376 264.085 200.53 264.815 199.529L265.027 199.229C266.154 197.562 267.145 195.647 268.001 193.484C268.857 191.321 269.601 189.091 270.232 186.793C270.863 184.45 271.381 182.219 271.786 180.101C272.237 177.983 272.575 176.091 272.8 174.424C272.913 173.59 273.008 172.863 273.087 172.244L273.273 170.706C273.409 169.05 273.544 167.699 273.679 166.651L273.814 165.704C273.983 164.648 274.33 163.909 274.856 163.487L274.963 163.406C275.476 163.051 276.265 162.851 277.329 162.807L277.802 162.798H281.114C282.871 162.798 284.11 162.866 284.831 163.001C285.552 163.091 285.98 163.429 286.116 164.015C286.296 164.555 286.386 165.524 286.386 166.921V197.945C286.386 199.297 286.296 200.266 286.116 200.852L286.086 200.951C285.92 201.434 285.456 201.739 284.696 201.865L284.384 201.913C283.595 202.016 282.393 202.068 280.776 202.068L280.776 201.568C282.623 201.568 283.891 201.499 284.61 201.373H284.614C285.337 201.252 285.565 200.99 285.63 200.73L285.638 200.705C285.794 200.196 285.886 199.292 285.886 197.945ZM268.214 160.811L268.214 161.311H265.983L265.984 160.811H268.214ZM271.448 160.811L271.448 161.311H268.214L268.214 160.811H271.448ZM277.531 160.811L277.532 161.311H271.448L271.448 160.811H277.531ZM284.088 160.811L284.088 161.311H277.532L277.531 160.811H284.088ZM290.104 160.811L290.104 161.311H284.088L284.088 160.811H290.104ZM293.135 160.811L293.135 161.311C291.964 161.311 291.951 161.311 290.104 161.311L290.104 160.811H293.135ZM295.163 160.811L295.163 161.311H293.135L293.135 160.811H295.163Z" fill="#04203F"/>
<path d="M221.904 166.921C221.904 165.614 221.769 164.623 221.498 163.947C221.228 163.271 220.665 162.798 219.808 162.528C218.997 162.257 219.236 162.325 217.478 162.325C217.343 162.325 217.276 162.19 217.276 161.919C217.276 161.649 217.343 161.514 217.478 161.514C218.56 161.514 219.643 161.514 219.643 161.514L224.134 161.514L228.49 161.514C228.49 161.514 229.562 161.514 230.598 161.514C230.733 161.514 230.801 161.649 230.801 161.919C230.801 162.19 230.733 162.325 230.598 162.325C228.931 162.325 229.181 162.257 228.325 162.528C227.469 162.753 226.905 163.204 226.635 163.879C226.365 164.51 226.23 165.479 226.23 166.786V198.08C226.23 199.387 226.365 200.378 226.635 201.054C226.905 201.73 227.469 202.181 228.325 202.406C229.181 202.631 228.929 202.609 230.597 202.609C230.732 202.609 230.799 202.744 230.799 203.014C230.799 203.285 230.732 203.42 230.597 203.42C229.56 203.42 228.492 203.42 228.492 203.42H219.597C219.597 203.42 218.545 203.42 217.464 203.42C217.329 203.42 217.261 203.285 217.261 203.014C217.261 202.744 217.329 202.609 217.464 202.609C219.221 202.609 218.997 202.631 219.808 202.406C220.665 202.181 221.228 201.73 221.498 201.054C221.769 200.378 221.904 199.387 221.904 198.08V166.921ZM193.583 182.264V180.845H223.796V182.264H193.583ZM191.623 198.08V166.786C191.623 165.479 191.465 164.51 191.15 163.879C190.88 163.204 190.316 162.753 189.46 162.528C188.649 162.257 188.892 162.325 187.225 162.325C187.135 162.325 187.09 162.19 187.09 161.919C187.09 161.649 187.135 161.514 187.225 161.514C188.307 161.514 189.396 161.514 189.396 161.514H193.718H198.27C198.27 161.514 199.333 161.514 200.415 161.514C200.505 161.514 200.55 161.649 200.55 161.919C200.55 162.19 200.505 162.325 200.415 162.325C198.747 162.325 198.795 162.325 198.112 162.528C197.429 162.73 196.67 163.271 196.354 163.947C196.084 164.623 195.949 165.614 195.949 166.921V198.08C195.949 199.387 196.084 200.378 196.354 201.054C196.625 201.73 197.188 202.181 198.044 202.406C198.945 202.631 198.744 202.609 200.412 202.609C200.502 202.609 200.547 202.744 200.547 203.014C200.547 203.285 200.502 203.42 200.412 203.42C199.285 203.42 198.171 203.42 198.171 203.42H189.395C189.395 203.42 188.253 203.42 187.172 203.42C187.082 203.42 187.037 203.285 187.037 203.014C187.037 202.744 187.082 202.609 187.172 202.609C188.839 202.609 188.604 202.631 189.46 202.406C190.316 202.181 190.88 201.73 191.15 201.054C191.465 200.378 191.623 199.387 191.623 198.08Z" fill="#04203F"/>
<path d="M186.537 203.015C186.537 202.865 186.548 202.698 186.596 202.552C186.641 202.419 186.795 202.109 187.172 202.109L187.172 202.609C187.082 202.609 187.037 202.744 187.037 203.014L187.046 203.192C187.06 203.318 187.091 203.392 187.14 203.413L187.172 203.42H200.412L200.443 203.413C200.492 203.392 200.525 203.319 200.539 203.192L200.547 203.014C200.547 202.778 200.512 202.645 200.443 202.615L200.412 202.609L200.412 202.109C200.788 202.109 200.943 202.419 200.987 202.552C201.036 202.698 201.047 202.865 201.047 203.015C201.047 203.164 201.036 203.331 200.987 203.477C200.943 203.61 200.789 203.92 200.412 203.92H187.172C186.795 203.92 186.641 203.61 186.596 203.477C186.548 203.331 186.537 203.164 186.537 203.015ZM216.761 203.015C216.761 202.854 216.779 202.659 216.865 202.486C216.911 202.393 216.984 202.293 217.097 202.218C217.214 202.14 217.342 202.109 217.464 202.109L217.464 202.609C217.329 202.609 217.261 202.744 217.261 203.014L217.274 203.192C217.295 203.319 217.343 203.392 217.417 203.413L217.464 203.42H230.597L230.644 203.413C230.718 203.392 230.766 203.318 230.787 203.192L230.799 203.014C230.799 202.744 230.732 202.609 230.597 202.609L230.596 202.109C230.718 202.109 230.846 202.14 230.963 202.218C231.076 202.293 231.149 202.393 231.196 202.486C231.282 202.659 231.299 202.854 231.299 203.015C231.299 203.175 231.282 203.37 231.196 203.542C231.149 203.635 231.076 203.735 230.963 203.811C230.846 203.888 230.718 203.92 230.596 203.92H217.464C217.342 203.92 217.214 203.888 217.097 203.811C216.984 203.735 216.911 203.635 216.865 203.542C216.779 203.37 216.761 203.175 216.761 203.015ZM226.23 198.08V166.786C226.23 165.643 226.333 164.758 226.54 164.132L226.635 163.879C226.872 163.288 227.333 162.87 228.017 162.623L228.325 162.528C228.967 162.325 228.987 162.312 229.66 162.318L230.598 162.325C230.733 162.325 230.801 162.19 230.801 161.919C230.801 161.683 230.749 161.55 230.645 161.521L230.598 161.514L230.598 161.014C230.719 161.014 230.847 161.046 230.964 161.123C231.077 161.199 231.15 161.299 231.197 161.392C231.283 161.564 231.3 161.758 231.3 161.919C231.3 162.08 231.283 162.275 231.197 162.447C231.15 162.54 231.077 162.641 230.964 162.716C230.847 162.793 230.719 162.825 230.598 162.825C229.729 162.825 229.422 162.808 229.19 162.823C229.009 162.835 228.919 162.864 228.475 163.004L228.464 163.008L228.452 163.011C227.712 163.206 227.298 163.569 227.099 164.066L227.094 164.076C226.865 164.611 226.729 165.497 226.729 166.786V198.08C226.729 199.366 226.864 200.281 227.099 200.868C227.298 201.365 227.712 201.728 228.452 201.923C228.909 202.043 229.003 202.076 229.201 202.094C229.424 202.114 229.741 202.109 230.596 202.109L230.597 202.609C229.346 202.609 229.175 202.622 228.806 202.533L228.325 202.406C227.522 202.195 226.977 201.786 226.689 201.179L226.635 201.054C226.365 200.378 226.23 199.387 226.23 198.08ZM221.404 198.08V182.764H196.449V198.08C196.449 199.366 196.584 200.281 196.819 200.868C197.017 201.364 197.429 201.726 198.166 201.921L198.668 202.045C198.785 202.071 198.872 202.085 198.982 202.094C199.226 202.114 199.558 202.109 200.412 202.109L200.412 202.609C198.744 202.609 198.945 202.631 198.044 202.406C197.242 202.195 196.697 201.786 196.409 201.179L196.354 201.054C196.084 200.378 195.949 199.387 195.949 198.08L195.949 182.264H221.904L221.904 198.08L221.897 198.556C221.868 199.63 221.735 200.463 221.498 201.054L221.444 201.179C221.156 201.786 220.611 202.195 219.808 202.406C218.997 202.631 219.221 202.609 217.464 202.609L217.464 202.109C218.363 202.109 218.712 202.114 218.949 202.094C219.155 202.076 219.245 202.043 219.674 201.924L219.681 201.923C220.421 201.728 220.835 201.365 221.034 200.868C221.269 200.281 221.404 199.366 221.404 198.08ZM191.123 198.08V166.786C191.123 165.502 190.965 164.627 190.703 164.103L190.693 164.084L190.686 164.066C190.488 163.569 190.073 163.206 189.333 163.011L189.317 163.007L189.302 163.002C188.881 162.862 188.803 162.835 188.63 162.823C188.402 162.808 188.094 162.825 187.225 162.825C186.848 162.825 186.694 162.515 186.649 162.382C186.601 162.236 186.59 162.069 186.59 161.919C186.59 161.769 186.601 161.603 186.649 161.457C186.693 161.324 186.848 161.014 187.225 161.014L187.225 161.514L187.193 161.52C187.124 161.549 187.09 161.683 187.09 161.919C187.09 162.155 187.124 162.289 187.193 162.318L187.225 162.325C188.892 162.325 188.649 162.257 189.46 162.528C190.316 162.753 190.88 163.204 191.15 163.879C191.465 164.51 191.623 165.479 191.623 166.786V198.08C191.623 199.387 191.465 200.378 191.15 201.054L191.095 201.179C190.808 201.786 190.262 202.195 189.46 202.406L188.976 202.533C188.603 202.622 188.423 202.609 187.172 202.609L187.172 202.109C188.026 202.109 188.349 202.114 188.577 202.094C188.779 202.076 188.879 202.042 189.333 201.923C190.073 201.728 190.488 201.365 190.686 200.868L190.691 200.856L190.697 200.843C190.966 200.266 191.123 199.361 191.123 198.08ZM195.949 166.921C195.949 165.614 196.084 164.623 196.354 163.947C196.63 163.356 197.246 162.868 197.853 162.619L198.112 162.528C198.624 162.376 198.725 162.338 199.447 162.328L200.415 162.325C200.505 162.325 200.55 162.19 200.55 161.919C200.55 161.683 200.515 161.549 200.446 161.52L200.415 161.514L200.415 161.014C200.792 161.014 200.946 161.324 200.99 161.457C201.038 161.603 201.049 161.769 201.049 161.919C201.049 162.069 201.039 162.236 200.99 162.382C200.945 162.515 200.791 162.825 200.415 162.825C199.568 162.825 199.193 162.825 198.939 162.848C198.715 162.868 198.603 162.904 198.255 163.007C197.678 163.178 197.061 163.633 196.815 164.142C196.582 164.729 196.449 165.642 196.449 166.921V180.345H221.404V166.921C221.404 165.636 221.269 164.72 221.034 164.133C220.832 163.628 220.408 163.241 219.658 163.004L219.65 163.002C219.232 162.863 219.151 162.835 218.966 162.823C218.725 162.808 218.39 162.825 217.478 162.825C217.357 162.825 217.228 162.793 217.112 162.716C216.999 162.64 216.925 162.54 216.879 162.447C216.793 162.275 216.775 162.08 216.775 161.919C216.775 161.759 216.793 161.564 216.879 161.392C216.925 161.299 216.999 161.199 217.112 161.123C217.228 161.046 217.357 161.014 217.478 161.014L217.478 161.514C217.343 161.514 217.276 161.649 217.276 161.919C217.276 162.156 217.327 162.289 217.43 162.318L217.478 162.325C219.236 162.325 218.997 162.257 219.808 162.528C220.665 162.798 221.228 163.271 221.498 163.947C221.769 164.623 221.904 165.614 221.904 166.921L221.904 180.845H195.949L195.949 166.921ZM219.643 161.014C219.643 161.014 219.643 161.014 219.643 161.514C219.632 161.514 218.554 161.514 217.478 161.514L217.478 161.014H219.643ZM224.134 161.014L224.134 161.514L219.643 161.514C219.643 161.014 219.643 161.014 219.643 161.014H224.134ZM228.49 161.014L228.49 161.514L224.134 161.514L224.134 161.014H228.49ZM230.598 161.014L230.598 161.514H228.49L228.49 161.014H230.598ZM189.396 161.014C189.396 161.014 189.396 161.014 189.396 161.514H187.225L187.225 161.014H189.396ZM193.718 161.014V161.514H189.396C189.396 161.014 189.396 161.014 189.396 161.014H193.718ZM198.27 161.014L198.27 161.514H193.718V161.014H198.27ZM200.415 161.014L200.415 161.514H198.27L198.27 161.014H200.415Z" fill="#04203F"/>
<path fill-rule="evenodd" clip-rule="evenodd" d="M136.357 160.632C131.799 160.96 127.586 162.527 124.058 164.995C123.316 165.514 122.904 166.376 122.893 167.281L122.84 171.952C122.84 172.088 122.953 172.178 123.178 172.223C123.403 172.268 123.539 172.2 123.584 172.02C125.116 168.325 126.261 165.614 128.74 163.947C131.263 162.28 135.849 161.446 138.733 161.446C141.842 161.446 144.613 162.347 147.047 164.15C149.525 165.952 151.463 168.521 152.86 171.855C153.995 174.446 154.684 177.443 154.925 180.845C154.958 181.31 154.983 181.784 154.999 182.264C155.015 182.73 155.023 183.203 155.023 183.684C155.023 187.559 154.459 190.938 153.333 193.822C152.206 196.661 150.471 198.846 148.128 200.379C145.83 201.911 142.901 202.677 139.342 202.677C137.224 202.677 133.268 202.339 131.241 201.663C129.258 200.987 127.501 199.928 125.969 198.486C124.716 197.307 124.309 195.816 123.808 193.982C123.696 193.573 123.58 193.146 123.448 192.703C123.403 192.567 123.246 192.522 122.975 192.567C122.75 192.613 122.637 192.703 122.637 192.838L122.608 197.4C122.602 198.307 123.001 199.177 123.736 199.709C127.66 202.55 132.465 204.261 137.667 204.362C140.464 204.308 143.14 203.791 145.695 202.812C148.444 201.775 150.877 200.266 152.995 198.283C155.158 196.301 156.848 193.89 158.064 191.051C159.326 188.167 159.957 184.9 159.957 181.25C159.957 178.637 159.574 176.113 158.808 173.68C158.309 171.965 157.583 170.379 156.63 168.922C156.207 168.275 155.739 167.653 155.225 167.056C153.603 165.074 151.44 163.497 148.737 162.325C146.078 161.153 142.811 160.568 138.936 160.568C138.803 160.568 138.661 160.568 138.51 160.57C137.902 160.577 137.158 160.598 136.357 160.632Z" fill="#04203F"/>
<path d="M138.936 160.068C142.857 160.068 146.197 160.66 148.936 161.866L149.448 162.096C151.974 163.267 154.031 164.809 155.605 166.73L155.991 167.195C156.37 167.664 156.722 168.149 157.049 168.649C158.027 170.145 158.772 171.773 159.284 173.53L159.426 173.996C160.113 176.335 160.456 178.753 160.456 181.25C160.456 184.957 159.815 188.292 158.523 191.247C157.28 194.146 155.552 196.615 153.335 198.648L153.336 198.649C151.171 200.676 148.681 202.218 145.873 203.278L145.874 203.279C143.264 204.279 140.53 204.807 137.676 204.862H137.657C132.35 204.759 127.447 203.013 123.443 200.114C122.564 199.479 122.101 198.449 122.108 197.397L122.137 192.835C122.138 192.605 122.244 192.411 122.409 192.279C122.554 192.163 122.728 192.107 122.877 192.077L122.885 192.075L122.893 192.074C123.058 192.047 123.251 192.035 123.434 192.087C123.618 192.14 123.791 192.259 123.887 192.456L123.923 192.545L123.925 192.553L123.928 192.561C124.061 193.01 124.179 193.441 124.29 193.85L124.477 194.524C124.905 196.041 125.319 197.189 126.311 198.122C127.79 199.515 129.485 200.536 131.399 201.189L131.782 201.305C132.725 201.57 134.001 201.779 135.313 201.926C136.804 202.093 138.304 202.177 139.341 202.177C142.83 202.177 145.656 201.426 147.851 199.962L147.855 199.96C150.104 198.49 151.776 196.39 152.868 193.638C153.967 190.825 154.523 187.511 154.523 183.684C154.523 183.289 154.516 182.899 154.505 182.514H136.075C135.197 182.514 134.411 182.905 133.88 183.524C133.848 183.562 133.816 183.6 133.786 183.639L133.769 183.662L133.746 183.68C133.635 183.771 133.491 183.827 133.335 183.827C132.973 183.827 132.684 183.532 132.684 183.172V179.937C132.684 179.577 132.973 179.282 133.335 179.282C133.452 179.282 133.563 179.313 133.657 179.367L133.746 179.43L133.769 179.447L133.785 179.47C133.816 179.509 133.847 179.548 133.879 179.585C134.41 180.204 135.197 180.595 136.075 180.595H154.404C154.148 177.357 153.479 174.513 152.402 172.056L152.399 172.048C151.031 168.783 149.145 166.294 146.753 164.554L146.749 164.552C144.404 162.815 141.739 161.947 138.734 161.947C137.333 161.947 135.503 162.149 133.713 162.559C131.917 162.97 130.206 163.578 129.016 164.364L129.015 164.364C126.687 165.931 125.591 168.482 124.045 172.211L124.044 172.21C123.986 172.383 123.872 172.552 123.672 172.653C123.465 172.756 123.248 172.747 123.08 172.713C122.931 172.683 122.758 172.628 122.613 172.512C122.447 172.379 122.34 172.183 122.34 171.952V171.947L122.394 167.276C122.406 166.225 122.885 165.206 123.772 164.585C127.371 162.067 131.67 160.468 136.321 160.133H136.328L136.335 160.132C137.14 160.098 137.89 160.077 138.504 160.071C138.657 160.069 138.801 160.068 138.936 160.068ZM138.51 160.57C137.902 160.577 137.158 160.598 136.357 160.632C131.799 160.96 127.586 162.527 124.058 164.995C123.316 165.514 122.904 166.376 122.893 167.281L122.84 171.952C122.84 172.088 122.953 172.178 123.178 172.223C123.403 172.268 123.539 172.2 123.584 172.02C125.116 168.325 126.261 165.614 128.74 163.947C131.263 162.28 135.849 161.446 138.733 161.446C141.842 161.446 144.613 162.347 147.047 164.15C149.525 165.952 151.463 168.521 152.86 171.855C153.995 174.446 154.684 177.443 154.925 180.845C154.958 181.31 154.983 181.784 154.999 182.264C155.015 182.73 155.023 183.203 155.023 183.684C155.023 187.559 154.459 190.938 153.333 193.822C152.206 196.661 150.471 198.846 148.128 200.379C145.83 201.911 142.901 202.677 139.342 202.677C137.224 202.677 133.268 202.339 131.241 201.663C129.258 200.987 127.501 199.928 125.969 198.486C124.716 197.307 124.309 195.816 123.808 193.982C123.696 193.573 123.58 193.146 123.448 192.703C123.403 192.567 123.246 192.522 122.975 192.567C122.75 192.613 122.637 192.703 122.637 192.838L122.608 197.4C122.602 198.307 123.001 199.177 123.736 199.709C127.66 202.55 132.465 204.261 137.667 204.362C140.464 204.308 143.14 203.791 145.695 202.812C148.444 201.775 150.877 200.266 152.995 198.283C155.158 196.301 156.848 193.89 158.064 191.051C159.326 188.167 159.957 184.9 159.957 181.25C159.957 178.637 159.574 176.113 158.808 173.68C158.309 171.965 157.583 170.379 156.63 168.922C156.207 168.275 155.739 167.653 155.225 167.056C153.603 165.074 151.44 163.497 148.737 162.325C146.078 161.153 142.811 160.568 138.936 160.568C138.803 160.568 138.661 160.568 138.51 160.57ZM133.335 179.782C133.254 179.782 133.184 179.849 133.184 179.937V183.172C133.184 183.26 133.254 183.327 133.335 183.327C133.366 183.327 133.393 183.316 133.417 183.3C133.445 183.266 133.472 183.231 133.5 183.198L133.62 183.066C134.238 182.418 135.11 182.014 136.075 182.014H154.488C154.475 181.704 154.459 181.398 154.44 181.095H136.075C135.11 181.095 134.238 180.691 133.62 180.043L133.5 179.91C133.472 179.877 133.444 179.843 133.417 179.809C133.393 179.793 133.366 179.782 133.335 179.782Z" fill="#04203F"/>
<path d="M38.8242 203.555C38.7341 203.555 38.689 203.42 38.689 203.15C38.689 202.879 38.7341 202.744 38.8242 202.744C40.4914 202.744 40.2563 202.632 41.1124 202.406C41.9686 202.181 42.5318 201.73 42.8022 201.054C43.1176 200.379 43.2753 199.387 43.2753 198.08V166.786C43.2753 165.479 43.1176 164.51 42.8022 163.88C42.5318 163.204 41.9686 162.753 41.1124 162.528C40.2563 162.257 40.4787 162.325 38.8115 162.325C38.7213 162.325 38.6763 162.19 38.6763 161.919C38.6763 161.649 38.7213 161.514 38.8115 161.514C39.8929 161.514 40.9927 161.514 40.9927 161.514H45.303H49.4261C49.4261 161.514 50.3428 161.514 51.3341 161.514C51.4693 161.514 51.5369 161.649 51.5369 161.919C51.5369 162.19 51.4693 162.325 51.3341 162.325C49.8471 162.325 50.1921 162.257 49.4261 162.528C48.7051 162.753 48.2094 163.204 47.9391 163.88C47.7138 164.51 47.6011 165.479 47.6011 166.786V197.945C47.6011 199.342 47.6912 200.333 47.8715 200.919C48.0517 201.505 48.5023 201.866 49.2233 202.001C49.9443 202.091 51.1609 202.136 52.8732 202.136H61.9303C63.7778 202.136 65.0845 202.068 65.8506 201.933C66.6166 201.798 67.0897 201.437 67.27 200.852C67.4502 200.266 67.5403 199.297 67.5403 197.945V166.786C67.5403 165.479 67.4052 164.51 67.1348 163.88C66.9095 163.204 66.4138 162.753 65.6478 162.528C64.9268 162.257 65.2564 162.325 63.7694 162.325C63.6342 162.325 63.5666 162.19 63.5666 161.919C63.5666 161.649 63.6342 161.514 63.7694 161.514H64.497H67.1348C67.1348 161.514 68.9147 161.514 69.7708 161.514C71.1226 161.514 73.7163 161.514 73.7163 161.514C73.7163 161.514 74.6726 161.514 75.709 161.514C75.7991 161.514 75.8442 161.649 75.8442 161.919C75.8442 162.19 75.7991 162.325 75.709 162.325C74.222 162.325 74.5923 162.257 73.8263 162.528C73.0602 162.753 72.542 163.204 72.2717 163.88C72.0013 164.51 71.8661 165.479 71.8661 166.786V198.08C71.8661 199.387 72.0464 200.333 72.4069 200.919C72.8124 201.46 73.4432 201.798 74.2994 201.933C75.2006 202.068 76.4398 202.136 78.0169 202.136H86.1953C88.0879 202.136 89.4172 202.068 90.1832 201.933C90.9492 201.798 91.3998 201.437 91.535 200.852C91.7152 200.266 91.8054 199.297 91.8054 197.945V166.786C91.8054 165.479 91.6702 164.51 91.3998 163.88C91.1745 163.204 90.6788 162.753 89.9128 162.528C89.1919 162.257 88.0363 162.257 86.5493 162.257C86.4141 162.257 86.3465 162.122 86.3465 161.852C86.3465 161.581 86.4141 161.446 86.5493 161.446C87.5857 161.446 89.9804 161.446 89.9804 161.446H94.0583H98.3616C98.3616 161.446 99.5009 161.446 100.582 161.446C100.717 161.446 100.785 161.581 100.785 161.852C100.785 162.122 100.717 162.257 100.582 162.257C99.2168 162.257 98.7525 162.257 98.0819 162.528C97.4113 162.798 96.8521 163.204 96.5367 163.88C96.2663 164.51 96.1312 165.479 96.1312 166.786V198.08C96.1312 199.387 96.2663 200.379 96.5367 201.054C96.8521 201.73 97.4379 202.181 98.2941 202.406C99.1502 202.632 98.9151 202.744 100.582 202.744C100.717 202.744 100.785 202.879 100.785 203.15C100.785 203.42 100.717 203.555 100.582 203.555H38.8242Z" fill="#04203F"/>
<path d="M38.189 203.149C38.189 203 38.2 202.833 38.2485 202.688C38.2928 202.555 38.4468 202.244 38.8237 202.244C39.6584 202.244 39.9677 202.214 40.1655 202.171C40.2624 202.15 40.3403 202.124 40.4673 202.081C40.5948 202.038 40.7538 201.984 40.9849 201.923C41.7249 201.728 42.1397 201.366 42.3384 200.869L42.3433 200.855L42.3491 200.843C42.6185 200.265 42.7749 199.361 42.7749 198.08V166.786C42.7749 165.502 42.6173 164.628 42.355 164.104L42.3452 164.085L42.3384 164.065C42.1398 163.569 41.725 163.206 40.9849 163.012L40.9731 163.008L40.9614 163.005C40.5226 162.866 40.4225 162.837 40.2339 162.824C39.9948 162.809 39.6796 162.825 38.811 162.825C38.4343 162.825 38.2802 162.515 38.2358 162.382C38.1873 162.236 38.1763 162.069 38.1763 161.919C38.1763 161.769 38.1873 161.603 38.2358 161.457C38.2802 161.324 38.4342 161.014 38.811 161.014L38.8115 161.514C38.7213 161.514 38.6763 161.649 38.6763 161.919C38.6763 162.156 38.7108 162.289 38.7798 162.318L38.8115 162.325C40.4787 162.325 40.2563 162.257 41.1124 162.528C41.9686 162.753 42.5318 163.204 42.8022 163.88C43.1176 164.51 43.2753 165.479 43.2753 166.786V198.08C43.2753 199.387 43.1176 200.379 42.8022 201.054L42.7476 201.179C42.4598 201.786 41.9147 202.195 41.1124 202.406L40.8364 202.485C40.2852 202.658 40.2829 202.744 38.8242 202.744C38.7341 202.744 38.689 202.879 38.689 203.15L38.6978 203.327C38.7118 203.454 38.7432 203.528 38.7925 203.549L38.8242 203.555H100.582L100.629 203.549C100.733 203.519 100.785 203.387 100.785 203.15C100.785 202.913 100.733 202.78 100.629 202.751L100.582 202.744C99.1235 202.744 99.1212 202.658 98.5698 202.485L98.2941 202.406C97.4379 202.181 96.8521 201.73 96.5367 201.054C96.3001 200.463 96.1668 199.63 96.1372 198.556L96.1312 198.08V166.786C96.1312 165.479 96.2663 164.51 96.5367 163.88C96.8521 163.204 97.4113 162.798 98.0819 162.528C98.5848 162.325 98.9716 162.274 99.7095 162.262L100.582 162.257C100.717 162.257 100.785 162.122 100.785 161.852C100.785 161.615 100.733 161.483 100.629 161.453L100.582 161.446L100.583 160.946C100.704 160.946 100.832 160.978 100.949 161.056C101.062 161.131 101.135 161.231 101.181 161.324C101.267 161.496 101.285 161.691 101.285 161.852C101.285 162.012 101.267 162.208 101.181 162.38C101.135 162.473 101.062 162.573 100.949 162.648C100.832 162.726 100.704 162.758 100.583 162.758C99.1953 162.758 98.8332 162.764 98.269 162.991C97.6741 163.231 97.2388 163.564 96.9937 164.082C96.7658 164.618 96.6313 165.501 96.6313 166.786V198.08C96.6313 199.352 96.7632 200.263 96.9937 200.851C97.2352 201.362 97.6828 201.729 98.4214 201.923C98.6526 201.984 98.8115 202.038 98.939 202.081C99.0662 202.124 99.1446 202.15 99.2417 202.171C99.4395 202.214 99.7483 202.244 100.583 202.244C100.704 202.244 100.832 202.276 100.949 202.354C101.062 202.429 101.135 202.529 101.181 202.622C101.267 202.794 101.285 202.989 101.285 203.149C101.285 203.31 101.267 203.506 101.181 203.678C101.135 203.771 101.062 203.871 100.949 203.946C100.832 204.024 100.704 204.056 100.583 204.056H38.8237C38.4471 204.055 38.293 203.745 38.2485 203.612C38.1999 203.467 38.189 203.299 38.189 203.149ZM61.9302 201.636L61.9303 202.136H52.8732L52.8735 201.636H61.9302ZM67.0405 197.945V166.786C67.0405 165.497 66.9045 164.611 66.6753 164.076L66.6675 164.058L66.6606 164.038C66.494 163.538 66.1374 163.193 65.5063 163.008L65.4888 163.002L65.4722 162.996C65.0653 162.844 65.0578 162.832 64.9526 162.823C64.8848 162.817 64.7892 162.816 64.5942 162.818C64.4068 162.82 64.1443 162.825 63.769 162.825C63.6478 162.825 63.5191 162.793 63.4028 162.716C63.2898 162.64 63.2169 162.54 63.1704 162.447C63.0845 162.275 63.0669 162.081 63.0669 161.92C63.0669 161.759 63.0844 161.564 63.1704 161.392C63.2169 161.299 63.2898 161.198 63.4028 161.123C63.5191 161.046 63.6478 161.014 63.769 161.014L63.7694 161.514C63.6342 161.514 63.5666 161.649 63.5666 161.919L63.5796 162.097C63.6007 162.224 63.6481 162.297 63.7222 162.318L63.7694 162.325C65.2564 162.325 64.9268 162.257 65.6478 162.528C66.4138 162.753 66.9095 163.204 67.1348 163.88C67.4052 164.51 67.5403 165.479 67.5403 166.786V197.945L67.5356 198.435C67.5159 199.533 67.4277 200.339 67.27 200.852L67.2329 200.959C67.0296 201.482 66.5687 201.806 65.8506 201.933L65.5376 201.98C64.749 202.084 63.5467 202.136 61.9303 202.136L61.9302 201.636C63.7769 201.636 65.0445 201.567 65.7632 201.44C66.4032 201.327 66.683 201.061 66.7925 200.705C66.949 200.196 67.0405 199.292 67.0405 197.945ZM86.1958 201.636L86.1953 202.136H78.0169L78.0171 201.636H86.1958ZM91.3052 197.945V166.786C91.3052 165.497 91.1692 164.611 90.9399 164.076L90.9321 164.058L90.9253 164.038C90.7586 163.538 90.4028 163.193 89.772 163.008L89.7368 162.996C89.4484 162.888 89.0404 162.823 88.4888 162.79C87.9419 162.757 87.2974 162.758 86.5493 162.758C86.4281 162.758 86.2994 162.726 86.1831 162.648C86.0699 162.573 85.9963 162.473 85.9497 162.38C85.8637 162.208 85.8462 162.012 85.8462 161.852C85.8462 161.691 85.8638 161.496 85.9497 161.324C85.9962 161.231 86.0699 161.131 86.1831 161.056C86.2994 160.978 86.428 160.946 86.5493 160.946L86.5493 161.446L86.5015 161.453C86.3983 161.483 86.3466 161.616 86.3465 161.852C86.3465 162.122 86.4141 162.257 86.5493 162.257C88.0363 162.257 89.1919 162.257 89.9128 162.528C90.6788 162.753 91.1745 163.204 91.3998 163.88C91.6702 164.51 91.8054 165.479 91.8054 166.786V197.945L91.8013 198.435C91.7815 199.533 91.6927 200.339 91.535 200.852C91.3998 201.437 90.9492 201.798 90.1832 201.933L89.8696 201.98C89.0762 202.084 87.8512 202.136 86.1953 202.136L86.1958 201.636C88.0885 201.636 89.378 201.567 90.0962 201.44C90.4242 201.383 90.6426 201.284 90.7837 201.171C90.917 201.064 91.004 200.927 91.0474 200.739L91.0522 200.722L91.0571 200.705C91.2136 200.196 91.3052 199.292 91.3052 197.945ZM71.8661 198.08V166.786C71.8661 165.643 71.9693 164.758 72.1763 164.132L72.2717 163.88C72.5082 163.288 72.9344 162.869 73.5503 162.623L73.8263 162.528C74.4002 162.325 74.3363 162.312 74.895 162.318L75.709 162.325C75.7766 162.325 75.8186 162.249 75.8354 162.097L75.8442 161.919C75.8442 161.649 75.7991 161.514 75.709 161.514L75.7085 161.014C76.0856 161.014 76.2403 161.324 76.2847 161.457C76.3333 161.603 76.3442 161.77 76.3442 161.92C76.3442 162.07 76.3332 162.236 76.2847 162.382C76.2403 162.515 76.0856 162.825 75.7085 162.825C75.3333 162.825 75.0735 162.82 74.8892 162.818C74.6973 162.816 74.6063 162.817 74.5415 162.823C74.435 162.833 74.4287 162.845 73.9927 162.999L73.98 163.004L73.9673 163.008C73.3321 163.195 72.9432 163.547 72.7358 164.065L72.731 164.076C72.5017 164.611 72.3657 165.497 72.3657 166.786V198.08C72.3657 199.345 72.543 200.169 72.8208 200.636C73.1283 201.035 73.6205 201.319 74.3726 201.438C75.2378 201.568 76.4497 201.636 78.0171 201.636L78.0169 202.136L76.897 202.123C76.0169 202.102 75.2689 202.054 74.6528 201.98L74.2994 201.933C73.4432 201.798 72.8124 201.46 72.4069 200.919C72.0464 200.333 71.8661 199.387 71.8661 198.08ZM47.6011 197.945V166.786C47.6011 165.479 47.7138 164.51 47.9391 163.88C48.1757 163.288 48.5849 162.869 49.1665 162.623L49.4261 162.528C50.0001 162.325 49.9502 162.312 50.5161 162.318L51.3341 162.325C51.4353 162.325 51.4986 162.249 51.5239 162.097L51.5369 161.919C51.5369 161.683 51.4849 161.55 51.3813 161.521L51.3341 161.514L51.3345 161.014C51.4555 161.014 51.5836 161.046 51.6997 161.123C51.8129 161.198 51.8865 161.299 51.9331 161.392C52.0191 161.564 52.0366 161.759 52.0366 161.92C52.0366 162.081 52.0191 162.275 51.9331 162.447C51.8865 162.54 51.8129 162.64 51.6997 162.716C51.5836 162.793 51.4555 162.825 51.3345 162.825C50.9591 162.825 50.697 162.82 50.5103 162.818C50.3167 162.816 50.2217 162.817 50.1528 162.823C50.0398 162.833 50.0215 162.848 49.5923 162.999L49.5747 163.005C48.9947 163.186 48.6195 163.531 48.4067 164.056C48.2131 164.603 48.1011 165.499 48.1011 166.786V197.945C48.1011 199.339 48.1929 200.265 48.3491 200.772C48.4624 201.141 48.7317 201.397 49.3081 201.507C49.9986 201.591 51.1805 201.636 52.8735 201.636L52.8732 202.136L51.6821 202.127C50.5836 202.11 49.7641 202.068 49.2233 202.001C48.5474 201.874 48.1094 201.549 47.9087 201.026L47.8715 200.919C47.7138 200.407 47.6247 199.584 47.605 198.45L47.6011 197.945ZM64.4966 161.014L64.497 161.514H63.7694L63.769 161.014H64.4966ZM67.1353 161.014L67.1348 161.514H64.497L64.4966 161.014H67.1353ZM69.771 161.014L69.7708 161.514H67.1348L67.1353 161.014H69.771ZM73.7163 161.014C73.7163 161.014 73.7163 161.016 73.7163 161.514H69.7708L69.771 161.014H73.7163ZM75.7085 161.014L75.709 161.514H73.7163V161.014H75.7085ZM40.9927 161.014C40.9927 161.014 40.9927 161.015 40.9927 161.514L38.8115 161.514L38.811 161.014H40.9927ZM45.3032 161.014L45.303 161.514H40.9927C40.9927 161.015 40.9927 161.014 40.9927 161.014H45.3032ZM49.4263 161.014L49.4261 161.514H45.303L45.3032 161.014H49.4263ZM51.3345 161.014L51.3341 161.514H49.4261L49.4263 161.014H51.3345ZM89.98 160.946C89.98 160.946 89.9804 160.946 89.9804 161.446H86.5493L86.5493 160.946H89.98ZM94.0581 160.946L94.0583 161.446H89.9804C89.9804 160.946 89.98 160.946 89.98 160.946H94.0581ZM98.3618 160.946L98.3616 161.446H94.0583L94.0581 160.946H98.3618ZM100.583 160.946L100.582 161.446H98.3616L98.3618 160.946H100.583Z" fill="#04203F"/>
<path fill-rule="evenodd" clip-rule="evenodd" d="M133.69 179.748C133.655 179.707 133.621 179.665 133.588 179.623C133.519 179.566 133.431 179.532 133.335 179.532C133.113 179.532 132.934 179.713 132.934 179.937V183.172C132.934 183.396 133.113 183.577 133.335 183.577C133.431 183.577 133.519 183.543 133.588 183.487C133.621 183.444 133.655 183.402 133.69 183.361C134.266 182.69 135.121 182.264 136.075 182.264H154.999H156.007V180.845H154.925H136.075C135.121 180.845 134.266 180.419 133.69 179.748Z" fill="#04203F"/>
<path d="M133.493 179.046C133.596 179.064 133.694 179.1 133.781 179.15L133.905 179.236L133.948 179.272L133.984 179.316C134.012 179.353 134.039 179.389 134.069 179.423L134.07 179.422C134.555 179.987 135.273 180.345 136.075 180.345H156.507V182.765H136.075C135.273 182.765 134.555 183.121 134.07 183.686C134.039 183.722 134.011 183.757 133.984 183.792L133.949 183.837L133.904 183.874C133.75 184 133.551 184.077 133.335 184.077C132.833 184.077 132.434 183.667 132.434 183.172V179.937C132.434 179.442 132.833 179.032 133.335 179.032L133.493 179.046ZM133.335 179.532C133.113 179.532 132.934 179.713 132.934 179.937V183.172C132.934 183.396 133.113 183.577 133.335 183.577C133.431 183.577 133.519 183.543 133.588 183.487C133.621 183.444 133.655 183.402 133.69 183.361C134.266 182.69 135.121 182.264 136.075 182.264H156.007V180.845H136.075C135.121 180.845 134.266 180.419 133.69 179.748C133.655 179.707 133.621 179.665 133.588 179.623C133.519 179.566 133.431 179.532 133.335 179.532Z" fill="#04203F"/>
<path d="M163.072 74.144V37.1231C163.072 35.1205 162.91 33.6358 162.584 32.669C162.259 31.6332 161.636 30.9427 160.714 30.5974C160.527 30.5082 160.387 30.4286 160.264 30.3586C159.816 30.1035 159.591 29.9759 158.145 29.9759C158.036 29.9759 157.982 29.7687 157.982 29.3544C157.982 28.9401 158.036 28.7329 158.145 28.7329H176.864C177.027 28.7329 177.108 28.9401 177.108 29.3544C177.108 29.7687 177.027 29.9759 176.864 29.9759C175.481 29.9759 175.252 30.0997 174.793 30.3473C174.658 30.42 174.504 30.5034 174.295 30.5974C173.427 30.9427 172.831 31.6332 172.506 32.669C172.235 33.6358 172.099 35.1205 172.099 37.1231V84.8743C172.099 87.0151 172.153 88.5342 172.262 89.432C172.424 90.3297 172.777 90.8821 173.319 91.0892C173.915 91.2273 174.864 91.2964 176.165 91.2964H188.526C189.936 91.2964 190.938 91.1928 191.535 90.9856C192.185 90.7094 192.592 90.1224 192.755 89.2248C192.917 88.258 192.999 86.8079 192.999 84.8743V37.1231C192.999 35.1205 192.836 33.6358 192.511 32.669C192.24 31.6332 191.643 30.9427 190.722 30.5974C190.512 30.5034 190.358 30.42 190.223 30.3473C189.765 30.0997 189.535 29.9759 188.152 29.9759C187.99 29.9759 187.908 29.7687 187.908 29.3544C187.908 28.9401 187.99 28.7329 188.152 28.7329C189.074 28.802 190.239 28.7329 190.239 28.7329H206.953C207.061 28.7329 207.115 28.9401 207.115 29.3544C207.115 29.7687 207.061 29.9759 206.953 29.9759C205.57 29.9759 205.34 30.0997 204.882 30.3473C204.747 30.42 204.593 30.5034 204.384 30.5974C203.462 30.9427 202.839 31.6332 202.513 32.669C202.188 33.6358 202.025 35.1205 202.025 37.1231V84.8743C202.025 87.0151 202.08 88.5342 202.188 89.432C202.35 90.3297 202.703 90.8821 203.245 91.0892C203.841 91.2273 204.817 91.2964 206.173 91.2964H218.533C220.051 91.2964 221.109 91.1928 221.705 90.9856C222.301 90.7785 222.654 90.2261 222.762 89.3284C222.925 88.4307 223.006 86.946 223.006 84.8743V37.1231C223.006 35.1205 222.844 33.6358 222.518 32.669C222.247 31.6332 221.651 30.9427 220.729 30.5974C220.542 30.5082 220.402 30.4286 220.279 30.3586C219.831 30.1035 219.606 29.9759 218.16 29.9759C218.051 29.9759 217.997 29.7687 217.997 29.3544C217.997 28.9401 218.051 28.7329 218.16 28.7329H236.879C237.042 28.7329 237.123 28.9401 237.123 29.3544C237.123 29.7687 237.042 29.9759 236.879 29.9759C235.496 29.9759 235.267 30.0997 234.808 30.3473C234.673 30.42 234.519 30.5034 234.31 30.5974C233.388 30.9427 232.765 31.6332 232.439 32.669C232.168 33.6358 232.033 35.1205 232.033 37.1231V74.1438C229.776 77.8116 229.151 82.0867 228.922 85.6093L228.859 86.7539L228.858 86.7933C228.812 89.0158 228.78 91.2436 228.762 93.4716H166.343C166.326 91.2436 166.294 89.0158 166.247 86.7933L166.246 86.7539L166.183 85.6093C165.954 82.0868 165.329 77.8118 163.072 74.144Z" fill="#4A607B"/>
<path d="M163.364 96.5755C163.359 93.3346 163.322 90.0897 163.254 86.8558C162.983 81.131 161.94 74.4281 155.502 71.0982C154.593 70.7077 153.621 70.4812 152.668 70.4098C152.207 70.3798 151.745 70.516 151.38 70.8066C151.016 71.097 150.78 71.515 150.724 71.9724C150.668 72.4298 150.795 72.8929 151.078 73.2631C151.361 73.6334 151.776 73.8775 152.23 73.9603C152.82 74.0778 153.36 74.2787 153.849 74.5582C157.232 76.5309 158.346 82.2219 158.237 86.8032L158.236 86.8558C158.162 90.363 158.126 93.8832 158.126 97.3972V101.709C158.124 104.721 157.81 110.5 157.58 114.42C157.513 115.569 158.427 116.537 159.578 116.537H160.757C161.816 116.537 162.691 115.714 162.756 114.658L162.763 114.551C162.903 112.292 163.078 109.45 163.204 106.843H231.902C232.027 109.449 232.203 112.291 232.342 114.55L232.349 114.658C232.414 115.714 233.29 116.537 234.348 116.537H235.527C236.679 116.537 237.592 115.569 237.525 114.42C237.296 110.5 236.981 104.721 236.98 101.709V97.3972C236.98 93.8832 236.943 90.363 236.869 86.8558L236.869 86.8032C236.759 82.2219 237.873 76.5309 241.256 74.5582C241.746 74.2787 242.285 74.0778 242.875 73.9603C243.329 73.8775 243.745 73.6334 244.028 73.2631C244.31 72.8929 244.438 72.4298 244.381 71.9724C244.325 71.515 244.089 71.097 243.725 70.8066C243.361 70.516 242.898 70.3798 242.437 70.4098C241.484 70.4812 240.512 70.7077 239.603 71.0982C233.165 74.4281 232.122 81.131 231.851 86.8558C231.783 90.0897 231.747 93.3346 231.742 96.5755H163.364Z" fill="#04203F"/>
<path d="M263.545 0V133.946H131.561V0H263.545ZM134.561 130.946H260.545V3H134.561V130.946Z" fill="#D0AE6F"/>
<path d="M348.363 230.893V240.225H347.057V237.505H344.484C344.324 237.505 344.204 237.501 344.124 237.492L342.258 240.225H340.845L342.911 237.265C342.245 237.043 341.734 236.674 341.378 236.159C341.023 235.634 340.845 234.999 340.845 234.252C340.845 233.195 341.183 232.373 341.858 231.786C342.542 231.191 343.462 230.893 344.617 230.893H348.363ZM342.191 234.239C342.191 234.932 342.391 235.466 342.791 235.839C343.2 236.203 343.8 236.385 344.591 236.385H347.057V232.053H344.671C343.871 232.053 343.258 232.239 342.831 232.613C342.405 232.986 342.191 233.528 342.191 234.239Z" fill="#D0AE6F"/>
<path d="M348.514 230.743V240.375H346.907V237.655H344.484C344.372 237.655 344.277 237.652 344.199 237.647L342.382 240.309L342.337 240.375H340.557L340.722 240.139L342.677 237.338C342.073 237.102 341.597 236.739 341.255 236.244L341.254 236.243C340.879 235.689 340.694 235.023 340.694 234.252C340.694 233.16 341.046 232.294 341.76 231.673C342.478 231.048 343.436 230.743 344.617 230.743H348.514ZM347.207 231.903V236.536H344.591C343.779 236.536 343.138 236.348 342.691 235.951L342.689 235.949C342.251 235.54 342.041 234.962 342.041 234.239C342.041 233.497 342.265 232.908 342.733 232.5C343.196 232.094 343.85 231.903 344.671 231.903H347.207ZM340.995 234.252C340.995 234.974 341.166 235.579 341.501 236.074L341.634 236.25C341.959 236.645 342.399 236.936 342.958 237.123L343.15 237.186L341.132 240.075H342.179L344 237.408L344.051 237.333L344.141 237.342C344.212 237.35 344.326 237.355 344.484 237.355H347.207V240.075H348.213V231.043H344.617C343.488 231.043 342.606 231.333 341.956 231.899C341.32 232.452 340.995 233.23 340.995 234.252ZM342.341 234.239C342.341 234.902 342.532 235.391 342.894 235.729C343.265 236.058 343.822 236.236 344.591 236.236H346.907V232.203H344.671C343.893 232.203 343.32 232.385 342.93 232.726C342.544 233.064 342.341 233.56 342.341 234.239Z" fill="#D0AE6F"/>
<path d="M334.198 237.892H329.239L328.212 240.225H326.839L331.065 230.893H332.385L336.624 240.225H335.224L334.198 237.892ZM333.731 236.825L331.718 232.253L329.705 236.825H333.731Z" fill="#D0AE6F"/>
<path d="M332.482 230.743L332.522 230.831L336.761 240.163L336.857 240.375H335.126L335.087 240.285L334.1 238.042H329.337L328.35 240.285L328.31 240.375H326.607L326.703 240.163L330.928 230.832L330.968 230.743H332.482ZM327.072 240.075H328.115L329.102 237.832L329.141 237.742H334.295L334.335 237.832L335.323 240.075H336.391L332.288 231.043H331.162L327.072 240.075ZM331.856 232.192L333.869 236.765L333.961 236.975H329.475L329.568 236.765L331.581 232.192L331.718 231.88L331.856 232.192ZM329.936 236.675H333.501L331.718 232.625L329.936 236.675Z" fill="#D0AE6F"/>
<path d="M323.248 232.053H320.049V240.225H318.742V232.053H315.556V230.893H323.248V232.053Z" fill="#D0AE6F"/>
<path d="M323.398 230.743V232.203H320.199V240.375H318.592V232.203H315.406V230.743H323.398ZM315.707 231.903H318.892V240.075H319.899V231.903H323.098V231.043H315.707V231.903Z" fill="#D0AE6F"/>
<path d="M302.129 230.893H303.449V238.092L308.968 230.893H310.194V240.225H308.888V233.039L303.355 240.225H302.129V230.893Z" fill="#D0AE6F"/>
<path d="M303.599 230.743V237.65L308.849 230.802L308.893 230.743H310.344V240.375H308.737V233.48L303.475 240.316L303.429 240.375H301.978V230.743H303.599ZM302.279 240.075H303.281L308.768 232.948L309.038 232.599V240.075H310.044V231.043H309.041L303.299 238.534V231.043H302.279V240.075Z" fill="#D0AE6F"/>
<path d="M292.484 236.119H290.538V240.225H289.231V230.893H290.538V234.946H292.511L295.443 230.893H296.87L293.537 235.412L297.03 240.225H295.51L292.484 236.119Z" fill="#D0AE6F"/>
<path d="M290.687 230.743V234.795H292.434L295.322 230.805L295.367 230.743H297.167L296.991 230.982L293.723 235.413L297.324 240.375H295.434L295.389 240.314L292.408 236.269H290.687V240.375H289.081V230.743H290.687ZM289.382 240.075H290.388V235.969H292.559L292.604 236.03L295.586 240.075H296.735L293.351 235.412L296.572 231.043H295.52L292.633 235.034L292.588 235.095H290.388V231.043H289.382V240.075Z" fill="#D0AE6F"/>
<path d="M274.099 235.359C274.685 235.519 275.143 235.799 275.472 236.199C275.801 236.59 275.965 237.061 275.965 237.612C275.965 238.163 275.787 238.647 275.432 239.065C275.085 239.474 274.619 239.789 274.032 240.012C273.454 240.225 272.823 240.331 272.139 240.331C271.517 240.331 270.899 240.238 270.286 240.052C269.673 239.865 269.113 239.585 268.606 239.212L269.073 238.225C269.482 238.545 269.939 238.785 270.446 238.945C270.953 239.105 271.464 239.185 271.979 239.185C272.726 239.185 273.352 239.029 273.859 238.718C274.365 238.398 274.619 237.963 274.619 237.412C274.619 236.941 274.427 236.581 274.045 236.332C273.663 236.074 273.126 235.946 272.432 235.946H270.353V234.866H272.339C272.934 234.866 273.397 234.746 273.725 234.506C274.063 234.257 274.232 233.915 274.232 233.479C274.232 232.991 274.014 232.604 273.579 232.32C273.143 232.035 272.592 231.893 271.926 231.893C271.49 231.893 271.046 231.955 270.593 232.08C270.148 232.204 269.726 232.391 269.326 232.64L268.9 231.546C269.371 231.28 269.868 231.08 270.393 230.947C270.917 230.813 271.441 230.747 271.966 230.747C272.623 230.747 273.228 230.849 273.779 231.053C274.33 231.258 274.765 231.555 275.085 231.946C275.414 232.337 275.578 232.795 275.578 233.319C275.578 233.79 275.445 234.204 275.178 234.559C274.921 234.915 274.561 235.181 274.099 235.359Z" fill="#D0AE6F"/>
<path d="M275.429 233.32C275.429 232.83 275.276 232.406 274.971 232.042L274.969 232.042C274.668 231.674 274.257 231.39 273.726 231.194C273.194 230.996 272.608 230.897 271.966 230.897C271.454 230.897 270.942 230.962 270.43 231.092C269.96 231.212 269.514 231.388 269.088 231.617L269.401 232.422C269.767 232.211 270.151 232.048 270.553 231.935L270.9 231.851C271.246 231.779 271.588 231.743 271.926 231.743C272.613 231.743 273.195 231.89 273.661 232.194C274.135 232.504 274.382 232.936 274.382 233.479C274.382 233.96 274.192 234.348 273.814 234.626L273.813 234.627C273.45 234.893 272.952 235.016 272.339 235.016H270.503V235.795H272.433C273.141 235.795 273.712 235.927 274.129 236.208C274.554 236.485 274.768 236.892 274.768 237.412C274.768 238.019 274.484 238.501 273.938 238.845L273.937 238.846C273.402 239.175 272.746 239.335 271.979 239.335C271.448 239.335 270.922 239.253 270.401 239.088C269.939 238.942 269.514 238.731 269.13 238.455L268.796 239.162C269.262 239.489 269.773 239.738 270.33 239.908C270.929 240.09 271.532 240.181 272.139 240.181C272.807 240.181 273.421 240.077 273.98 239.871C274.546 239.656 274.99 239.354 275.317 238.968L275.434 238.819C275.689 238.464 275.815 238.063 275.815 237.612C275.815 237.093 275.661 236.657 275.357 236.295L275.356 236.294C275.051 235.923 274.621 235.657 274.059 235.503L273.618 235.383L274.045 235.219C274.483 235.051 274.818 234.8 275.057 234.471L275.059 234.469C275.304 234.141 275.429 233.76 275.429 233.32ZM275.728 233.32C275.728 233.821 275.586 234.266 275.299 234.649L275.298 234.648C275.092 234.932 274.827 235.162 274.504 235.337C274.945 235.511 275.308 235.764 275.586 236.102C275.939 236.522 276.115 237.029 276.115 237.612C276.115 238.198 275.925 238.718 275.546 239.163L275.545 239.162C275.179 239.593 274.691 239.922 274.085 240.152C273.489 240.372 272.839 240.482 272.139 240.482C271.501 240.482 270.869 240.386 270.242 240.195C269.613 240.003 269.038 239.716 268.517 239.333L268.418 239.259L269.017 237.992L269.165 238.107C269.559 238.416 270.001 238.648 270.491 238.802C270.984 238.958 271.48 239.035 271.979 239.035C272.704 239.035 273.3 238.884 273.777 238.591C274.245 238.296 274.469 237.906 274.469 237.412C274.469 236.99 274.302 236.678 273.964 236.458L273.962 236.457C273.614 236.222 273.11 236.095 272.433 236.095H270.203V234.715H272.339C272.916 234.715 273.343 234.599 273.637 234.384C273.934 234.165 274.082 233.869 274.082 233.479C274.082 233.045 273.893 232.704 273.497 232.445C273.092 232.18 272.571 232.043 271.926 232.043C271.61 232.043 271.289 232.077 270.962 232.145L270.633 232.224C270.202 232.345 269.793 232.526 269.405 232.767L269.252 232.863L269.186 232.694L268.76 231.601L268.713 231.48L268.826 231.416C269.308 231.143 269.818 230.938 270.355 230.801C270.891 230.665 271.429 230.596 271.966 230.596C272.639 230.596 273.261 230.701 273.831 230.913C274.402 231.125 274.861 231.436 275.2 231.85L275.324 232.01C275.594 232.393 275.728 232.831 275.728 233.32Z" fill="#D0AE6F"/>
<path d="M254.926 230.893H256.245V238.092L261.764 230.893H262.991V240.225H261.684V233.039L256.152 240.225H254.926V230.893Z" fill="#D0AE6F"/>
<path d="M256.395 230.743V237.65L261.645 230.802L261.69 230.743H263.141V240.375H261.534V233.48L256.271 240.316L256.226 240.375H254.775V230.743H256.395ZM255.076 240.075H256.078L261.565 232.948L261.835 232.599V240.075H262.841V231.043H261.838L256.096 238.534V231.043H255.076V240.075Z" fill="#D0AE6F"/>
<path d="M232.906 230.893H234.226V238.092L239.745 230.893H240.971V240.225H239.665V233.039L234.132 240.225H232.906V230.893Z" fill="#D0AE6F"/>
<path d="M234.376 230.743V237.65L239.626 230.802L239.67 230.743H241.121V240.375H239.514V233.48L234.252 240.316L234.206 240.375H232.755V230.743H234.376ZM233.056 240.075H234.058L239.545 232.948L239.815 232.599V240.075H240.821V231.043H239.818L234.076 238.534V231.043H233.056V240.075Z" fill="#D0AE6F"/>
<path d="M226.267 230.893V240.225H224.96V232.053H220.828L220.734 234.786C220.69 236.074 220.583 237.119 220.414 237.918C220.254 238.718 219.997 239.323 219.641 239.731C219.286 240.131 218.806 240.331 218.201 240.331C217.926 240.331 217.646 240.296 217.362 240.225L217.455 239.038C217.597 239.074 217.739 239.092 217.881 239.092C218.264 239.092 218.57 238.94 218.801 238.638C219.032 238.327 219.206 237.865 219.321 237.252C219.437 236.639 219.512 235.83 219.548 234.826L219.694 230.893H226.267Z" fill="#D0AE6F"/>
<path d="M226.416 230.743V240.375H224.81V232.203H220.973L220.884 234.791C220.839 236.082 220.732 237.135 220.561 237.947L220.562 237.948C220.399 238.761 220.133 239.394 219.754 239.83L219.753 239.832C219.365 240.268 218.842 240.481 218.201 240.481C217.913 240.481 217.621 240.444 217.325 240.371L217.202 240.339L217.305 239.027L217.32 238.85L217.491 238.893C217.622 238.926 217.752 238.942 217.881 238.942C218.217 238.942 218.479 238.812 218.682 238.547C218.893 238.262 219.061 237.826 219.174 237.224C219.288 236.621 219.362 235.82 219.398 234.82L219.544 230.887L219.55 230.743H226.416ZM219.697 234.832C219.662 235.839 219.586 236.656 219.469 237.28C219.352 237.903 219.173 238.391 218.922 238.728L218.92 238.729C218.661 239.068 218.31 239.242 217.881 239.242C217.784 239.242 217.688 239.23 217.591 239.215L217.521 240.106C217.752 240.155 217.978 240.181 218.201 240.181C218.769 240.181 219.205 239.995 219.529 239.631C219.86 239.25 220.11 238.674 220.267 237.889L220.268 237.887C220.434 237.099 220.54 236.065 220.584 234.781L220.683 231.903H225.111V240.075H226.116V231.043H219.838L219.697 234.832Z" fill="#D0AE6F"/>
<path d="M212.815 239.065V240.225H206.043V230.893H212.629V232.053H207.376V234.919H212.055V236.052H207.376V239.065H212.815Z" fill="#D0AE6F"/>
<path d="M212.778 230.743V232.203H207.527V234.769H212.205V236.202H207.527V238.915H212.965V240.375H205.893V230.743H212.778ZM206.194 240.075H212.665V239.215H207.226V235.902H211.905V235.069H207.226V231.903H212.479V231.043H206.194V240.075Z" fill="#D0AE6F"/>
<path d="M192.56 230.893H199.598V232.026H193.879V234.692H196.786C197.897 234.692 198.741 234.923 199.318 235.386C199.896 235.848 200.185 236.514 200.185 237.385C200.185 238.301 199.869 239.003 199.238 239.491C198.616 239.98 197.723 240.225 196.559 240.225H192.56V230.893ZM196.506 239.172C197.27 239.172 197.852 239.025 198.252 238.732C198.652 238.438 198.852 238.007 198.852 237.439C198.852 236.31 198.07 235.745 196.506 235.745H193.879V239.172H196.506Z" fill="#D0AE6F"/>
<path d="M200.035 237.385C200.035 236.551 199.76 235.931 199.225 235.502C198.684 235.07 197.878 234.842 196.785 234.842H193.73V231.876H199.448V231.043H192.71V240.075H196.559C197.705 240.075 198.561 239.833 199.147 239.373C199.735 238.917 200.035 238.262 200.035 237.385ZM198.702 237.439C198.702 236.914 198.523 236.539 198.178 236.291C197.824 236.035 197.274 235.895 196.506 235.895H194.029V239.022H196.506C197.254 239.022 197.8 238.877 198.163 238.611C198.518 238.35 198.702 237.968 198.702 237.439ZM199.002 237.439C199.002 238.047 198.785 238.527 198.341 238.853C197.905 239.173 197.286 239.322 196.506 239.322H193.73V235.595H196.506C197.301 235.595 197.925 235.739 198.353 236.047C198.79 236.363 199.002 236.836 199.002 237.439ZM200.335 237.385C200.335 238.339 200.003 239.087 199.33 239.609C198.672 240.126 197.741 240.375 196.559 240.375H192.409V230.743H199.748V232.176H194.029V234.542H196.785C197.914 234.542 198.798 234.776 199.412 235.268C200.032 235.764 200.335 236.478 200.335 237.385Z" fill="#D0AE6F"/>
<path d="M186.734 239.065V240.225H179.962V230.893H186.547V232.053H181.295V234.919H185.974V236.052H181.295V239.065H186.734Z" fill="#D0AE6F"/>
<path d="M186.697 230.743V232.203H181.445V234.769H186.124V236.202H181.445V238.915H186.883V240.375H179.811V230.743H186.697ZM180.112 240.075H186.584V239.215H181.144V235.902H185.824V235.069H181.144V231.903H186.397V231.043H180.112V240.075Z" fill="#D0AE6F"/>
<path d="M172.044 240.225L172.031 233.426L168.658 239.092H168.045L164.673 233.466V240.225H163.393V230.893H164.486L168.378 237.452L172.218 230.893H173.311L173.324 240.225H172.044Z" fill="#D0AE6F"/>
<path d="M164.571 230.743L164.614 230.817L168.377 237.157L172.088 230.817L172.132 230.743H173.461V230.893L173.474 240.224L173.475 240.375H171.895V240.225L171.882 233.969L168.787 239.168L168.743 239.242H167.96L164.822 234.007V240.375H163.242V230.743H164.571ZM163.543 240.075H164.523V232.924L168.131 238.942H168.573L172.18 232.882L172.195 240.075H173.174L173.161 231.043H172.304L168.379 237.748L164.401 231.043H163.543V240.075Z" fill="#D0AE6F"/>
<path d="M141.373 230.893H142.693V238.092L148.212 230.893H149.438V240.225H148.132V233.039L142.599 240.225H141.373V230.893Z" fill="#D0AE6F"/>
<path d="M142.843 230.743V237.65L148.093 230.802L148.138 230.743H149.588V240.375H147.981V233.48L142.719 240.316L142.673 240.375H141.222V230.743H142.843ZM141.523 240.075H142.525L148.013 232.948L148.282 232.599V240.075H149.288V231.043H148.285L142.543 238.534V231.043H141.523V240.075Z" fill="#D0AE6F"/>
<path d="M131.728 236.119H129.782V240.225H128.475V230.893H129.782V234.946H131.755L134.687 230.893H136.114L132.781 235.412L136.274 240.225H134.754L131.728 236.119Z" fill="#D0AE6F"/>
<path d="M129.931 230.743V234.795H131.678L134.566 230.805L134.611 230.743H136.411L136.235 230.982L132.967 235.413L136.568 240.375H134.678L134.633 240.314L131.652 236.269H129.931V240.375H128.325V230.743H129.931ZM128.626 240.075H129.632V235.969H131.803L131.848 236.03L134.83 240.075H135.979L132.595 235.412L135.816 231.043H134.764L131.877 235.034L131.832 235.095H129.632V231.043H128.626V240.075Z" fill="#D0AE6F"/>
<path d="M120.596 235.386C121.227 235.537 121.702 235.808 122.022 236.199C122.351 236.581 122.515 237.074 122.515 237.678C122.515 238.487 122.218 239.114 121.622 239.558C121.036 240.002 120.178 240.225 119.049 240.225H114.784V230.893H118.796C119.818 230.893 120.614 231.102 121.182 231.52C121.76 231.928 122.049 232.519 122.049 233.293C122.049 233.799 121.92 234.23 121.662 234.586C121.413 234.941 121.058 235.208 120.596 235.386ZM116.103 234.999H118.703C119.352 234.999 119.845 234.87 120.183 234.612C120.529 234.355 120.702 233.977 120.702 233.479C120.702 232.982 120.529 232.604 120.183 232.346C119.836 232.08 119.343 231.946 118.703 231.946H116.103V234.999ZM119.023 239.172C120.454 239.172 121.169 238.638 121.169 237.572C121.169 237.039 120.987 236.648 120.622 236.399C120.267 236.141 119.734 236.012 119.023 236.012H116.103V239.172H119.023Z" fill="#D0AE6F"/>
<path d="M121.899 233.292C121.899 232.563 121.63 232.02 121.096 231.642L121.093 231.64C120.559 231.248 119.8 231.043 118.796 231.043H114.934V240.075H119.049C120.161 240.075 120.982 239.855 121.532 239.439L121.533 239.438C122.086 239.025 122.366 238.444 122.366 237.678C122.366 237.102 122.209 236.646 121.909 236.296L121.906 236.293V236.292C121.612 235.934 121.169 235.677 120.561 235.532L120.091 235.419L120.542 235.246C120.981 235.077 121.31 234.827 121.539 234.5L121.54 234.498C121.777 234.171 121.899 233.772 121.899 233.292ZM121.019 237.572C121.019 237.076 120.852 236.738 120.537 236.523L120.535 236.52C120.216 236.289 119.72 236.163 119.023 236.163H116.253V239.022H119.023C119.724 239.022 120.222 238.89 120.542 238.651C120.854 238.418 121.019 238.068 121.019 237.572ZM120.552 233.479C120.552 233.021 120.395 232.691 120.093 232.466L120.091 232.465C119.781 232.226 119.324 232.096 118.703 232.096H116.253V234.849H118.703C119.335 234.849 119.79 234.722 120.091 234.493L120.093 234.492C120.395 234.267 120.552 233.937 120.552 233.479ZM121.319 237.572C121.319 238.142 121.125 238.591 120.722 238.892C120.327 239.186 119.752 239.322 119.023 239.322H115.954V235.862H119.023C119.745 235.862 120.315 235.992 120.707 236.275L120.852 236.388C121.167 236.67 121.319 237.072 121.319 237.572ZM120.853 233.479C120.853 234.015 120.663 234.44 120.273 234.731C119.898 235.017 119.368 235.149 118.703 235.149H115.954V231.796H118.703C119.361 231.796 119.891 231.933 120.274 232.227H120.273C120.663 232.518 120.853 232.943 120.853 233.479ZM122.199 233.292C122.199 233.824 122.062 234.286 121.785 234.67L121.786 234.671C121.589 234.952 121.331 235.179 121.016 235.354C121.485 235.52 121.861 235.767 122.135 236.101H122.136C122.493 236.516 122.665 237.046 122.665 237.678C122.665 238.529 122.349 239.203 121.712 239.678C121.089 240.15 120.194 240.375 119.049 240.375H114.633V230.743H118.796C119.835 230.743 120.664 230.955 121.268 231.397H121.269C121.89 231.837 122.199 232.476 122.199 233.292Z" fill="#D0AE6F"/>
<path d="M107.014 237.892H102.055L101.029 240.225H99.6556L103.881 230.893H105.201L109.44 240.225H108.041L107.014 237.892ZM106.548 236.825L104.535 232.253L102.522 236.825H106.548Z" fill="#D0AE6F"/>
<path d="M105.298 230.743L105.338 230.831L109.577 240.163L109.673 240.375H107.943L107.904 240.285L106.916 238.042H102.154L101.166 240.285L101.126 240.375H99.4232L99.5189 240.163L103.744 230.832L103.784 230.743H105.298ZM99.888 240.075H100.931L101.918 237.832L101.957 237.742H107.112L107.152 237.832L108.139 240.075H109.207L105.105 231.043H103.978L99.888 240.075ZM104.672 232.192L106.685 236.765L106.778 236.975H102.291L102.384 236.765L104.398 232.192L104.534 231.88L104.672 232.192ZM102.751 236.675H106.318L104.534 232.625L102.751 236.675Z" fill="#D0AE6F"/>
<path d="M96.0645 232.053H92.8651V240.225H91.5586V232.053H88.3726V230.893H96.0645V232.053Z" fill="#D0AE6F"/>
<path d="M96.2144 230.743V232.203H93.0151V240.375H91.4087V232.203H88.2222V230.743H96.2144ZM88.5229 231.903H91.7085V240.075H92.7153V231.903H95.9146V231.043H88.5229V231.903Z" fill="#D0AE6F"/>
<path d="M80.6279 240.332C79.6947 240.332 78.8504 240.127 78.095 239.718C77.3485 239.301 76.7619 238.732 76.3353 238.012C75.9087 237.283 75.6954 236.466 75.6954 235.559C75.6954 234.653 75.9087 233.839 76.3353 233.12C76.7619 232.391 77.3529 231.822 78.1083 231.413C78.8637 230.995 79.708 230.787 80.6412 230.787C81.3699 230.787 82.0365 230.911 82.6408 231.16C83.2451 231.4 83.7606 231.76 84.1872 232.24L83.3207 233.08C82.6186 232.342 81.7432 231.973 80.6945 231.973C80.0013 231.973 79.3748 232.129 78.8149 232.44C78.255 232.751 77.815 233.182 77.4951 233.733C77.184 234.275 77.0285 234.884 77.0285 235.559C77.0285 236.234 77.184 236.848 77.4951 237.399C77.815 237.941 78.255 238.367 78.8149 238.678C79.3748 238.99 80.0013 239.145 80.6945 239.145C81.7343 239.145 82.6097 238.772 83.3207 238.025L84.1872 238.865C83.7606 239.345 83.2407 239.709 82.6275 239.958C82.0231 240.207 81.3566 240.332 80.6279 240.332Z" fill="#D0AE6F"/>
<path d="M76.8781 235.559C76.8781 234.86 77.0402 234.224 77.3654 233.658L77.4962 233.448C77.8157 232.972 78.2318 232.592 78.7423 232.308C79.3262 231.984 79.9781 231.823 80.6945 231.823C81.7306 231.823 82.6094 232.172 83.3224 232.869L83.9767 232.235C83.5856 231.825 83.1227 231.513 82.5851 231.299L82.5841 231.298C81.9999 231.058 81.3522 230.937 80.6407 230.937C79.731 230.937 78.9121 231.14 78.1808 231.544L78.1798 231.545C77.4483 231.941 76.8774 232.49 76.465 233.195L76.464 233.196C76.0523 233.891 75.8458 234.677 75.8458 235.559C75.8458 236.44 76.0523 237.231 76.464 237.935C76.8764 238.631 77.4431 239.181 78.1661 239.586L78.4445 239.726C79.1039 240.03 79.8314 240.181 80.6281 240.181C81.3394 240.181 81.9863 240.06 82.5704 239.82L82.5714 239.819C83.1177 239.597 83.5841 239.28 83.9757 238.87L83.3214 238.236C82.6012 238.94 81.7235 239.295 80.6945 239.295C79.9781 239.295 79.3262 239.134 78.7423 238.81C78.1596 238.486 77.7001 238.04 77.3663 237.475L77.3644 237.472C77.0399 236.897 76.8781 236.258 76.8781 235.559ZM77.1788 235.559C77.1788 236.21 77.3286 236.798 77.6261 237.325H77.6251C77.9312 237.842 78.3515 238.249 78.8878 238.547C79.4236 238.845 80.0246 238.995 80.6945 238.995C81.6936 238.995 82.5296 238.638 83.212 237.921L83.3165 237.812L83.4249 237.917L84.2911 238.757L84.3947 238.857L84.299 238.964C83.8566 239.462 83.3175 239.839 82.6837 240.096C82.0595 240.353 81.3739 240.482 80.6281 240.482C79.7918 240.482 79.0218 240.321 78.3204 239.999L78.0216 239.849C77.2526 239.419 76.6465 238.831 76.2062 238.088V238.087C75.7652 237.334 75.545 236.49 75.545 235.559C75.545 234.628 75.7649 233.788 76.2062 233.043L76.379 232.769C76.8019 232.146 77.3555 231.65 78.0372 231.281C78.8161 230.85 79.6852 230.636 80.6407 230.636C81.3858 230.636 82.0717 230.764 82.6954 231.02C83.3212 231.268 83.8566 231.643 84.299 232.14L84.3947 232.248L84.2911 232.347L83.4249 233.187L83.3165 233.292L83.212 233.183C82.5392 232.476 81.7035 232.124 80.6945 232.124C80.0246 232.124 79.4236 232.273 78.8878 232.571C78.3515 232.869 77.9314 233.281 77.6251 233.808L77.6241 233.807C77.3273 234.325 77.1788 234.908 77.1788 235.559Z" fill="#D0AE6F"/>
<path d="M65.6219 240.332C64.6799 240.332 63.8311 240.127 63.0757 239.718C62.3203 239.301 61.7249 238.727 61.2894 237.999C60.8628 237.27 60.6495 236.457 60.6495 235.559C60.6495 234.661 60.8628 233.848 61.2894 233.12C61.7249 232.391 62.3203 231.822 63.0757 231.413C63.8311 230.995 64.6799 230.787 65.6219 230.787C66.5551 230.787 67.3994 230.995 68.1548 231.413C68.9102 231.822 69.5012 232.391 69.9278 233.12C70.3544 233.839 70.5677 234.653 70.5677 235.559C70.5677 236.466 70.3544 237.283 69.9278 238.012C69.5012 238.732 68.9102 239.301 68.1548 239.718C67.3994 240.127 66.5551 240.332 65.6219 240.332ZM65.6219 239.145C66.3062 239.145 66.9194 238.99 67.4616 238.678C68.0126 238.367 68.4436 237.941 68.7547 237.399C69.0746 236.848 69.2346 236.234 69.2346 235.559C69.2346 234.884 69.0746 234.275 68.7547 233.733C68.4436 233.182 68.0126 232.751 67.4616 232.44C66.9194 232.129 66.3062 231.973 65.6219 231.973C64.9376 231.973 64.3155 232.129 63.7556 232.44C63.2046 232.751 62.7691 233.182 62.4492 233.733C62.1381 234.275 61.9826 234.884 61.9826 235.559C61.9826 236.234 62.1381 236.848 62.4492 237.399C62.7691 237.941 63.2046 238.367 63.7556 238.678C64.3155 238.99 64.9376 239.145 65.6219 239.145Z" fill="#D0AE6F"/>
<path d="M70.4181 235.559C70.4181 234.677 70.2107 233.891 69.7989 233.196L69.7979 233.195C69.3855 232.49 68.8146 231.941 68.0831 231.545L68.0821 231.544C67.3508 231.14 66.5319 230.937 65.6222 230.937C64.7032 230.937 63.8797 231.14 63.1485 231.544L63.1476 231.545C62.4156 231.942 61.8395 232.491 61.4181 233.197C61.0063 233.901 60.7999 234.687 60.7999 235.559C60.7999 236.431 61.0063 237.217 61.4181 237.921C61.8394 238.626 62.4147 239.181 63.1466 239.586H63.1476C63.8789 239.982 64.7027 240.181 65.6222 240.181C66.4186 240.181 67.1455 240.029 67.8048 239.726L68.0831 239.586C68.8155 239.181 69.3866 238.631 69.7989 237.935C70.2106 237.231 70.4181 236.441 70.4181 235.559ZM69.0851 235.559C69.0851 234.908 68.9304 234.326 68.6251 233.809L68.6241 233.806C68.3265 233.279 67.9149 232.867 67.3878 232.57H67.3868C66.8696 232.273 66.2827 232.124 65.6222 232.124C64.9615 232.124 64.3643 232.273 63.8282 232.571L63.8272 232.57C63.3003 232.868 62.8856 233.281 62.5792 233.808L62.5782 233.807C62.2813 234.325 62.1329 234.908 62.1329 235.559C62.1329 236.21 62.2827 236.798 62.5802 237.325H62.5792C62.8852 237.842 63.3006 238.25 63.8272 238.547H63.8282C64.3643 238.845 64.9615 238.995 65.6222 238.995C66.2827 238.995 66.8696 238.845 67.3868 238.548H67.3878C67.9156 238.25 68.3267 237.842 68.6241 237.324H68.6251C68.9309 236.797 69.085 236.21 69.0851 235.559ZM69.3849 235.559C69.3849 236.259 69.2188 236.899 68.8849 237.474C68.5602 238.04 68.1093 238.485 67.5352 238.809L67.5343 238.808C66.9677 239.133 66.3295 239.295 65.6222 239.295C64.9142 239.295 64.2664 239.134 63.6827 238.81L63.6817 238.809C63.1081 238.485 62.6538 238.04 62.3204 237.475L62.3185 237.472C61.9939 236.897 61.8321 236.258 61.8321 235.559C61.8321 234.86 61.9943 234.224 62.3194 233.658L62.4503 233.448C62.7684 232.973 63.1793 232.593 63.6817 232.309L63.6827 232.308C64.2664 231.984 64.9142 231.823 65.6222 231.823C66.3299 231.823 66.9694 231.984 67.5362 232.309H67.5352C68.1093 232.633 68.5595 233.083 68.8839 233.657L69.0011 233.873C69.257 234.384 69.3849 234.946 69.3849 235.559ZM70.7179 235.559C70.7179 236.49 70.4986 237.334 70.0577 238.087L70.0567 238.088C69.6162 238.832 69.0054 239.419 68.2276 239.849L68.2267 239.85C67.4475 240.272 66.5779 240.482 65.6222 240.482C64.6577 240.482 63.7834 240.272 63.004 239.85L63.003 239.849C62.2249 239.419 61.6095 238.828 61.1602 238.076V238.075C60.7194 237.322 60.4991 236.482 60.4991 235.559C60.4991 234.637 60.7194 233.797 61.1602 233.043V233.042C61.6097 232.29 62.2252 231.702 63.004 231.281C63.7833 230.85 64.6576 230.636 65.6222 230.636C66.5778 230.636 67.4468 230.85 68.2257 231.281C69.0048 231.702 69.617 232.291 70.0577 233.043H70.0567C70.4981 233.788 70.7179 234.628 70.7179 235.559Z" fill="#D0AE6F"/>
<path d="M54.7801 230.893V240.225H53.4736V232.053H48.0613V240.225H46.7416V230.893H54.7801Z" fill="#D0AE6F"/>
<path d="M54.93 230.743V240.375H53.3236V232.203H48.2113V240.375H46.5912V230.743H54.93ZM46.892 240.075H47.9115V231.903H53.6234V240.075H54.6302V231.043H46.892V240.075Z" fill="#D0AE6F"/>
<path d="M363.34 234.564C373.37 234.714 383.401 234.864 393.432 235.014C393.989 235.022 394.546 235.031 395.104 235.039C394.546 235.047 393.989 235.056 393.432 235.064C383.401 235.214 373.37 235.364 363.34 235.514C362.783 235.522 362.225 235.531 361.668 235.539V234.539C362.225 234.547 362.783 234.556 363.34 234.564Z" fill="#D0AE6F"/>
<path d="M361.67 234.389L395.105 234.889V235.189L361.67 235.689L361.518 235.691V234.387L361.67 234.389ZM361.818 235.386C362.046 235.382 362.274 235.379 362.502 235.376C362.781 235.372 363.059 235.367 363.338 235.363C368.353 235.288 373.369 235.213 378.384 235.139C380.608 235.106 382.832 235.072 385.056 235.039C382.832 235.006 380.608 234.973 378.384 234.939C373.369 234.865 368.353 234.79 363.338 234.715C363.059 234.711 362.781 234.706 362.502 234.702C362.274 234.699 362.046 234.695 361.818 234.691V235.386Z" fill="#D0AE6F"/>
<path d="M31.7656 234.564C21.735 234.714 11.7044 234.864 1.67383 235.014C1.11658 235.022 0.559205 235.031 0.00195312 235.039C0.559205 235.047 1.11658 235.056 1.67383 235.064C11.7044 235.214 21.735 235.364 31.7656 235.514C32.3229 235.522 32.8802 235.531 33.4375 235.539V234.539C32.8802 234.547 32.3229 234.556 31.7656 234.564Z" fill="#D0AE6F"/>
<path d="M33.4355 234.389L0 234.889V235.189L33.4355 235.689L33.5879 235.691V234.387L33.4355 234.389ZM33.2871 235.386C33.0594 235.382 32.8313 235.379 32.6035 235.376C32.325 235.372 32.0461 235.367 31.7676 235.363C26.7524 235.288 21.7369 235.213 16.7217 235.139C14.4977 235.106 12.2738 235.072 10.0498 235.039C12.2738 235.006 14.4977 234.973 16.7217 234.939C21.7369 234.865 26.7524 234.79 31.7676 234.715C32.0461 234.711 32.325 234.706 32.6035 234.702C32.8313 234.699 33.0594 234.695 33.2871 234.691V235.386Z" fill="#D0AE6F"/>
</svg>
