<svg width="132" height="134" viewBox="0 0 132 134" fill="none" xmlns="http://www.w3.org/2000/svg">
<path d="M31.5117 74.1445V37.1235C31.5117 35.1209 31.3491 33.6363 31.0239 32.6695C30.6986 31.6337 30.075 30.9432 29.1534 30.5979C28.9667 30.5087 28.8267 30.4291 28.7035 30.3591C28.255 30.104 28.0306 29.9764 26.5842 29.9764C26.4758 29.9764 26.4216 29.7692 26.4216 29.3549C26.4216 28.9406 26.4758 28.7334 26.5842 28.7334H45.3033C45.4661 28.7334 45.5474 28.9406 45.5474 29.3549C45.5474 29.7692 45.4661 29.9764 45.3033 29.9764C43.9203 29.9764 43.691 30.1002 43.2324 30.3478C43.0977 30.4205 42.9433 30.5038 42.7341 30.5979C41.8667 30.9432 41.2703 31.6337 40.9451 32.6695C40.6739 33.6363 40.5384 35.1209 40.5384 37.1235V84.8748C40.5384 87.0155 40.5926 88.5347 40.7012 89.4324C40.8638 90.3301 41.2161 90.8826 41.7582 91.0897C42.3546 91.2278 43.3034 91.2969 44.6046 91.2969H56.9653C58.3749 91.2969 59.3779 91.1933 59.9743 90.9861C60.6248 90.7099 61.0315 90.1229 61.1941 89.2252C61.3567 88.2585 61.438 86.8083 61.438 84.8748V37.1235C61.438 35.1209 61.2754 33.6363 60.9502 32.6695C60.679 31.6337 60.0826 30.9432 59.161 30.5979C58.9518 30.5038 58.7974 30.4205 58.6627 30.3478C58.2041 30.1002 57.9748 29.9764 56.5918 29.9764C56.4292 29.9764 56.3479 29.7692 56.3479 29.3549C56.3479 28.9406 56.4292 28.7334 56.5918 28.7334C57.5134 28.8025 58.6781 28.7334 58.6781 28.7334H75.3922C75.5008 28.7334 75.5548 28.9406 75.5548 29.3549C75.5548 29.7692 75.5008 29.9764 75.3922 29.9764C74.0092 29.9764 73.7799 30.1002 73.3213 30.3478C73.1866 30.4205 73.0322 30.5038 72.823 30.5979C71.9014 30.9432 71.278 31.6337 70.9527 32.6695C70.6273 33.6363 70.4647 35.1209 70.4647 37.1235V84.8748C70.4647 87.0155 70.5189 88.5347 70.6273 89.4324C70.7899 90.3301 71.1424 90.8826 71.6845 91.0897C72.2809 91.2278 73.2568 91.2969 74.612 91.2969H86.9729C88.4909 91.2969 89.5481 91.1933 90.1445 90.9861C90.7409 90.779 91.0932 90.2265 91.2017 89.3288C91.3643 88.4312 91.4456 86.9465 91.4456 84.8748V37.1235C91.4456 35.1209 91.283 33.6363 90.9576 32.6695C90.6866 31.6337 90.0902 30.9432 89.1686 30.5979C88.9819 30.5087 88.8419 30.4291 88.7188 30.3591C88.2702 30.104 88.0458 29.9764 86.5994 29.9764C86.4909 29.9764 86.4368 29.7692 86.4368 29.3549C86.4368 28.9406 86.4909 28.7334 86.5994 28.7334H105.319C105.481 28.7334 105.562 28.9406 105.562 29.3549C105.562 29.7692 105.481 29.9764 105.319 29.9764C103.936 29.9764 103.706 30.1002 103.248 30.3478C103.113 30.4205 102.959 30.5038 102.749 30.5979C101.828 30.9432 101.204 31.6337 100.879 32.6695C100.608 33.6363 100.472 35.1209 100.472 37.1235V74.1443C98.2152 77.8121 97.5908 82.0872 97.3619 85.6098L97.2983 86.7543L97.2976 86.7938C97.251 89.0163 97.219 91.2441 97.2016 93.4721H34.7822C34.765 91.2441 34.7331 89.0163 34.6863 86.7938L34.6855 86.7543L34.622 85.6098C34.3932 82.0873 33.7688 77.8123 31.5117 74.1445Z" fill="#4A607B"/>
<path d="M31.8032 96.576C31.798 93.3351 31.7614 90.0902 31.6935 86.8563C31.4226 81.1315 30.3798 74.4286 23.9419 71.0987C23.0323 70.7082 22.0609 70.4816 21.1076 70.4102C20.6467 70.3803 20.1841 70.5165 19.8198 70.8071C19.4557 71.0975 19.2198 71.5155 19.1635 71.9728C19.1071 72.4303 19.2343 72.8934 19.5172 73.2636C19.8 73.6339 20.2155 73.878 20.6698 73.9608C21.2596 74.0783 21.7992 74.2792 22.2887 74.5587C25.6715 76.5314 26.7858 82.2224 26.6761 86.8037L26.6754 86.8563C26.6017 90.3635 26.565 93.8837 26.565 97.3977V101.71C26.5638 104.721 26.249 110.5 26.0199 114.42C25.9527 115.57 26.866 116.538 28.0175 116.538H29.1967C30.2549 116.538 31.1305 115.715 31.1957 114.659L31.2024 114.552C31.342 112.293 31.5176 109.45 31.643 106.844H100.341C100.467 109.45 100.642 112.292 100.782 114.55L100.788 114.659C100.854 115.715 101.729 116.538 102.788 116.538H103.967C105.118 116.538 106.031 115.57 105.964 114.42C105.735 110.5 105.42 104.721 105.419 101.71V97.3977C105.419 93.8837 105.382 90.3635 105.309 86.8563L105.308 86.8037C105.198 82.2224 106.313 76.5314 109.696 74.5587C110.185 74.2792 110.725 74.0783 111.314 73.9608C111.769 73.878 112.184 73.6339 112.467 73.2636C112.75 72.8934 112.877 72.4303 112.821 71.9728C112.764 71.5155 112.529 71.0975 112.164 70.8071C111.8 70.5165 111.337 70.3803 110.877 70.4102C109.923 70.4816 108.952 70.7082 108.042 71.0987C101.604 74.4286 100.562 81.1315 100.291 86.8563C100.223 90.0902 100.186 93.3351 100.181 96.576H31.8032Z" fill="#04203F"/>
<path d="M131.984 0V133.946H0V0H131.984ZM3 130.946H128.984V3H3V130.946Z" fill="#D0AE6F"/>
</svg>
