<svg width="94" height="88" viewBox="0 0 94 88" fill="none" xmlns="http://www.w3.org/2000/svg">
<rect x="11.0683" y="67.8428" width="72.7923" height="10.2679" fill="#04203F"/>
<path d="M93.0141 42.0738C92.6498 41.7832 92.1871 41.647 91.7263 41.6769C90.7729 41.7483 89.8015 41.9748 88.8919 42.3654C82.4541 45.6953 81.4113 52.3982 81.1403 58.123C81.0666 61.6302 81.0299 65.1504 81.0299 68.6644V72.9765C81.0314 76.1079 81.3868 81.8591 81.6315 85.8182L81.6381 85.9254C81.7034 86.9816 82.5789 87.8046 83.6372 87.8046H84.8163C85.9678 87.8046 86.8811 86.8366 86.8139 85.6871C86.5848 81.7668 86.27 75.9878 86.2688 72.9765V68.6644C86.2688 65.1504 86.2321 61.6302 86.1585 58.123L86.1577 58.0704C86.048 53.489 87.1623 47.798 90.5452 45.8253C91.0346 45.5459 91.5742 45.3449 92.164 45.2275C92.6183 45.1446 93.0338 44.9005 93.3166 44.5302C93.5995 44.1601 93.7268 43.697 93.6704 43.2395C93.614 42.7822 93.3782 42.3642 93.0141 42.0738Z" fill="#04203F"/>
<path d="M0.669417 42.0738C1.0337 41.7832 1.49638 41.647 1.95722 41.6769C2.91055 41.7483 3.88195 41.9748 4.79154 42.3654C11.2294 45.6953 12.2722 52.3982 12.5432 58.123C12.6168 61.6302 12.6535 65.1504 12.6535 68.6644V72.9765C12.6521 76.1079 12.2967 81.8591 12.052 85.8182L12.0454 85.9254C11.9801 86.9816 11.1046 87.8046 10.0463 87.8046H8.86717C7.71568 87.8046 6.80237 86.8366 6.86954 85.6871C7.09863 81.7668 7.41347 75.9878 7.41464 72.9765V68.6644C7.41464 65.1504 7.45135 61.6302 7.525 58.123L7.52573 58.0704C7.63548 53.489 6.52115 47.798 3.1383 45.8253C2.64885 45.5459 2.10929 45.3449 1.51942 45.2275C1.06513 45.1446 0.649665 44.9005 0.366837 44.5302C0.0839853 44.1601 -0.0432796 43.697 0.0130939 43.2395C0.0694799 42.7822 0.305291 42.3642 0.669417 42.0738Z" fill="#04203F"/>
<path d="M12.3614 45.4111V8.39014C12.3614 6.38755 12.1987 4.90288 11.8735 3.93611C11.5483 2.90028 10.9246 2.20979 10.003 1.86446C9.81628 1.77529 9.67631 1.69572 9.55316 1.62573C9.10459 1.37057 8.88021 1.24303 7.43381 1.24303C7.32546 1.24303 7.27119 1.03583 7.27119 0.621516C7.27119 0.207202 7.32546 0 7.43381 0L10.6948 9.13591e-05L16.3304 0L22.5066 9.13591e-05L26.1529 0C26.3157 0 26.397 0.207202 26.397 0.621516C26.397 1.03583 26.3157 1.24303 26.1529 1.24303C24.7699 1.24303 24.5406 1.36682 24.082 1.61441C23.9473 1.68713 23.7929 1.77045 23.5837 1.86446C22.7164 2.20979 22.12 2.90028 21.7947 3.93611C21.5236 4.90288 21.388 6.38755 21.388 8.39014V56.1414C21.388 58.2821 21.4423 59.8013 21.5508 60.699C21.7134 61.5967 22.0657 62.1492 22.6078 62.3563C23.2042 62.4944 24.1531 62.5635 25.4542 62.5635H37.8149C39.2246 62.5635 40.2275 62.4599 40.8239 62.2527C41.4744 61.9765 41.8811 61.3895 42.0437 60.4918C42.2064 59.5251 42.2877 58.0749 42.2877 56.1414V8.39014C42.2877 6.38755 42.125 4.90288 41.7998 3.93611C41.5287 2.90028 40.9323 2.20979 40.0106 1.86446C39.8014 1.77045 39.647 1.68713 39.5124 1.61441C39.0537 1.36682 38.8244 1.24303 37.4414 1.24303C37.2788 1.24303 37.1975 1.03583 37.1975 0.621516C37.1975 0.207202 37.2788 0 37.4414 0C38.3631 0.0690674 39.5277 0 39.5277 0H43.7971H46.8604H52.6012H56.2418C56.3504 0 56.4045 0.207202 56.4045 0.621516C56.4045 1.03583 56.3504 1.24303 56.2418 1.24303C54.8589 1.24303 54.6295 1.36682 54.1709 1.61441C54.0363 1.68713 53.8819 1.77045 53.6726 1.86446C52.751 2.20979 52.1276 2.90028 51.8023 3.93611C51.4769 4.90288 51.3143 6.38755 51.3143 8.39014V56.1414C51.3143 58.2821 51.3686 59.8013 51.4769 60.699C51.6395 61.5967 51.992 62.1492 52.5341 62.3563C53.1305 62.4944 54.1064 62.5635 55.4616 62.5635H67.8225C69.3405 62.5635 70.3977 62.4599 70.9941 62.2527C71.5905 62.0456 71.9428 61.4931 72.0513 60.5954C72.214 59.6978 72.2953 58.2131 72.2953 56.1414V8.39014C72.2953 6.38755 72.1327 4.90288 71.8072 3.93611C71.5363 2.90028 70.9399 2.20979 70.0182 1.86446C69.8315 1.77529 69.6915 1.69572 69.5684 1.62573C69.1198 1.37057 68.8954 1.24303 67.449 1.24303C67.3405 1.24303 67.2864 1.03583 67.2864 0.621516C67.2864 0.207202 67.3405 0 67.449 0L71.1982 9.13591e-05L77.373 0H82.7521H86.1682C86.3308 0 86.4121 0.207202 86.4121 0.621516C86.4121 1.03583 86.3308 1.24303 86.1682 1.24303C84.7852 1.24303 84.5558 1.36682 84.0972 1.61441C83.9626 1.68713 83.8082 1.77045 83.599 1.86446C82.6773 2.20979 82.0539 2.90028 81.7285 3.93611C81.4575 4.90288 81.3219 6.38755 81.3219 8.39014V45.4109C79.0648 49.0787 78.4405 53.3538 78.2115 56.8764L78.1479 58.0209L78.1472 58.0604C78.1006 60.2829 78.0686 62.5107 78.0513 64.7387H15.6318C15.6147 62.5107 15.5827 60.2829 15.5359 58.0604L15.5352 58.0209L15.4716 56.8764C15.2428 53.3539 14.6185 49.0789 12.3614 45.4111Z" fill="#04203F"/>
</svg>
