<svg width="319" height="53" viewBox="0 0 319 53" fill="none" xmlns="http://www.w3.org/2000/svg">
<path d="M282.734 30.5961L284.261 29.1767H305.224L305.936 30.5961H282.734ZM317.982 42.7442C318.162 42.7442 318.252 42.8793 318.252 43.1497C318.252 43.4201 318.162 43.5552 317.982 43.5552C316.675 43.5552 315.512 43.5552 315.512 43.5552H307.88C307.88 43.5552 307.232 43.5552 305.971 43.5552C305.79 43.5552 305.7 43.4201 305.7 43.1497C305.7 42.8793 305.79 42.7442 305.971 42.7442C308.359 42.7442 308.349 42.4062 308.935 41.7303C309.521 41.0093 309.363 39.68 308.462 37.7425L293.457 6.04243L295.146 3.94712L282.034 34.9712C280.907 37.7199 280.84 39.7026 281.831 40.9192C282.822 42.1358 283.286 42.7442 286.214 42.7442C286.44 42.7442 286.552 42.8793 286.552 43.1497C286.552 43.4201 286.44 43.5552 286.214 43.5552C284.863 43.5552 284.019 43.5552 284.019 43.5552H275.791C275.791 43.5552 275.194 43.5552 273.797 43.5552C273.617 43.5552 273.527 43.4201 273.527 43.1497C273.527 42.8793 273.617 42.7442 273.797 42.7442C275.014 42.7442 275.592 42.6906 276.26 41.9535C276.929 41.2163 277.212 40.739 277.978 39.5674C278.789 38.3508 279.668 36.6159 280.614 34.3629L294.876 0.702773C294.966 0.567591 295.124 0.5 295.349 0.5C295.574 0.5 295.71 0.567591 295.755 0.702773L311.706 34.2953C312.742 36.5033 313.666 38.2381 314.477 39.4998C315.194 40.7653 315.489 41.5839 316.111 42.0021C316.732 42.4203 317.036 42.7442 317.982 42.7442Z" fill="#D0AE6F"/>
<path d="M318.252 43.1497C318.252 42.9135 318.183 42.7807 318.046 42.751L317.982 42.7442C317.272 42.7442 316.924 42.5624 316.532 42.2949L316.111 42.0021C315.644 41.6885 315.361 41.1499 314.947 40.3662L314.477 39.4998C313.666 38.2381 312.742 36.5033 311.706 34.2953L295.755 0.702773C295.721 0.60129 295.636 0.537994 295.501 0.512695L295.349 0.5C295.124 0.5 294.966 0.567591 294.876 0.702773L280.614 34.3629L280.262 35.1836C279.449 37.0416 278.688 38.5029 277.978 39.5674C277.212 40.739 276.929 41.2163 276.26 41.9535L276.135 42.084C275.517 42.697 274.938 42.7442 273.797 42.7442C273.617 42.7442 273.527 42.8793 273.527 43.1497C273.527 43.3863 273.596 43.5193 273.734 43.5488L273.797 43.5552H286.214L286.294 43.5488C286.441 43.5235 286.526 43.4223 286.548 43.2451L286.552 43.1497C286.552 42.9134 286.466 42.7806 286.294 42.751L286.214 42.7442C283.286 42.7442 282.822 42.1358 281.831 40.9192C280.84 39.7026 280.907 37.7199 282.034 34.9712L283.884 30.5957H305.079L308.462 37.7425C309.363 39.68 309.521 41.0093 308.935 41.7303L308.737 41.9678C308.314 42.4853 308.06 42.7442 305.971 42.7442C305.79 42.7442 305.7 42.8793 305.7 43.1497C305.7 43.3861 305.769 43.5191 305.907 43.5488L305.971 43.5552H317.982L318.046 43.5488C318.164 43.5234 318.231 43.4222 318.248 43.2451L318.252 43.1497ZM304.407 29.1768H284.483L293.882 6.93945L304.407 29.1768ZM285.237 28.6768H303.617L293.907 8.16309L285.237 28.6768ZM318.753 43.1494C318.753 43.3244 318.727 43.5435 318.601 43.7314C318.452 43.9551 318.218 44.0556 317.982 44.0557H305.97C305.735 44.0556 305.501 43.9548 305.352 43.7314C305.227 43.5435 305.2 43.3244 305.2 43.1494C305.2 42.9745 305.227 42.7562 305.352 42.5684C305.501 42.3448 305.735 42.2442 305.97 42.2441C307.169 42.2441 307.662 42.1546 307.921 42.0361C308.158 41.9275 308.201 41.815 308.547 41.415L308.609 41.3271C308.746 41.1058 308.821 40.7681 308.76 40.252C308.69 39.6623 308.449 38.9006 308.01 37.9561L304.762 31.0957H284.215L282.494 35.166C281.378 37.8915 281.418 39.6214 282.219 40.6035C282.728 41.2285 283.027 41.593 283.52 41.8408C284.019 42.0912 284.771 42.2441 286.215 42.2441C286.431 42.2442 286.676 42.3133 286.852 42.5254C287.014 42.7199 287.052 42.9572 287.052 43.1494C287.052 43.3417 287.015 43.5798 286.852 43.7744C286.676 43.9864 286.431 44.0556 286.215 44.0557H273.798C273.562 44.0557 273.328 43.9551 273.178 43.7314C273.053 43.5435 273.027 43.3244 273.027 43.1494C273.027 42.9746 273.053 42.7561 273.178 42.5684C273.328 42.3447 273.562 42.2441 273.798 42.2441L274.219 42.2402C274.601 42.2317 274.872 42.2069 275.1 42.1436C275.374 42.0676 275.608 41.9286 275.89 41.6172C276.526 40.9163 276.785 40.4782 277.559 39.2939L277.562 39.29C278.348 38.1115 279.212 36.4093 280.153 34.1689L280.154 34.168L294.416 0.507812L294.434 0.464844L294.46 0.425781C294.676 0.10153 295.028 0 295.349 0C295.633 6.38356e-05 296.048 0.0885366 296.212 0.5L312.158 34.0811L312.159 34.083C313.062 36.0069 313.874 37.5587 314.594 38.7441L314.898 39.2295L314.905 39.2412L314.912 39.2539C315.095 39.5771 315.251 39.8708 315.389 40.1318C315.529 40.3957 315.647 40.6203 315.761 40.8174C315.992 41.2143 316.175 41.4427 316.389 41.5869C316.745 41.8264 316.913 41.9678 317.144 42.0811C317.338 42.1762 317.574 42.2441 317.982 42.2441C318.218 42.2442 318.452 42.3447 318.601 42.5684C318.726 42.7561 318.753 42.9746 318.753 43.1494Z" fill="#D0AE6F"/>
<path d="M259.7 42.7442C260.106 42.7442 260.331 42.7892 260.376 42.8793C260.466 42.9244 260.511 43.1497 260.511 43.5552C260.511 44.1861 260.511 45.583 260.511 45.583V51.7621C260.511 51.9424 260.376 52.0325 260.106 52.0325C259.835 52.0325 259.7 51.9424 259.7 51.7621C259.7 47.932 258.236 46.6095 256.523 44.762C254.856 42.9596 252.085 43.5552 248.21 43.5552H227.054C225.297 43.5552 223.719 43.8707 222.323 44.5015C220.971 45.1774 220.624 45.2985 219.146 46.4518C217.668 47.6051 217.253 48.8978 217.253 51.7816C217.253 51.9619 217.118 52.052 216.848 52.052C216.577 52.052 216.442 51.9619 216.442 51.7816L216.442 45.2012C216.442 45.2012 216.442 44.0734 216.442 43.4877C216.442 43.1272 216.465 42.9019 216.51 42.8117C216.6 42.7216 216.803 42.6766 217.118 42.6766C219.056 42.6766 220.768 42.0457 222.255 40.784C223.787 39.4773 225.139 37.765 226.31 35.6471C227.527 33.5293 228.563 31.1862 229.42 28.6177C230.321 26.0493 231.042 23.4583 231.582 20.8448C232.123 18.1862 232.529 15.7079 232.799 13.4098C233.069 11.0667 233.205 9.10654 233.205 7.52942C233.205 6.44797 233.069 5.5017 232.799 4.69062C232.529 3.87953 232.212 3.04381 231.221 2.5932C230.274 2.1426 229.925 2.12217 227.807 2.12217C227.717 2.12217 227.672 1.98699 227.672 1.71663C227.672 1.44627 227.717 1.31109 227.807 1.31109C228.078 1.31109 228.821 1.31109 230.038 1.31109C231.299 1.31109 231.38 1.31109 233.272 1.31109C235.165 1.31109 237.192 1.31109 239.355 1.31109C241.563 1.31109 243.749 1.31109 245.912 1.31109C248.075 1.31109 250.08 1.31109 251.927 1.31109C253.775 1.31109 253.787 1.31109 254.959 1.31109C256.131 1.31109 256.806 1.31109 256.987 1.31109C257.077 1.31109 257.122 1.44627 257.122 1.71663C257.122 1.98699 257.077 2.12217 256.987 2.12217C255.319 2.12217 254.842 2.12217 254.292 2.43654C253.742 2.7509 253.279 3.20362 253.009 3.87953C252.738 4.51038 252.603 5.47917 252.603 6.78593V38.0804C252.603 39.2069 252.626 40.1081 252.671 40.784C252.761 41.4149 253.009 41.8655 253.414 42.1358C253.82 42.4062 254.496 42.5864 255.442 42.6766C256.433 42.7216 257.853 42.7442 259.7 42.7442ZM248.21 37.9452V6.92111C248.21 5.52423 248.12 4.55544 247.939 4.01471C247.804 3.42892 247.376 3.09097 246.655 3.00085C245.934 2.86567 244.695 2.79808 242.938 2.79808H239.626C238.319 2.79808 237.373 3.00085 236.787 3.40639C236.201 3.81194 235.818 4.57796 235.638 5.70448C235.458 6.83099 235.277 8.49822 235.097 10.7062C235.007 11.5173 234.849 12.7564 234.624 14.4237C234.399 16.0909 234.061 17.9834 233.61 20.1013C233.205 22.2191 232.686 24.4496 232.056 26.7928C231.425 29.0908 230.681 31.3213 229.825 33.4842C228.969 35.6471 227.978 37.5622 226.851 39.2294C225.725 40.8516 224.44 42.0908 222.998 42.9469V42.0682H242.6C244.447 42.0682 245.754 42.0007 246.52 41.8655C247.331 41.7303 247.804 41.3923 247.939 40.8516C248.12 40.2658 248.21 39.297 248.21 37.9452Z" fill="#D0AE6F"/>
<path d="M259.707 51.8257C259.732 51.9438 259.833 52.011 260.01 52.0279L260.106 52.0325C260.342 52.0324 260.475 51.9635 260.505 51.8257L260.511 51.7621V43.5552C260.511 43.1497 260.466 42.9244 260.376 42.8793C260.331 42.7892 260.106 42.7442 259.7 42.7442C258.314 42.7442 257.169 42.7319 256.265 42.7066L255.442 42.6766C254.614 42.5977 253.993 42.4499 253.579 42.233L253.414 42.1358C253.009 41.8655 252.761 41.4149 252.671 40.784C252.637 40.2772 252.616 39.6435 252.607 38.8834L252.603 38.0804V6.78593C252.603 5.47917 252.738 4.51038 253.009 3.87953C253.279 3.20362 253.742 2.7509 254.292 2.43654C254.704 2.20085 255.076 2.14224 255.939 2.12749L256.987 2.12217C257.077 2.12217 257.122 1.98699 257.122 1.71663C257.122 1.47993 257.087 1.34628 257.018 1.31695L256.987 1.31109L256.987 0.811086C257.364 0.811266 257.518 1.12158 257.562 1.25445C257.611 1.40011 257.622 1.56667 257.622 1.71636C257.622 1.86612 257.611 2.0335 257.562 2.17925C257.518 2.31234 257.364 2.62243 256.987 2.62261C255.263 2.62261 254.947 2.63766 254.54 2.87066C254.07 3.13923 253.695 3.51194 253.473 4.06499L253.468 4.07671C253.239 4.61161 253.103 5.49672 253.103 6.7857V38.0806C253.103 39.1893 253.125 40.0705 253.168 40.7281C253.246 41.2547 253.44 41.5528 253.691 41.7203C253.988 41.9179 254.555 42.0885 255.474 42.1773C256.454 42.2215 257.861 42.2437 259.7 42.2437C259.915 42.2437 260.111 42.2556 260.271 42.2876C260.351 42.3036 260.444 42.3285 260.532 42.3726C260.589 42.4014 260.666 42.4509 260.734 42.5279C260.807 42.5948 260.855 42.6675 260.883 42.7232C260.927 42.8116 260.952 42.9042 260.967 42.9839C261 43.1444 261.011 43.3404 261.011 43.5552V51.7623C261.011 51.998 260.911 52.2323 260.687 52.3814C260.5 52.5064 260.281 52.5327 260.106 52.5328C259.931 52.5328 259.712 52.5066 259.524 52.3814C259.3 52.2323 259.2 51.998 259.2 51.7623C259.2 49.9171 258.849 48.7158 258.317 47.7623C257.774 46.7876 257.033 46.0471 256.157 45.1021L256.156 45.1011C255.452 44.3407 254.501 44.0555 253.167 43.982C252.499 43.9452 251.757 43.9621 250.926 43.9898C250.1 44.0173 249.189 44.0552 248.21 44.0552H227.053C225.357 44.0553 223.851 44.36 222.528 44.9576C221.199 45.6216 220.885 45.7295 219.454 46.8462C218.778 47.3738 218.37 47.9096 218.118 48.6324C217.858 49.3782 217.754 50.3532 217.754 51.7818C217.754 52.0174 217.653 52.2508 217.429 52.4C217.242 52.5252 217.022 52.5523 216.847 52.5523C216.672 52.5523 216.454 52.5252 216.266 52.4C216.043 52.2509 215.942 52.0175 215.942 51.7818V43.4878C215.942 43.2995 215.948 43.1345 215.962 42.9986C215.973 42.8822 215.995 42.7224 216.062 42.5884L216.098 42.5152L216.156 42.4585C216.298 42.3162 216.479 42.2537 216.621 42.2222C216.771 42.1888 216.94 42.1763 217.118 42.1763C218.936 42.1763 220.534 41.5884 221.931 40.4029C223.409 39.1422 224.725 37.48 225.873 35.4048L225.877 35.398C227.075 33.312 228.098 30.9997 228.945 28.4595L228.948 28.4517C229.842 25.9041 230.556 23.3347 231.093 20.7437C231.631 18.0971 232.034 15.6329 232.302 13.3511C232.571 11.0195 232.705 9.08056 232.705 7.52984C232.705 6.48877 232.574 5.59773 232.325 4.84917C232.055 4.04053 231.792 3.40247 231.013 3.04839L231.006 3.04448C230.56 2.83226 230.288 2.73639 229.888 2.68413C229.458 2.62788 228.878 2.62261 227.807 2.62261C227.43 2.62261 227.276 2.3123 227.231 2.17925C227.183 2.0335 227.172 1.86612 227.172 1.71636C227.172 1.56671 227.183 1.40008 227.231 1.25445C227.275 1.12154 227.43 0.811086 227.807 0.811086L227.807 1.31109L227.775 1.31695C227.706 1.34662 227.672 1.48039 227.672 1.71663C227.672 1.98699 227.717 2.12217 227.807 2.12217C229.925 2.12217 230.274 2.1426 231.221 2.5932C232.212 3.04381 232.529 3.87953 232.799 4.69062C233.069 5.5017 233.205 6.44797 233.205 7.52942L233.198 8.13921C233.168 9.60285 233.036 11.3598 232.799 13.4098C232.529 15.7079 232.123 18.1862 231.582 20.8448C231.042 23.4583 230.321 26.0493 229.42 28.6177L229.09 29.5699C228.301 31.7681 227.375 33.794 226.31 35.6471C225.139 37.765 223.787 39.4773 222.255 40.784C220.768 42.0457 219.056 42.6766 217.118 42.6766C216.803 42.6766 216.6 42.7216 216.51 42.8117L216.48 42.9048C216.455 43.0231 216.442 43.2174 216.442 43.4877V51.7816C216.442 51.9393 216.546 52.0277 216.753 52.0474L216.848 52.052C217.084 52.052 217.217 51.9831 217.247 51.8453L217.253 51.7816C217.253 49.0783 217.618 47.7733 218.881 46.6705L219.146 46.4518C220.624 45.2985 220.971 45.1774 222.323 44.5015C223.719 43.8707 225.297 43.5552 227.054 43.5552H248.21C252.085 43.5552 254.856 42.9596 256.523 44.762C258.236 46.6095 259.7 47.932 259.7 51.7621L259.707 51.8257ZM247.71 37.9449V6.92144C247.71 5.52269 247.616 4.6277 247.465 4.17241L247.458 4.14995L247.452 4.12749C247.407 3.93333 247.322 3.80563 247.207 3.71441C247.084 3.61786 246.892 3.53403 246.593 3.49663L246.578 3.49468L246.563 3.49273C245.893 3.36698 244.694 3.29839 242.937 3.29839H239.626C238.347 3.29839 237.529 3.50137 237.072 3.81792C236.65 4.11007 236.303 4.71346 236.132 5.78374C235.954 6.89066 235.775 8.54225 235.595 10.7466L235.594 10.7544V10.7613C235.504 11.5785 235.345 12.8228 235.12 14.4908C234.892 16.1734 234.552 18.0788 234.099 20.2056C233.692 22.3337 233.171 24.5728 232.539 26.9224L232.538 26.9253C231.902 29.2405 231.153 31.4884 230.29 33.6685C229.422 35.8599 228.415 37.8079 227.265 39.5093L227.261 39.5142C226.731 40.2786 226.163 40.9633 225.558 41.5679H242.599L242.6 42.0682L224.259 42.0679C225.115 41.3764 225.909 40.5305 226.638 39.5289L226.851 39.2294C227.978 37.5622 228.969 35.6471 229.825 33.4842C230.681 31.3213 231.425 29.0908 232.056 26.7928C232.686 24.4496 233.205 22.2191 233.61 20.1013C234.061 17.9834 234.399 16.0909 234.624 14.4237C234.737 13.5901 234.832 12.8632 234.911 12.2437L235.097 10.7062C235.232 9.05031 235.368 7.69856 235.503 6.65093L235.638 5.70448C235.807 4.64845 236.154 3.90932 236.679 3.48687L236.787 3.40639C237.3 3.05149 238.088 2.85149 239.153 2.80718L239.626 2.79808H242.938C244.695 2.79808 245.934 2.86567 246.655 3.00085C247.376 3.09097 247.804 3.42892 247.939 4.01471C248.12 4.55544 248.21 5.52423 248.21 6.92111V37.9452C248.21 39.297 248.12 40.2658 247.939 40.8516L247.91 40.9507C247.744 41.4338 247.28 41.7387 246.52 41.8655L246.208 41.9126C245.419 42.0162 244.217 42.0682 242.6 42.0682L242.599 41.5679C244.446 41.5679 245.715 41.4994 246.433 41.3726H246.438C247.16 41.2522 247.389 40.9902 247.454 40.73L247.462 40.7046C247.618 40.196 247.71 39.2921 247.71 37.9449ZM230.038 0.811086L230.038 1.31109H227.807L227.807 0.811086H230.038ZM233.272 0.811086L233.272 1.31109H230.038L230.038 0.811086H233.272ZM239.355 0.811086L239.355 1.31109H233.272L233.272 0.811086H239.355ZM245.912 0.811086L245.912 1.31109H239.355L239.355 0.811086H245.912ZM251.927 0.811086L251.927 1.31109H245.912L245.912 0.811086H251.927ZM254.959 0.811086L254.959 1.31109C253.787 1.31109 253.775 1.31109 251.927 1.31109L251.927 0.811086H254.959ZM256.987 0.811086L256.987 1.31109H254.959L254.959 0.811086H256.987Z" fill="#D0AE6F"/>
<path d="M183.727 6.92106C183.727 5.61431 183.592 4.62298 183.322 3.94708C183.052 3.27117 182.488 2.79803 181.632 2.52767C180.821 2.25731 181.059 2.3249 179.302 2.3249C179.167 2.3249 179.099 2.18972 179.099 1.91935C179.099 1.64899 179.167 1.51381 179.302 1.51381C180.383 1.51381 181.467 1.51381 181.467 1.51381L185.958 1.51381L190.314 1.51383C190.314 1.51383 191.385 1.51383 192.422 1.51383C192.557 1.51383 192.624 1.64901 192.624 1.91937C192.624 2.18973 192.557 2.32492 192.422 2.32492C190.754 2.32492 191.005 2.25731 190.149 2.52767C189.292 2.75297 188.729 3.20358 188.459 3.87949C188.188 4.51033 188.053 5.47913 188.053 6.78588V38.0804C188.053 39.3871 188.188 40.3784 188.459 41.0543C188.729 41.7303 189.292 42.1809 190.149 42.4062C191.005 42.6315 190.753 42.6089 192.42 42.6089C192.556 42.6089 192.623 42.7441 192.623 43.0145C192.623 43.2848 192.556 43.42 192.42 43.42C191.384 43.42 190.315 43.42 190.315 43.42H181.421C181.421 43.42 180.369 43.42 179.288 43.42C179.152 43.42 179.085 43.2848 179.085 43.0145C179.085 42.7441 179.152 42.6089 179.288 42.6089C181.045 42.6089 180.821 42.6315 181.632 42.4062C182.488 42.1809 183.052 41.7303 183.322 41.0543C183.592 40.3784 183.727 39.3871 183.727 38.0804V6.92106ZM155.407 22.2641V20.8447H185.62V22.2641H155.407ZM153.447 38.0804V6.78588C153.447 5.47913 153.289 4.51033 152.974 3.87949C152.703 3.20358 152.14 2.75297 151.284 2.52767C150.473 2.25731 150.716 2.3249 149.049 2.3249C148.959 2.3249 148.914 2.18972 148.914 1.91935C148.914 1.64899 148.959 1.51381 149.049 1.51381C150.13 1.51381 151.22 1.51381 151.22 1.51381H155.542H160.094C160.094 1.51381 161.157 1.51381 162.238 1.51381C162.328 1.51381 162.373 1.64899 162.373 1.91935C162.373 2.18972 162.328 2.3249 162.238 2.3249C160.571 2.3249 160.619 2.3249 159.936 2.52767C159.253 2.73044 158.494 3.27117 158.178 3.94708C157.908 4.62298 157.773 5.61431 157.773 6.92106V38.0804C157.773 39.3871 157.908 40.3784 158.178 41.0543C158.449 41.7303 159.012 42.1809 159.868 42.4062C160.769 42.6315 160.568 42.6089 162.235 42.6089C162.325 42.6089 162.37 42.7441 162.37 43.0145C162.37 43.2848 162.325 43.42 162.235 43.42C161.109 43.42 159.995 43.42 159.995 43.42H151.219C151.219 43.42 150.077 43.42 148.996 43.42C148.906 43.42 148.861 43.2848 148.861 43.0145C148.861 42.7441 148.906 42.6089 148.996 42.6089C150.663 42.6089 150.428 42.6315 151.284 42.4062C152.14 42.1809 152.703 41.7303 152.974 41.0543C153.289 40.3784 153.447 39.3871 153.447 38.0804Z" fill="#D0AE6F"/>
<path d="M148.361 43.0148C148.361 42.865 148.372 42.6977 148.42 42.5519C148.465 42.4189 148.619 42.1088 148.995 42.1085L148.996 42.6089C148.906 42.6089 148.861 42.7441 148.861 43.0145L148.869 43.1915C148.883 43.3183 148.915 43.392 148.964 43.4132L148.996 43.42H162.235L162.267 43.4132C162.316 43.3921 162.348 43.3185 162.362 43.1915L162.37 43.0145C162.37 42.7778 162.336 42.6449 162.267 42.6154L162.235 42.6089L162.236 42.1085C162.612 42.1087 162.766 42.4188 162.811 42.5519C162.859 42.6977 162.87 42.865 162.87 43.0148C162.87 43.1645 162.859 43.331 162.811 43.4767C162.766 43.6096 162.612 43.9199 162.236 43.9201H148.995C148.618 43.9198 148.464 43.6096 148.42 43.4767C148.372 43.331 148.361 43.1645 148.361 43.0148ZM178.585 43.0148C178.585 42.8541 178.603 42.6585 178.689 42.4865C178.735 42.3935 178.808 42.2933 178.921 42.2179C179.037 42.1404 179.166 42.1086 179.287 42.1085L179.288 42.6089C179.152 42.6089 179.085 42.7441 179.085 43.0145L179.098 43.1915C179.119 43.3186 179.166 43.3922 179.24 43.4132L179.288 43.42H192.42L192.468 43.4132C192.542 43.392 192.589 43.3184 192.611 43.1915L192.623 43.0145C192.623 42.7441 192.556 42.6089 192.42 42.6089L192.42 42.1085C192.541 42.1085 192.67 42.1405 192.786 42.2179C192.899 42.2933 192.973 42.3934 193.02 42.4865C193.106 42.6585 193.123 42.8541 193.123 43.0148C193.123 43.1754 193.106 43.3702 193.02 43.5421C192.973 43.6352 192.9 43.7352 192.786 43.8107C192.67 43.8882 192.541 43.9201 192.42 43.9201H179.287C179.166 43.92 179.037 43.8882 178.921 43.8107C178.808 43.7353 178.735 43.6351 178.689 43.5421C178.603 43.3702 178.585 43.1754 178.585 43.0148ZM188.053 38.0804V6.78588C188.053 5.64258 188.157 4.75788 188.363 4.13198L188.459 3.87949C188.695 3.28844 189.156 2.86956 189.841 2.62319L190.149 2.52767C190.791 2.32492 190.81 2.31216 191.484 2.3185L192.422 2.32492C192.557 2.32492 192.624 2.18973 192.624 1.91937C192.624 1.68289 192.572 1.55013 192.469 1.52065L192.422 1.51383L192.422 1.01381C192.543 1.01388 192.671 1.04585 192.787 1.12319C192.901 1.19866 192.974 1.29863 193.021 1.39174C193.107 1.56371 193.124 1.75842 193.124 1.91908C193.124 2.0798 193.107 2.27533 193.021 2.44741C192.974 2.54042 192.9 2.64057 192.787 2.71596C192.671 2.79321 192.543 2.82527 192.422 2.82533C191.553 2.82533 191.245 2.80791 191.014 2.82338C190.833 2.83549 190.742 2.86405 190.299 3.00405L190.287 3.00795L190.276 3.01088C189.536 3.20566 189.122 3.56908 188.923 4.06557L188.918 4.07631C188.689 4.61123 188.553 5.49709 188.553 6.78627V38.0802C188.553 39.3655 188.688 40.281 188.923 40.8683C189.122 41.3648 189.536 41.7282 190.276 41.923C190.732 42.0432 190.826 42.0762 191.025 42.0939C191.248 42.1138 191.565 42.1085 192.42 42.1085L192.42 42.6089C191.17 42.6089 190.999 42.6221 190.63 42.5333L190.149 42.4062C189.346 42.195 188.801 41.7859 188.513 41.1789L188.459 41.0543C188.188 40.3784 188.053 39.3871 188.053 38.0804ZM183.228 38.0802V22.7638H158.273V38.0802C158.273 39.3656 158.408 40.281 158.643 40.8683C158.841 41.3635 159.253 41.7259 159.989 41.921L160.491 42.0451C160.609 42.0712 160.696 42.0847 160.806 42.0939C161.049 42.1141 161.382 42.1085 162.236 42.1085L162.235 42.6089C160.568 42.6089 160.769 42.6315 159.868 42.4062C159.066 42.195 158.52 41.7859 158.233 41.1789L158.178 41.0543C157.908 40.3784 157.773 39.3871 157.773 38.0804L157.773 22.2638H183.728L183.727 38.0804L183.721 38.5558C183.691 39.6301 183.558 40.463 183.322 41.0543L183.268 41.1789C182.98 41.7859 182.435 42.195 181.632 42.4062C180.821 42.6315 181.045 42.6089 179.288 42.6089L179.287 42.1085C180.187 42.1085 180.535 42.114 180.773 42.0939C180.979 42.0763 181.069 42.0433 181.498 41.924L181.505 41.923C182.245 41.7282 182.659 41.3648 182.858 40.8683C183.092 40.281 183.228 39.3656 183.228 38.0802ZM152.946 38.0802V6.78627C152.946 5.50173 152.789 4.62741 152.527 4.10268L152.517 4.08412L152.51 4.06557C152.311 3.56904 151.897 3.20565 151.156 3.01088L151.141 3.00698L151.126 3.00209C150.705 2.86169 150.626 2.83512 150.453 2.82338C150.226 2.808 149.918 2.82533 149.049 2.82533C148.672 2.82533 148.517 2.51501 148.473 2.38198C148.424 2.23621 148.413 2.06886 148.413 1.91908C148.413 1.76944 148.424 1.6028 148.473 1.45717C148.517 1.32425 148.672 1.01381 149.049 1.01381L149.049 1.51381L149.017 1.51967C148.948 1.54938 148.914 1.68316 148.914 1.91935C148.914 2.15549 148.948 2.28861 149.017 2.3185L149.049 2.3249C150.716 2.3249 150.473 2.25731 151.284 2.52767C152.14 2.75297 152.703 3.20358 152.974 3.87949C153.289 4.51033 153.447 5.47913 153.447 6.78588V38.0804C153.447 39.3871 153.289 40.3784 152.974 41.0543L152.919 41.1789C152.631 41.7857 152.086 42.195 151.284 42.4062L150.8 42.5333C150.427 42.6221 150.246 42.6089 148.996 42.6089L148.995 42.1085C149.85 42.1085 150.173 42.1139 150.401 42.0939C150.603 42.0761 150.703 42.0424 151.156 41.923C151.897 41.7282 152.311 41.3648 152.51 40.8683L152.515 40.8556L152.521 40.8429C152.79 40.2655 152.946 39.3609 152.946 38.0802ZM157.773 6.92106C157.773 5.61431 157.908 4.62298 158.178 3.94708C158.454 3.35567 159.07 2.86786 159.677 2.61928L159.936 2.52767C160.448 2.37567 160.549 2.33778 161.271 2.32826L162.238 2.3249C162.328 2.3249 162.373 2.18972 162.373 1.91935C162.373 1.68255 162.339 1.54893 162.27 1.51967L162.238 1.51381L162.238 1.01381C162.615 1.01393 162.769 1.32427 162.814 1.45717C162.862 1.60285 162.873 1.76938 162.873 1.91908C162.873 2.06886 162.862 2.23621 162.814 2.38198C162.769 2.51509 162.615 2.82522 162.238 2.82533C161.392 2.82533 161.016 2.82504 160.763 2.8478C160.539 2.86796 160.427 2.90359 160.078 3.00698C159.502 3.17806 158.885 3.63319 158.639 4.14174C158.406 4.72934 158.273 5.64204 158.273 6.92104V20.3449H183.228V6.92104C183.228 5.63558 183.092 4.72022 182.858 4.13295C182.656 3.62825 182.231 3.24083 181.482 3.00405L181.474 3.00209C181.056 2.86272 180.975 2.83537 180.789 2.82338C180.548 2.80787 180.214 2.82533 179.302 2.82533C179.181 2.82532 179.052 2.7935 178.936 2.71596C178.823 2.6405 178.749 2.5405 178.702 2.44741C178.616 2.27533 178.599 2.0798 178.599 1.91908C178.599 1.75851 178.616 1.56364 178.702 1.39174C178.749 1.29869 178.823 1.19865 178.936 1.12319C179.052 1.04565 179.181 1.01383 179.302 1.01381L179.302 1.51381C179.167 1.51381 179.099 1.64899 179.099 1.91935C179.099 2.1556 179.151 2.28869 179.254 2.3185L179.302 2.3249C181.059 2.3249 180.821 2.25731 181.632 2.52767C182.488 2.79803 183.052 3.27117 183.322 3.94708C183.592 4.62298 183.727 5.61431 183.727 6.92106L183.728 20.8449H157.773L157.773 6.92106ZM181.467 1.01381C181.467 1.01381 181.467 1.01382 181.467 1.51381C181.456 1.51381 180.378 1.51381 179.302 1.51381L179.302 1.01381H181.467ZM185.958 1.01381L185.958 1.51381L181.467 1.51381C181.467 1.01382 181.467 1.01381 181.467 1.01381H185.958ZM190.314 1.01381L190.314 1.51383L185.958 1.51381L185.958 1.01381H190.314ZM192.422 1.01381L192.422 1.51383H190.314L190.314 1.01381H192.422ZM151.22 1.01381C151.22 1.01381 151.22 1.01381 151.22 1.51381H149.049L149.049 1.01381H151.22ZM155.542 1.01381V1.51381H151.22C151.22 1.01381 151.22 1.01381 151.22 1.01381H155.542ZM160.094 1.01381L160.094 1.51381H155.542V1.01381H160.094ZM162.238 1.01381L162.238 1.51381H160.094L160.094 1.01381H162.238Z" fill="#D0AE6F"/>
<path fill-rule="evenodd" clip-rule="evenodd" d="M98.1806 0.631922C93.6225 0.959872 89.41 2.52662 85.8822 4.99498C85.1402 5.51417 84.7276 6.3757 84.7172 7.28127L84.6638 11.9524C84.6638 12.0875 84.7765 12.1777 85.0018 12.2227C85.2271 12.2678 85.3623 12.2002 85.4073 12.0199C86.9394 8.32499 88.0852 5.61437 90.5636 3.94716C93.0869 2.27986 97.673 1.4463 100.557 1.4463C103.666 1.4463 106.437 2.34746 108.871 4.14989C111.349 5.95231 113.286 8.52078 114.683 11.8552C115.819 14.4464 116.508 17.4429 116.749 20.8448C116.782 21.3104 116.806 21.7835 116.823 22.2643C116.838 22.7303 116.846 23.2034 116.846 23.6836C116.846 27.5588 116.283 30.9384 115.157 33.8222C114.03 36.661 112.295 38.8464 109.952 40.3785C107.654 41.9106 104.725 42.6765 101.165 42.6765C99.0474 42.6765 95.0921 42.3386 93.0643 41.6627C91.0818 40.9868 89.3244 39.9279 87.7923 38.486C86.5396 37.3069 86.1327 35.8163 85.6317 33.9816C85.52 33.5725 85.4036 33.1463 85.2721 32.7027C85.2271 32.5675 85.0694 32.5224 84.799 32.5675C84.5737 32.6126 84.461 32.7027 84.461 32.8379L84.4318 37.3997C84.426 38.307 84.8247 39.1772 85.5596 39.7093C89.4836 42.5501 94.2886 44.2612 99.4906 44.3617C102.288 44.3079 104.963 43.7913 107.519 42.8118C110.267 41.7754 112.701 40.2659 114.819 38.2832C116.982 36.3005 118.671 33.8898 119.888 31.051C121.15 28.1671 121.78 24.9003 121.78 21.2504C121.78 18.6369 121.397 16.1134 120.631 13.6802C120.132 11.9647 119.407 10.3787 118.454 8.92239C118.031 8.27475 117.562 7.65277 117.049 7.05629C115.427 5.07362 113.264 3.49658 110.56 2.32499C107.902 1.1534 104.635 0.567606 100.76 0.567606C100.627 0.567606 100.484 0.568428 100.334 0.570164C99.7256 0.577016 98.9814 0.597571 98.1806 0.631922Z" fill="#D0AE6F"/>
<path d="M100.76 0.0676057C104.681 0.0676057 108.02 0.659863 110.76 1.86643L111.271 2.09593C113.797 3.2672 115.855 4.80943 117.428 6.72971L117.815 7.19456C118.194 7.66419 118.546 8.14893 118.873 8.64866C119.851 10.1446 120.596 11.7727 121.108 13.5305L121.25 13.9963C121.937 16.3349 122.28 18.7534 122.28 21.2502C122.28 24.9567 121.639 28.2918 120.346 31.2473C119.104 34.1463 117.375 36.6152 115.159 38.6477L115.16 38.6487C112.994 40.6759 110.505 42.2185 107.697 43.2776L107.698 43.2785C105.087 44.2793 102.353 44.8067 99.4998 44.8615H99.4812C94.1741 44.7591 89.2704 43.0133 85.2664 40.1145C84.388 39.4786 83.9247 38.4491 83.9314 37.3967L83.9607 32.8352C83.9615 32.6054 84.0681 32.4106 84.2332 32.2785C84.3782 32.1625 84.5516 32.1073 84.7009 32.0774L84.7087 32.0754L84.7166 32.0744C84.882 32.0469 85.0749 32.0349 85.2576 32.0871C85.4413 32.1397 85.6147 32.2595 85.7107 32.4563L85.7468 32.5451L85.7488 32.553L85.7517 32.5608C85.885 33.0103 86.0026 33.4414 86.114 33.8498L86.3005 34.5237C86.7287 36.0409 87.1427 37.1887 88.1345 38.1223C89.6141 39.5148 91.309 40.5358 93.2224 41.1887L93.6052 41.3049C94.5484 41.5697 95.8247 41.7789 97.1365 41.926C98.6278 42.0932 100.127 42.177 101.165 42.177C104.654 42.177 107.479 41.4256 109.675 39.9621L109.678 39.9602C111.927 38.4897 113.6 36.39 114.692 33.6379C115.79 30.8252 116.346 27.5106 116.346 23.6838C116.346 23.2888 116.34 22.8988 116.329 22.5139H97.8992C97.0212 22.5139 96.2345 22.9054 95.7039 23.5237C95.6714 23.5616 95.64 23.6002 95.6101 23.6389L95.5925 23.6623L95.5701 23.6799C95.4583 23.7714 95.3149 23.8273 95.1589 23.8274C94.7971 23.8274 94.5076 23.5317 94.5076 23.1721V19.9367C94.5077 19.5773 94.7972 19.2824 95.1589 19.2824C95.276 19.2825 95.3863 19.313 95.4812 19.3674L95.5701 19.4299L95.5925 19.4475L95.6091 19.4699C95.6397 19.5094 95.6709 19.5478 95.7029 19.5852C96.2335 20.2038 97.0209 20.5949 97.8992 20.5949H116.227C115.972 17.3572 115.303 14.5132 114.225 12.0559L114.222 12.0481C112.854 8.78278 110.969 6.29354 108.577 4.55393L108.573 4.55198C106.228 2.81522 103.562 1.94659 100.557 1.94651C99.157 1.94651 97.3267 2.14949 95.5369 2.55882C93.7404 2.96969 92.0293 3.57844 90.8396 4.36448L90.8386 4.3635C88.511 5.93113 87.4151 8.48219 85.8689 12.2112L85.8679 12.2102C85.8094 12.3831 85.6961 12.5523 85.4959 12.6526C85.289 12.756 85.0718 12.7466 84.9041 12.7131C84.7547 12.6832 84.5813 12.6279 84.4363 12.5119C84.2706 12.3794 84.1638 12.1834 84.1638 11.9524V11.9465L84.2175 7.27561C84.2296 6.22516 84.7086 5.20573 85.5955 4.58518C89.1951 2.06655 93.4938 0.467703 98.1443 0.133035H98.1521L98.1589 0.132059C98.964 0.0975254 99.7137 0.0774584 100.328 0.0705354C100.48 0.0687793 100.625 0.0676061 100.76 0.0676057ZM100.334 0.570164C99.7256 0.577016 98.9814 0.597571 98.1806 0.631922C93.6225 0.959872 89.41 2.52662 85.8822 4.99498C85.1402 5.51417 84.7276 6.3757 84.7172 7.28127L84.6638 11.9524C84.6638 12.0875 84.7765 12.1777 85.0018 12.2227C85.2271 12.2678 85.3623 12.2002 85.4073 12.0199C86.9394 8.32499 88.0852 5.61437 90.5636 3.94716C93.0869 2.27986 97.673 1.4463 100.557 1.4463C103.666 1.4463 106.437 2.34746 108.871 4.14989C111.349 5.95231 113.286 8.52078 114.683 11.8552C115.819 14.4464 116.508 17.4429 116.749 20.8448C116.782 21.3104 116.806 21.7835 116.823 22.2643C116.838 22.7303 116.846 23.2034 116.846 23.6836C116.846 27.5588 116.283 30.9384 115.157 33.8222C114.03 36.661 112.295 38.8464 109.952 40.3785C107.654 41.9106 104.725 42.6765 101.165 42.6765C99.0474 42.6765 95.0921 42.3386 93.0643 41.6627C91.0818 40.9868 89.3244 39.9279 87.7923 38.486C86.5396 37.3069 86.1327 35.8163 85.6317 33.9816C85.52 33.5725 85.4036 33.1463 85.2721 32.7027C85.2271 32.5675 85.0694 32.5224 84.799 32.5675C84.5737 32.6126 84.461 32.7027 84.461 32.8379L84.4318 37.3997C84.426 38.307 84.8247 39.1772 85.5596 39.7093C89.4836 42.5501 94.2886 44.2612 99.4906 44.3617C102.288 44.3079 104.963 43.7913 107.519 42.8118C110.267 41.7754 112.701 40.2659 114.819 38.2832C116.982 36.3005 118.671 33.8898 119.888 31.051C121.15 28.1671 121.78 24.9003 121.78 21.2504C121.78 18.6369 121.397 16.1134 120.631 13.6802C120.132 11.9647 119.407 10.3787 118.454 8.92239C118.031 8.27475 117.562 7.65277 117.049 7.05629C115.427 5.07362 113.264 3.49658 110.56 2.32499C107.902 1.1534 104.635 0.567606 100.76 0.567606C100.627 0.567606 100.484 0.568428 100.334 0.570164ZM95.1589 19.7824C95.0776 19.7824 95.0077 19.8492 95.0076 19.9367V23.1721C95.0076 23.2598 95.0775 23.3274 95.1589 23.3274C95.1895 23.3273 95.2169 23.3164 95.241 23.3C95.2683 23.2656 95.2957 23.2314 95.324 23.1985L95.4441 23.0657C96.0614 22.4182 96.9334 22.0139 97.8992 22.0139H116.311C116.299 21.7042 116.283 21.3979 116.263 21.0949H97.8992C96.9334 21.0949 96.0615 20.6907 95.4441 20.0432L95.324 19.9104C95.2955 19.8771 95.268 19.8429 95.241 19.8088C95.217 19.7926 95.1896 19.7825 95.1589 19.7824Z" fill="#D0AE6F"/>
<path d="M0.647902 43.5553C0.557781 43.5553 0.51272 43.4201 0.51272 43.1498C0.51272 42.8794 0.557781 42.7442 0.647902 42.7442C2.31514 42.7442 2.08 42.6316 2.93615 42.4063C3.7923 42.181 4.35555 41.7304 4.62591 41.0544C4.94134 40.3785 5.09905 39.3872 5.09905 38.0805V6.78596C5.09905 5.47921 4.94134 4.51041 4.62591 3.87956C4.35555 3.20365 3.7923 2.75305 2.93615 2.52775C2.08 2.25738 2.30242 2.32491 0.635181 2.32491C0.545061 2.32491 0.5 2.18973 0.5 1.91937C0.5 1.64901 0.545061 1.51382 0.635181 1.51382C1.71663 1.51382 2.81639 1.51389 2.81639 1.51389H7.12677H11.2498C11.2498 1.51389 12.1665 1.51389 13.1578 1.51389C13.293 1.51389 13.3606 1.64907 13.3606 1.91943C13.3606 2.18979 13.293 2.32497 13.1578 2.32497C11.6708 2.32497 12.0158 2.25738 11.2498 2.52775C10.5288 2.75305 10.0332 3.20365 9.7628 3.87956C9.5375 4.51041 9.42485 5.47921 9.42485 6.78596V37.9453C9.42485 39.3421 9.51497 40.3335 9.69521 40.9193C9.87545 41.505 10.3261 41.8655 11.047 42.0007C11.768 42.0908 12.9846 42.1359 14.6969 42.1359H23.7541C25.6015 42.1359 26.9083 42.0683 27.6743 41.9331C28.4403 41.7979 28.9135 41.4375 29.0937 40.8517C29.2739 40.2659 29.3641 39.2971 29.3641 37.9453V6.78596C29.3641 5.47921 29.2289 4.51041 28.9585 3.87956C28.7332 3.20365 28.2376 2.75305 27.4715 2.52775C26.7506 2.25738 27.0801 2.32497 25.5931 2.32497C25.4579 2.32497 25.3903 2.18979 25.3903 1.91943C25.3903 1.64907 25.4579 1.51389 25.5931 1.51389H26.3207H28.9585C28.9585 1.51389 30.7384 1.51389 31.5946 1.51389C32.9464 1.51389 35.54 1.51389 35.54 1.51389C35.54 1.51389 36.4963 1.51389 37.5327 1.51389C37.6228 1.51389 37.6679 1.64907 37.6679 1.91943C37.6679 2.18979 37.6228 2.32497 37.5327 2.32497C36.0457 2.32497 36.416 2.25738 35.65 2.52775C34.884 2.75305 34.3658 3.20365 34.0954 3.87956C33.825 4.51041 33.6899 5.47921 33.6899 6.78596V38.0805C33.6899 39.3872 33.8701 40.3335 34.2306 40.9193C34.6361 41.46 35.267 41.7979 36.1231 41.9331C37.0243 42.0683 38.2635 42.1359 39.8406 42.1359H48.0191C49.9116 42.1359 51.2409 42.0683 52.0069 41.9331C52.7729 41.7979 53.2235 41.4375 53.3587 40.8517C53.539 40.2659 53.6291 39.2971 53.6291 37.9453V6.78596C53.6291 5.47921 53.4939 4.51041 53.2236 3.87956C52.9983 3.20365 52.5026 2.75305 51.7365 2.52775C51.0156 2.25738 49.86 2.25738 48.373 2.25738C48.2378 2.25738 48.1703 2.1222 48.1703 1.85184C48.1703 1.58148 48.2378 1.4463 48.373 1.4463C49.4094 1.4463 51.8041 1.4463 51.8041 1.4463H55.882H60.1854C60.1854 1.4463 61.3246 1.4463 62.406 1.4463C62.5412 1.4463 62.6088 1.58148 62.6088 1.85184C62.6088 2.1222 62.5412 2.25738 62.406 2.25738C61.0405 2.25738 60.5763 2.25738 59.9057 2.52775C59.2351 2.79811 58.6759 3.20365 58.3604 3.87956C58.0901 4.51041 57.9549 5.47921 57.9549 6.78596V38.0805C57.9549 39.3872 58.0901 40.3785 58.3604 41.0544C58.6759 41.7304 59.2616 42.181 60.1178 42.4063C60.9739 42.6316 60.7388 42.7442 62.406 42.7442C62.5412 42.7442 62.6088 42.8794 62.6088 43.1498C62.6088 43.4201 62.5412 43.5553 62.406 43.5553H0.647902Z" fill="#D0AE6F"/>
<path d="M0.0126953 43.1494C0.0127116 42.9997 0.0237153 42.8332 0.0722656 42.6875C0.116567 42.5546 0.270576 42.2444 0.647461 42.2441C1.48216 42.2441 1.79146 42.2143 1.98926 42.1709C2.08617 42.1496 2.16402 42.1242 2.29102 42.0811C2.41848 42.0378 2.57749 41.9837 2.80859 41.9229C3.54862 41.7281 3.96347 41.3656 4.16211 40.8691L4.16699 40.8555L4.17285 40.8428C4.44223 40.2654 4.59863 39.3606 4.59863 38.0801V6.78614C4.59863 5.50183 4.44099 4.62828 4.17871 4.10352L4.16895 4.08497L4.16211 4.06544C3.9635 3.56891 3.54871 3.20649 2.80859 3.01173L2.79688 3.00782L2.78516 3.00489C2.34633 2.86631 2.24628 2.83654 2.05762 2.82423C1.81855 2.80866 1.50331 2.8252 0.634766 2.8252C0.258036 2.82501 0.103953 2.51483 0.0595703 2.38184C0.0109838 2.23608 0 2.06873 0 1.91895C2.15379e-05 1.7693 0.0110319 1.60265 0.0595703 1.45704C0.103919 1.32409 0.257963 1.01388 0.634766 1.01368L0.635181 1.51382C0.545061 1.51382 0.5 1.64901 0.5 1.91937C0.5 2.15591 0.534533 2.28878 0.603516 2.31837L0.635181 2.32491C2.30242 2.32491 2.08 2.25738 2.93615 2.52775C3.7923 2.75305 4.35555 3.20365 4.62591 3.87956C4.94134 4.51041 5.09905 5.47921 5.09905 6.78596V38.0805C5.09905 39.3872 4.94134 40.3785 4.62591 41.0544L4.57129 41.1787C4.28351 41.7857 3.73843 42.195 2.93615 42.4063L2.66016 42.4854C2.10896 42.6578 2.10661 42.7442 0.647902 42.7442C0.557781 42.7442 0.51272 42.8794 0.51272 43.1498L0.521484 43.3272C0.535566 43.4539 0.566931 43.5277 0.616211 43.5488L0.647902 43.5553H62.406L62.4531 43.5488C62.5569 43.5195 62.6088 43.3866 62.6088 43.1498C62.6088 42.9132 62.5568 42.7804 62.4531 42.751L62.406 42.7442C60.9472 42.7442 60.9449 42.6579 60.3936 42.4854L60.1178 42.4063C59.2616 42.181 58.6759 41.7304 58.3604 41.0544C58.1239 40.463 57.9905 39.6301 57.9609 38.5557L57.9549 38.0805V6.78596C57.9549 5.47921 58.0901 4.51041 58.3604 3.87956C58.6759 3.20365 59.2351 2.79811 59.9057 2.52775C60.4085 2.32501 60.7954 2.27441 61.5332 2.26173L62.406 2.25738C62.5412 2.25738 62.6088 2.1222 62.6088 1.85184C62.6088 1.61525 62.5568 1.48253 62.4531 1.45313L62.406 1.4463L62.4062 0.946297C62.5275 0.946334 62.6562 0.978155 62.7725 1.05567C62.8855 1.13111 62.9584 1.23121 63.0049 1.32423C63.0909 1.49619 63.1084 1.69091 63.1084 1.85157C63.1084 2.01229 63.0909 2.20782 63.0049 2.37989C62.9583 2.47287 62.8855 2.57308 62.7725 2.64845C62.6562 2.72596 62.5275 2.75778 62.4062 2.75782C61.019 2.75782 60.657 2.7638 60.0928 2.99122C59.4979 3.23106 59.0625 3.56355 58.8174 4.08204C58.5896 4.61753 58.4551 5.50144 58.4551 6.78614V38.0801C58.4551 39.3524 58.5869 40.2627 58.8174 40.8506C59.0589 41.3623 59.5066 41.7285 60.2451 41.9229C60.4763 41.9837 60.6352 42.0378 60.7627 42.0811C60.89 42.1243 60.9683 42.1496 61.0654 42.1709C61.2632 42.2143 61.5721 42.2441 62.4062 42.2441C62.5275 42.2442 62.6562 42.276 62.7725 42.3535C62.8855 42.429 62.9584 42.5291 63.0049 42.6221C63.0909 42.794 63.1084 42.9888 63.1084 43.1494C63.1084 43.3101 63.0909 43.5057 63.0049 43.6777C62.9583 43.7707 62.8855 43.8709 62.7725 43.9463C62.6562 44.0238 62.5275 44.0556 62.4062 44.0557H0.647461C0.270836 44.0555 0.116687 43.7453 0.0722656 43.6123C0.023679 43.4666 0.0126953 43.2992 0.0126953 43.1494ZM23.7539 41.6357L23.7541 42.1359H14.6969L14.6973 41.6357H23.7539ZM28.8643 37.9453V6.78614C28.8643 5.49696 28.7283 4.6111 28.499 4.07618L28.4912 4.05763L28.4844 4.03809C28.3177 3.53807 27.9611 3.19343 27.3301 3.00782L27.3125 3.00196L27.2959 2.9961C26.889 2.84352 26.8816 2.83245 26.7764 2.82325C26.7086 2.81733 26.613 2.81619 26.418 2.81837C26.2305 2.82046 25.9681 2.8252 25.5928 2.8252C25.4716 2.82515 25.3428 2.79333 25.2266 2.71583C25.1136 2.64042 25.0407 2.54027 24.9941 2.44727C24.9082 2.27537 24.8907 2.08056 24.8906 1.91993C24.8906 1.75921 24.9081 1.56368 24.9941 1.39161C25.0407 1.29862 25.1136 1.19845 25.2266 1.12305C25.3428 1.04556 25.4716 1.01373 25.5928 1.01368L25.5931 1.51389C25.4579 1.51389 25.3903 1.64907 25.3903 1.91943L25.4033 2.09669C25.4245 2.22365 25.4718 2.29733 25.5459 2.31837L25.5931 2.32497C27.0801 2.32497 26.7506 2.25738 27.4715 2.52775C28.2376 2.75305 28.7332 3.20365 28.9585 3.87956C29.2289 4.51041 29.3641 5.47921 29.3641 6.78596V37.9453L29.3594 38.4346C29.3397 39.5334 29.2514 40.3392 29.0937 40.8517L29.0566 40.959C28.8533 41.4817 28.3924 41.8064 27.6743 41.9331L27.3613 41.9805C26.5728 42.0839 25.3704 42.1359 23.7541 42.1359L23.7539 41.6357C25.6006 41.6357 26.8682 41.5672 27.5869 41.4404C28.2269 41.3275 28.5067 41.0605 28.6162 40.7051C28.7727 40.1965 28.8643 39.2925 28.8643 37.9453ZM48.0195 41.6357L48.0191 42.1359H39.8406L39.8408 41.6357H48.0195ZM53.1289 37.9453V6.78614C53.1289 5.49696 52.9929 4.6111 52.7637 4.07618L52.7559 4.05763L52.749 4.03809C52.5824 3.53816 52.2266 3.19345 51.5957 3.00782L51.5605 2.9961C51.2721 2.88801 50.8642 2.82307 50.3125 2.79005C49.7657 2.75733 49.1212 2.75782 48.373 2.75782C48.2518 2.75782 48.1232 2.72597 48.0068 2.64845C47.8937 2.57299 47.82 2.47298 47.7734 2.37989C47.6874 2.20782 47.6699 2.01229 47.6699 1.85157C47.6699 1.69098 47.6875 1.49614 47.7734 1.32423C47.82 1.23114 47.8937 1.13114 48.0068 1.05567C48.1232 0.978109 48.2518 0.946297 48.373 0.946297L48.373 1.4463L48.3252 1.45313C48.222 1.48292 48.1703 1.61577 48.1703 1.85184C48.1703 2.1222 48.2378 2.25738 48.373 2.25738C49.86 2.25738 51.0156 2.25738 51.7365 2.52775C52.5026 2.75305 52.9983 3.20365 53.2236 3.87956C53.4939 4.51041 53.6291 5.47921 53.6291 6.78596V37.9453L53.625 38.4346C53.6053 39.5335 53.5164 40.3392 53.3587 40.8517C53.2235 41.4375 52.7729 41.7979 52.0069 41.9331L51.6934 41.9805C50.9 42.084 49.6749 42.1359 48.0191 42.1359L48.0195 41.6357C49.9122 41.6357 51.2017 41.5672 51.9199 41.4404C52.248 41.3825 52.4664 41.2838 52.6074 41.1709C52.7407 41.0642 52.8277 40.9272 52.8711 40.7393L52.876 40.7217L52.8809 40.7051C53.0373 40.1965 53.1289 39.2925 53.1289 37.9453ZM33.6899 38.0805V6.78596C33.6899 5.64253 33.793 4.75776 34 4.13184L34.0954 3.87956C34.3319 3.28825 34.7581 2.8695 35.374 2.62305L35.65 2.52775C36.2239 2.32516 36.16 2.31204 36.7188 2.31837L37.5327 2.32497C37.6003 2.32497 37.6423 2.24888 37.6592 2.09669L37.6679 1.91943C37.6679 1.64907 37.6228 1.51389 37.5327 1.51389L37.5322 1.01368C37.9093 1.01368 38.064 1.32404 38.1084 1.45704C38.157 1.6028 38.168 1.77016 38.168 1.91993C38.1679 2.06958 38.1569 2.23624 38.1084 2.38184C38.064 2.51482 37.9093 2.8252 37.5322 2.8252C37.1571 2.8252 36.8972 2.82046 36.7129 2.81837C36.5211 2.8162 36.43 2.81746 36.3652 2.82325C36.2587 2.83279 36.2524 2.84515 35.8164 2.99903L35.8037 3.00391L35.791 3.00782C35.1558 3.19467 34.7669 3.547 34.5596 4.06544L34.5547 4.07618C34.3254 4.6111 34.1895 5.49696 34.1895 6.78614V38.0801C34.1895 39.3452 34.3667 40.1685 34.6445 40.6357C34.9521 41.0354 35.4442 41.3189 36.1963 41.4385C37.0615 41.5683 38.2734 41.6357 39.8408 41.6357L39.8406 42.1359L38.7207 42.1231C37.8406 42.1019 37.0926 42.0544 36.4766 41.9805L36.1231 41.9331C35.267 41.7979 34.6361 41.46 34.2306 40.9193C33.8701 40.3335 33.6899 39.3872 33.6899 38.0805ZM9.42485 37.9453V6.78596C9.42485 5.47921 9.5375 4.51041 9.7628 3.87956C9.99939 3.28809 10.4086 2.86947 10.9902 2.62305L11.2498 2.52775C11.8239 2.32512 11.774 2.31204 12.3398 2.31837L13.1578 2.32497C13.259 2.32476 13.3224 2.24866 13.3477 2.09669L13.3606 1.91943C13.3606 1.68276 13.3087 1.55001 13.2051 1.52052L13.1578 1.51389L13.1582 1.01368C13.2792 1.01375 13.4073 1.04576 13.5234 1.12305C13.6366 1.19849 13.7103 1.29855 13.7568 1.39161C13.8429 1.56368 13.8604 1.75921 13.8604 1.91993C13.8603 2.08056 13.8428 2.27537 13.7568 2.44727C13.7103 2.54035 13.6366 2.64039 13.5234 2.71583C13.4073 2.79313 13.2792 2.82513 13.1582 2.8252C12.7828 2.8252 12.5207 2.82046 12.334 2.81837C12.1404 2.8162 12.0455 2.8173 11.9766 2.82325C11.8635 2.83303 11.8452 2.84755 11.416 2.99903L11.3984 3.00489C10.8185 3.18623 10.4432 3.53079 10.2305 4.05567C10.0368 4.60349 9.9248 5.49923 9.9248 6.78614V37.9453C9.92481 39.3395 10.0166 40.2647 10.1729 40.7725C10.2862 41.1406 10.5554 41.397 11.1318 41.5068C11.8223 41.5909 13.0043 41.6357 14.6973 41.6357L14.6969 42.1359L13.5059 42.127C12.4074 42.1101 11.5878 42.0683 11.047 42.0007C10.3711 41.874 9.93308 41.5491 9.73242 41.0264L9.69521 40.9193C9.53755 40.4067 9.44843 39.5835 9.42871 38.4502L9.42485 37.9453ZM26.3203 1.01368L26.3207 1.51389H25.5931L25.5928 1.01368H26.3203ZM28.959 1.01368L28.9585 1.51389H26.3207L26.3203 1.01368H28.959ZM31.5947 1.01368L31.5946 1.51389H28.9585L28.959 1.01368H31.5947ZM35.54 1.01368C35.5401 1.01368 35.54 1.01553 35.54 1.51389H31.5946L31.5947 1.01368H35.54ZM37.5322 1.01368L37.5327 1.51389H35.54V1.01368H37.5322ZM2.81641 1.01368C2.81641 1.01368 2.81641 1.01513 2.81639 1.51389L0.635181 1.51382L0.634766 1.01368H2.81641ZM7.12695 1.01368L7.12677 1.51389H2.81639C2.81641 1.01513 2.81641 1.01368 2.81641 1.01368H7.12695ZM11.25 1.01368L11.2498 1.51389H7.12677L7.12695 1.01368H11.25ZM13.1582 1.01368L13.1578 1.51389H11.2498L11.25 1.01368H13.1582ZM51.8037 0.946297C51.8037 0.946297 51.8041 0.946329 51.8041 1.4463H48.373L48.373 0.946297H51.8037ZM55.8818 0.946297L55.882 1.4463H51.8041C51.8041 0.946329 51.8037 0.946297 51.8037 0.946297H55.8818ZM60.1855 0.946297L60.1854 1.4463H55.882L55.8818 0.946297H60.1855ZM62.4062 0.946297L62.406 1.4463H60.1854L60.1855 0.946297H62.4062Z" fill="#D0AE6F"/>
<path fill-rule="evenodd" clip-rule="evenodd" d="M95.5134 19.7476C95.4785 19.7069 95.4447 19.6652 95.4118 19.6227C95.3428 19.5661 95.2547 19.5321 95.1588 19.5321C94.9371 19.5321 94.7575 19.7134 94.7575 19.937V23.1722C94.7575 23.3959 94.9371 23.5771 95.1588 23.5771C95.2545 23.5771 95.3426 23.5431 95.4116 23.4866C95.4445 23.4439 95.4787 23.4022 95.5138 23.3612C96.0899 22.6897 96.9446 22.2643 97.8988 22.2643H116.823H117.831V20.8448H116.749H97.8988C96.9445 20.8448 96.0895 20.4193 95.5134 19.7476Z" fill="#D0AE6F"/>
<path d="M95.3171 19.0458C95.4202 19.0642 95.5175 19.1001 95.6052 19.1503L95.7292 19.2362L95.7722 19.2723L95.8073 19.3163C95.8355 19.3527 95.8632 19.3888 95.8923 19.4227L95.8933 19.4217C96.3784 19.9874 97.0968 20.3446 97.8991 20.3446H118.331V22.7645H97.8991C97.0971 22.7645 96.3784 23.121 95.8933 23.6864C95.8631 23.7216 95.8343 23.7569 95.8073 23.7919L95.7731 23.8368L95.7282 23.8739C95.5738 24.0002 95.3749 24.077 95.1589 24.077C94.6568 24.077 94.2575 23.6672 94.2575 23.1717V19.9374C94.2575 19.4419 94.6568 19.0321 95.1589 19.0321L95.3171 19.0458ZM95.1588 19.5321C94.9371 19.5321 94.7575 19.7134 94.7575 19.937V23.1722C94.7575 23.3959 94.9371 23.5771 95.1588 23.5771C95.2545 23.5771 95.3426 23.5431 95.4116 23.4866C95.4445 23.4439 95.4787 23.4022 95.5138 23.3612C96.0899 22.6897 96.9446 22.2643 97.8988 22.2643H117.831V20.8448H97.8988C96.9445 20.8448 96.0895 20.4193 95.5134 19.7476C95.4785 19.7069 95.4447 19.6652 95.4118 19.6227C95.3428 19.5661 95.2547 19.5321 95.1588 19.5321Z" fill="#D0AE6F"/>
</svg>
