<svg width="319" height="213" viewBox="0 0 319 213" fill="none" xmlns="http://www.w3.org/2000/svg">
<path d="M282.734 190.596L284.261 189.177H305.224L305.936 190.596H282.734ZM317.982 202.744C318.162 202.744 318.252 202.879 318.252 203.15C318.252 203.42 318.162 203.555 317.982 203.555C316.675 203.555 315.512 203.555 315.512 203.555H307.88C307.88 203.555 307.232 203.555 305.971 203.555C305.79 203.555 305.7 203.42 305.7 203.15C305.7 202.879 305.79 202.744 305.971 202.744C308.359 202.744 308.349 202.406 308.935 201.73C309.521 201.009 309.363 199.68 308.462 197.742L293.457 166.042L295.146 163.947L282.034 194.971C280.907 197.72 280.84 199.703 281.831 200.919C282.822 202.136 283.286 202.744 286.214 202.744C286.44 202.744 286.552 202.879 286.552 203.15C286.552 203.42 286.44 203.555 286.214 203.555C284.863 203.555 284.019 203.555 284.019 203.555H275.791C275.791 203.555 275.194 203.555 273.797 203.555C273.617 203.555 273.527 203.42 273.527 203.15C273.527 202.879 273.617 202.744 273.797 202.744C275.014 202.744 275.592 202.691 276.26 201.953C276.929 201.216 277.212 200.739 277.978 199.567C278.789 198.351 279.668 196.616 280.614 194.363L294.876 160.703C294.966 160.568 295.124 160.5 295.349 160.5C295.574 160.5 295.71 160.568 295.755 160.703L311.706 194.295C312.742 196.503 313.666 198.238 314.477 199.5C315.194 200.765 315.489 201.584 316.111 202.002C316.732 202.42 317.036 202.744 317.982 202.744Z" fill="#04203F"/>
<path d="M318.252 203.15C318.252 202.913 318.183 202.781 318.046 202.751L317.982 202.744C317.272 202.744 316.924 202.562 316.532 202.295L316.111 202.002C315.644 201.688 315.361 201.15 314.947 200.366L314.477 199.5C313.666 198.238 312.742 196.503 311.706 194.295L295.755 160.703C295.721 160.601 295.636 160.538 295.501 160.513L295.349 160.5C295.124 160.5 294.966 160.568 294.876 160.703L280.614 194.363L280.262 195.184C279.449 197.042 278.688 198.503 277.978 199.567C277.212 200.739 276.929 201.216 276.26 201.953L276.135 202.084C275.517 202.697 274.938 202.744 273.797 202.744C273.617 202.744 273.527 202.879 273.527 203.15C273.527 203.386 273.596 203.519 273.734 203.549L273.797 203.555H286.214L286.294 203.549C286.441 203.523 286.526 203.422 286.548 203.245L286.552 203.15C286.552 202.913 286.466 202.781 286.294 202.751L286.214 202.744C283.286 202.744 282.822 202.136 281.831 200.919C280.84 199.703 280.907 197.72 282.034 194.971L283.884 190.596H305.079L308.462 197.742C309.363 199.68 309.521 201.009 308.935 201.73L308.737 201.968C308.314 202.485 308.06 202.744 305.971 202.744C305.79 202.744 305.7 202.879 305.7 203.15C305.7 203.386 305.769 203.519 305.907 203.549L305.971 203.555H317.982L318.046 203.549C318.164 203.523 318.231 203.422 318.248 203.245L318.252 203.15ZM304.407 189.177H284.483L293.882 166.939L304.407 189.177ZM285.237 188.677H303.617L293.907 168.163L285.237 188.677ZM318.753 203.149C318.753 203.324 318.727 203.544 318.601 203.731C318.452 203.955 318.218 204.056 317.982 204.056H305.97C305.735 204.056 305.501 203.955 305.352 203.731C305.227 203.544 305.2 203.324 305.2 203.149C305.2 202.975 305.227 202.756 305.352 202.568C305.501 202.345 305.735 202.244 305.97 202.244C307.169 202.244 307.662 202.155 307.921 202.036C308.158 201.927 308.201 201.815 308.547 201.415L308.609 201.327C308.746 201.106 308.821 200.768 308.76 200.252C308.69 199.662 308.449 198.901 308.01 197.956L304.762 191.096H284.215L282.494 195.166C281.378 197.891 281.418 199.621 282.219 200.604C282.728 201.228 283.027 201.593 283.52 201.841C284.019 202.091 284.771 202.244 286.215 202.244C286.431 202.244 286.676 202.313 286.852 202.525C287.014 202.72 287.052 202.957 287.052 203.149C287.052 203.342 287.015 203.58 286.852 203.774C286.676 203.986 286.431 204.056 286.215 204.056H273.798C273.562 204.056 273.328 203.955 273.178 203.731C273.053 203.544 273.027 203.324 273.027 203.149C273.027 202.975 273.053 202.756 273.178 202.568C273.328 202.345 273.562 202.244 273.798 202.244L274.219 202.24C274.601 202.232 274.872 202.207 275.1 202.144C275.374 202.068 275.608 201.929 275.89 201.617C276.526 200.916 276.785 200.478 277.559 199.294L277.562 199.29C278.348 198.112 279.212 196.409 280.153 194.169L280.154 194.168L294.416 160.508L294.434 160.465L294.46 160.426C294.676 160.102 295.028 160 295.349 160C295.633 160 296.048 160.089 296.212 160.5L312.158 194.081L312.159 194.083C313.062 196.007 313.874 197.559 314.594 198.744L314.898 199.229L314.905 199.241L314.912 199.254C315.095 199.577 315.251 199.871 315.389 200.132C315.529 200.396 315.647 200.62 315.761 200.817C315.992 201.214 316.175 201.443 316.389 201.587C316.745 201.826 316.913 201.968 317.144 202.081C317.338 202.176 317.574 202.244 317.982 202.244C318.218 202.244 318.452 202.345 318.601 202.568C318.726 202.756 318.753 202.975 318.753 203.149Z" fill="#04203F"/>
<path d="M259.7 202.744C260.106 202.744 260.331 202.789 260.376 202.879C260.466 202.924 260.511 203.15 260.511 203.555C260.511 204.186 260.511 205.583 260.511 205.583V211.762C260.511 211.942 260.376 212.033 260.106 212.033C259.835 212.033 259.7 211.942 259.7 211.762C259.7 207.932 258.236 206.61 256.523 204.762C254.856 202.96 252.085 203.555 248.21 203.555H227.054C225.297 203.555 223.719 203.871 222.323 204.502C220.971 205.177 220.624 205.298 219.146 206.452C217.668 207.605 217.253 208.898 217.253 211.782C217.253 211.962 217.118 212.052 216.848 212.052C216.577 212.052 216.442 211.962 216.442 211.782L216.442 205.201C216.442 205.201 216.442 204.073 216.442 203.488C216.442 203.127 216.465 202.902 216.51 202.812C216.6 202.722 216.803 202.677 217.118 202.677C219.056 202.677 220.768 202.046 222.255 200.784C223.787 199.477 225.139 197.765 226.31 195.647C227.527 193.529 228.563 191.186 229.42 188.618C230.321 186.049 231.042 183.458 231.582 180.845C232.123 178.186 232.529 175.708 232.799 173.41C233.069 171.067 233.205 169.107 233.205 167.529C233.205 166.448 233.069 165.502 232.799 164.691C232.529 163.88 232.212 163.044 231.221 162.593C230.274 162.143 229.925 162.122 227.807 162.122C227.717 162.122 227.672 161.987 227.672 161.717C227.672 161.446 227.717 161.311 227.807 161.311C228.078 161.311 228.821 161.311 230.038 161.311C231.299 161.311 231.38 161.311 233.272 161.311C235.165 161.311 237.192 161.311 239.355 161.311C241.563 161.311 243.749 161.311 245.912 161.311C248.075 161.311 250.08 161.311 251.927 161.311C253.775 161.311 253.787 161.311 254.959 161.311C256.131 161.311 256.806 161.311 256.987 161.311C257.077 161.311 257.122 161.446 257.122 161.717C257.122 161.987 257.077 162.122 256.987 162.122C255.319 162.122 254.842 162.122 254.292 162.437C253.742 162.751 253.279 163.204 253.009 163.88C252.738 164.51 252.603 165.479 252.603 166.786V198.08C252.603 199.207 252.626 200.108 252.671 200.784C252.761 201.415 253.009 201.865 253.414 202.136C253.82 202.406 254.496 202.586 255.442 202.677C256.433 202.722 257.853 202.744 259.7 202.744ZM248.21 197.945V166.921C248.21 165.524 248.12 164.555 247.939 164.015C247.804 163.429 247.376 163.091 246.655 163.001C245.934 162.866 244.695 162.798 242.938 162.798H239.626C238.319 162.798 237.373 163.001 236.787 163.406C236.201 163.812 235.818 164.578 235.638 165.704C235.458 166.831 235.277 168.498 235.097 170.706C235.007 171.517 234.849 172.756 234.624 174.424C234.399 176.091 234.061 177.983 233.61 180.101C233.205 182.219 232.686 184.45 232.056 186.793C231.425 189.091 230.681 191.321 229.825 193.484C228.969 195.647 227.978 197.562 226.851 199.229C225.725 200.852 224.44 202.091 222.998 202.947V202.068H242.6C244.447 202.068 245.754 202.001 246.52 201.865C247.331 201.73 247.804 201.392 247.939 200.852C248.12 200.266 248.21 199.297 248.21 197.945Z" fill="#04203F"/>
<path d="M259.707 211.826C259.732 211.944 259.833 212.011 260.01 212.028L260.106 212.033C260.342 212.032 260.475 211.963 260.505 211.826L260.511 211.762V203.555C260.511 203.15 260.466 202.924 260.376 202.879C260.331 202.789 260.106 202.744 259.7 202.744C258.314 202.744 257.169 202.732 256.265 202.707L255.442 202.677C254.614 202.598 253.993 202.45 253.579 202.233L253.414 202.136C253.009 201.865 252.761 201.415 252.671 200.784C252.637 200.277 252.616 199.643 252.607 198.883L252.603 198.08V166.786C252.603 165.479 252.738 164.51 253.009 163.88C253.279 163.204 253.742 162.751 254.292 162.437C254.704 162.201 255.076 162.142 255.939 162.127L256.987 162.122C257.077 162.122 257.122 161.987 257.122 161.717C257.122 161.48 257.087 161.346 257.018 161.317L256.987 161.311L256.987 160.811C257.364 160.811 257.518 161.122 257.562 161.254C257.611 161.4 257.622 161.567 257.622 161.716C257.622 161.866 257.611 162.033 257.562 162.179C257.518 162.312 257.364 162.622 256.987 162.623C255.263 162.623 254.947 162.638 254.54 162.871C254.07 163.139 253.695 163.512 253.473 164.065L253.468 164.077C253.239 164.612 253.103 165.497 253.103 166.786V198.081C253.103 199.189 253.125 200.07 253.168 200.728C253.246 201.255 253.44 201.553 253.691 201.72C253.988 201.918 254.555 202.088 255.474 202.177C256.454 202.222 257.861 202.244 259.7 202.244C259.915 202.244 260.111 202.256 260.271 202.288C260.351 202.304 260.444 202.328 260.532 202.373C260.589 202.401 260.666 202.451 260.734 202.528C260.807 202.595 260.855 202.667 260.883 202.723C260.927 202.812 260.952 202.904 260.967 202.984C261 203.144 261.011 203.34 261.011 203.555V211.762C261.011 211.998 260.911 212.232 260.687 212.381C260.5 212.506 260.281 212.533 260.106 212.533C259.931 212.533 259.712 212.507 259.524 212.381C259.3 212.232 259.2 211.998 259.2 211.762C259.2 209.917 258.849 208.716 258.317 207.762C257.774 206.788 257.033 206.047 256.157 205.102L256.156 205.101C255.452 204.341 254.501 204.056 253.167 203.982C252.499 203.945 251.757 203.962 250.926 203.99C250.1 204.017 249.189 204.055 248.21 204.055H227.053C225.357 204.055 223.851 204.36 222.528 204.958C221.199 205.622 220.885 205.729 219.454 206.846C218.778 207.374 218.37 207.91 218.118 208.632C217.858 209.378 217.754 210.353 217.754 211.782C217.754 212.017 217.653 212.251 217.429 212.4C217.242 212.525 217.022 212.552 216.847 212.552C216.672 212.552 216.454 212.525 216.266 212.4C216.043 212.251 215.942 212.017 215.942 211.782V203.488C215.942 203.299 215.948 203.134 215.962 202.999C215.973 202.882 215.995 202.722 216.062 202.588L216.098 202.515L216.156 202.459C216.298 202.316 216.479 202.254 216.621 202.222C216.771 202.189 216.94 202.176 217.118 202.176C218.936 202.176 220.534 201.588 221.931 200.403C223.409 199.142 224.725 197.48 225.873 195.405L225.877 195.398C227.075 193.312 228.098 191 228.945 188.46L228.948 188.452C229.842 185.904 230.556 183.335 231.093 180.744C231.631 178.097 232.034 175.633 232.302 173.351C232.571 171.019 232.705 169.081 232.705 167.53C232.705 166.489 232.574 165.598 232.325 164.849C232.055 164.041 231.792 163.402 231.013 163.048L231.006 163.044C230.56 162.832 230.288 162.736 229.888 162.684C229.458 162.628 228.878 162.623 227.807 162.623C227.43 162.623 227.276 162.312 227.231 162.179C227.183 162.033 227.172 161.866 227.172 161.716C227.172 161.567 227.183 161.4 227.231 161.254C227.275 161.122 227.43 160.811 227.807 160.811L227.807 161.311L227.775 161.317C227.706 161.347 227.672 161.48 227.672 161.717C227.672 161.987 227.717 162.122 227.807 162.122C229.925 162.122 230.274 162.143 231.221 162.593C232.212 163.044 232.529 163.88 232.799 164.691C233.069 165.502 233.205 166.448 233.205 167.529L233.198 168.139C233.168 169.603 233.036 171.36 232.799 173.41C232.529 175.708 232.123 178.186 231.582 180.845C231.042 183.458 230.321 186.049 229.42 188.618L229.09 189.57C228.301 191.768 227.375 193.794 226.31 195.647C225.139 197.765 223.787 199.477 222.255 200.784C220.768 202.046 219.056 202.677 217.118 202.677C216.803 202.677 216.6 202.722 216.51 202.812L216.48 202.905C216.455 203.023 216.442 203.217 216.442 203.488V211.782C216.442 211.939 216.546 212.028 216.753 212.047L216.848 212.052C217.084 212.052 217.217 211.983 217.247 211.845L217.253 211.782C217.253 209.078 217.618 207.773 218.881 206.67L219.146 206.452C220.624 205.298 220.971 205.177 222.323 204.502C223.719 203.871 225.297 203.555 227.054 203.555H248.21C252.085 203.555 254.856 202.96 256.523 204.762C258.236 206.61 259.7 207.932 259.7 211.762L259.707 211.826ZM247.71 197.945V166.921C247.71 165.523 247.616 164.628 247.465 164.172L247.458 164.15L247.452 164.127C247.407 163.933 247.322 163.806 247.207 163.714C247.084 163.618 246.892 163.534 246.593 163.497L246.578 163.495L246.563 163.493C245.893 163.367 244.694 163.298 242.937 163.298H239.626C238.347 163.298 237.529 163.501 237.072 163.818C236.65 164.11 236.303 164.713 236.132 165.784C235.954 166.891 235.775 168.542 235.595 170.747L235.594 170.754V170.761C235.504 171.579 235.345 172.823 235.12 174.491C234.892 176.173 234.552 178.079 234.099 180.206C233.692 182.334 233.171 184.573 232.539 186.922L232.538 186.925C231.902 189.24 231.153 191.488 230.29 193.669C229.422 195.86 228.415 197.808 227.265 199.509L227.261 199.514C226.731 200.279 226.163 200.963 225.558 201.568H242.599L242.6 202.068L224.259 202.068C225.115 201.376 225.909 200.53 226.638 199.529L226.851 199.229C227.978 197.562 228.969 195.647 229.825 193.484C230.681 191.321 231.425 189.091 232.056 186.793C232.686 184.45 233.205 182.219 233.61 180.101C234.061 177.983 234.399 176.091 234.624 174.424C234.737 173.59 234.832 172.863 234.911 172.244L235.097 170.706C235.232 169.05 235.368 167.699 235.503 166.651L235.638 165.704C235.807 164.648 236.154 163.909 236.679 163.487L236.787 163.406C237.3 163.051 238.088 162.851 239.153 162.807L239.626 162.798H242.938C244.695 162.798 245.934 162.866 246.655 163.001C247.376 163.091 247.804 163.429 247.939 164.015C248.12 164.555 248.21 165.524 248.21 166.921V197.945C248.21 199.297 248.12 200.266 247.939 200.852L247.91 200.951C247.744 201.434 247.28 201.739 246.52 201.865L246.208 201.913C245.419 202.016 244.217 202.068 242.6 202.068L242.599 201.568C244.446 201.568 245.715 201.499 246.433 201.373H246.438C247.16 201.252 247.389 200.99 247.454 200.73L247.462 200.705C247.618 200.196 247.71 199.292 247.71 197.945ZM230.038 160.811L230.038 161.311H227.807L227.807 160.811H230.038ZM233.272 160.811L233.272 161.311H230.038L230.038 160.811H233.272ZM239.355 160.811L239.355 161.311H233.272L233.272 160.811H239.355ZM245.912 160.811L245.912 161.311H239.355L239.355 160.811H245.912ZM251.927 160.811L251.927 161.311H245.912L245.912 160.811H251.927ZM254.959 160.811L254.959 161.311C253.787 161.311 253.775 161.311 251.927 161.311L251.927 160.811H254.959ZM256.987 160.811L256.987 161.311H254.959L254.959 160.811H256.987Z" fill="#04203F"/>
<path d="M183.727 166.921C183.727 165.614 183.592 164.623 183.322 163.947C183.052 163.271 182.488 162.798 181.632 162.528C180.821 162.257 181.059 162.325 179.302 162.325C179.167 162.325 179.099 162.19 179.099 161.919C179.099 161.649 179.167 161.514 179.302 161.514C180.383 161.514 181.467 161.514 181.467 161.514L185.958 161.514L190.314 161.514C190.314 161.514 191.385 161.514 192.422 161.514C192.557 161.514 192.624 161.649 192.624 161.919C192.624 162.19 192.557 162.325 192.422 162.325C190.754 162.325 191.005 162.257 190.149 162.528C189.292 162.753 188.729 163.204 188.459 163.879C188.188 164.51 188.053 165.479 188.053 166.786V198.08C188.053 199.387 188.188 200.378 188.459 201.054C188.729 201.73 189.292 202.181 190.149 202.406C191.005 202.631 190.753 202.609 192.42 202.609C192.556 202.609 192.623 202.744 192.623 203.014C192.623 203.285 192.556 203.42 192.42 203.42C191.384 203.42 190.315 203.42 190.315 203.42H181.421C181.421 203.42 180.369 203.42 179.288 203.42C179.152 203.42 179.085 203.285 179.085 203.014C179.085 202.744 179.152 202.609 179.288 202.609C181.045 202.609 180.821 202.631 181.632 202.406C182.488 202.181 183.052 201.73 183.322 201.054C183.592 200.378 183.727 199.387 183.727 198.08V166.921ZM155.407 182.264V180.845H185.62V182.264H155.407ZM153.447 198.08V166.786C153.447 165.479 153.289 164.51 152.974 163.879C152.703 163.204 152.14 162.753 151.284 162.528C150.473 162.257 150.716 162.325 149.049 162.325C148.959 162.325 148.914 162.19 148.914 161.919C148.914 161.649 148.959 161.514 149.049 161.514C150.13 161.514 151.22 161.514 151.22 161.514H155.542H160.094C160.094 161.514 161.157 161.514 162.238 161.514C162.328 161.514 162.373 161.649 162.373 161.919C162.373 162.19 162.328 162.325 162.238 162.325C160.571 162.325 160.619 162.325 159.936 162.528C159.253 162.73 158.494 163.271 158.178 163.947C157.908 164.623 157.773 165.614 157.773 166.921V198.08C157.773 199.387 157.908 200.378 158.178 201.054C158.449 201.73 159.012 202.181 159.868 202.406C160.769 202.631 160.568 202.609 162.235 202.609C162.325 202.609 162.37 202.744 162.37 203.014C162.37 203.285 162.325 203.42 162.235 203.42C161.109 203.42 159.995 203.42 159.995 203.42H151.219C151.219 203.42 150.077 203.42 148.996 203.42C148.906 203.42 148.861 203.285 148.861 203.014C148.861 202.744 148.906 202.609 148.996 202.609C150.663 202.609 150.428 202.631 151.284 202.406C152.14 202.181 152.703 201.73 152.974 201.054C153.289 200.378 153.447 199.387 153.447 198.08Z" fill="#04203F"/>
<path d="M148.361 203.015C148.361 202.865 148.372 202.698 148.42 202.552C148.465 202.419 148.619 202.109 148.995 202.109L148.996 202.609C148.906 202.609 148.861 202.744 148.861 203.014L148.869 203.192C148.883 203.318 148.915 203.392 148.964 203.413L148.996 203.42H162.235L162.267 203.413C162.316 203.392 162.348 203.319 162.362 203.192L162.37 203.014C162.37 202.778 162.336 202.645 162.267 202.615L162.235 202.609L162.236 202.109C162.612 202.109 162.766 202.419 162.811 202.552C162.859 202.698 162.87 202.865 162.87 203.015C162.87 203.164 162.859 203.331 162.811 203.477C162.766 203.61 162.612 203.92 162.236 203.92H148.995C148.618 203.92 148.464 203.61 148.42 203.477C148.372 203.331 148.361 203.164 148.361 203.015ZM178.585 203.015C178.585 202.854 178.603 202.659 178.689 202.486C178.735 202.393 178.808 202.293 178.921 202.218C179.037 202.14 179.166 202.109 179.287 202.109L179.288 202.609C179.152 202.609 179.085 202.744 179.085 203.014L179.098 203.192C179.119 203.319 179.166 203.392 179.24 203.413L179.288 203.42H192.42L192.468 203.413C192.542 203.392 192.589 203.318 192.611 203.192L192.623 203.014C192.623 202.744 192.556 202.609 192.42 202.609L192.42 202.109C192.541 202.109 192.67 202.14 192.786 202.218C192.899 202.293 192.973 202.393 193.02 202.486C193.106 202.659 193.123 202.854 193.123 203.015C193.123 203.175 193.106 203.37 193.02 203.542C192.973 203.635 192.9 203.735 192.786 203.811C192.67 203.888 192.541 203.92 192.42 203.92H179.287C179.166 203.92 179.037 203.888 178.921 203.811C178.808 203.735 178.735 203.635 178.689 203.542C178.603 203.37 178.585 203.175 178.585 203.015ZM188.053 198.08V166.786C188.053 165.643 188.157 164.758 188.363 164.132L188.459 163.879C188.695 163.288 189.156 162.87 189.841 162.623L190.149 162.528C190.791 162.325 190.81 162.312 191.484 162.318L192.422 162.325C192.557 162.325 192.624 162.19 192.624 161.919C192.624 161.683 192.572 161.55 192.469 161.521L192.422 161.514L192.422 161.014C192.543 161.014 192.671 161.046 192.787 161.123C192.901 161.199 192.974 161.299 193.021 161.392C193.107 161.564 193.124 161.758 193.124 161.919C193.124 162.08 193.107 162.275 193.021 162.447C192.974 162.54 192.9 162.641 192.787 162.716C192.671 162.793 192.543 162.825 192.422 162.825C191.553 162.825 191.245 162.808 191.014 162.823C190.833 162.835 190.742 162.864 190.299 163.004L190.287 163.008L190.276 163.011C189.536 163.206 189.122 163.569 188.923 164.066L188.918 164.076C188.689 164.611 188.553 165.497 188.553 166.786V198.08C188.553 199.366 188.688 200.281 188.923 200.868C189.122 201.365 189.536 201.728 190.276 201.923C190.732 202.043 190.826 202.076 191.025 202.094C191.248 202.114 191.565 202.109 192.42 202.109L192.42 202.609C191.17 202.609 190.999 202.622 190.63 202.533L190.149 202.406C189.346 202.195 188.801 201.786 188.513 201.179L188.459 201.054C188.188 200.378 188.053 199.387 188.053 198.08ZM183.228 198.08V182.764H158.273V198.08C158.273 199.366 158.408 200.281 158.643 200.868C158.841 201.364 159.253 201.726 159.989 201.921L160.491 202.045C160.609 202.071 160.696 202.085 160.806 202.094C161.049 202.114 161.382 202.109 162.236 202.109L162.235 202.609C160.568 202.609 160.769 202.631 159.868 202.406C159.066 202.195 158.52 201.786 158.233 201.179L158.178 201.054C157.908 200.378 157.773 199.387 157.773 198.08L157.773 182.264H183.728L183.727 198.08L183.721 198.556C183.691 199.63 183.558 200.463 183.322 201.054L183.268 201.179C182.98 201.786 182.435 202.195 181.632 202.406C180.821 202.631 181.045 202.609 179.288 202.609L179.287 202.109C180.187 202.109 180.535 202.114 180.773 202.094C180.979 202.076 181.069 202.043 181.498 201.924L181.505 201.923C182.245 201.728 182.659 201.365 182.858 200.868C183.092 200.281 183.228 199.366 183.228 198.08ZM152.946 198.08V166.786C152.946 165.502 152.789 164.627 152.527 164.103L152.517 164.084L152.51 164.066C152.311 163.569 151.897 163.206 151.156 163.011L151.141 163.007L151.126 163.002C150.705 162.862 150.626 162.835 150.453 162.823C150.226 162.808 149.918 162.825 149.049 162.825C148.672 162.825 148.517 162.515 148.473 162.382C148.424 162.236 148.413 162.069 148.413 161.919C148.413 161.769 148.424 161.603 148.473 161.457C148.517 161.324 148.672 161.014 149.049 161.014L149.049 161.514L149.017 161.52C148.948 161.549 148.914 161.683 148.914 161.919C148.914 162.155 148.948 162.289 149.017 162.318L149.049 162.325C150.716 162.325 150.473 162.257 151.284 162.528C152.14 162.753 152.703 163.204 152.974 163.879C153.289 164.51 153.447 165.479 153.447 166.786V198.08C153.447 199.387 153.289 200.378 152.974 201.054L152.919 201.179C152.631 201.786 152.086 202.195 151.284 202.406L150.8 202.533C150.427 202.622 150.246 202.609 148.996 202.609L148.995 202.109C149.85 202.109 150.173 202.114 150.401 202.094C150.603 202.076 150.703 202.042 151.156 201.923C151.897 201.728 152.311 201.365 152.51 200.868L152.515 200.856L152.521 200.843C152.79 200.266 152.946 199.361 152.946 198.08ZM157.773 166.921C157.773 165.614 157.908 164.623 158.178 163.947C158.454 163.356 159.07 162.868 159.677 162.619L159.936 162.528C160.448 162.376 160.549 162.338 161.271 162.328L162.238 162.325C162.328 162.325 162.373 162.19 162.373 161.919C162.373 161.683 162.339 161.549 162.27 161.52L162.238 161.514L162.238 161.014C162.615 161.014 162.769 161.324 162.814 161.457C162.862 161.603 162.873 161.769 162.873 161.919C162.873 162.069 162.862 162.236 162.814 162.382C162.769 162.515 162.615 162.825 162.238 162.825C161.392 162.825 161.016 162.825 160.763 162.848C160.539 162.868 160.427 162.904 160.078 163.007C159.502 163.178 158.885 163.633 158.639 164.142C158.406 164.729 158.273 165.642 158.273 166.921V180.345H183.228V166.921C183.228 165.636 183.092 164.72 182.858 164.133C182.656 163.628 182.231 163.241 181.482 163.004L181.474 163.002C181.056 162.863 180.975 162.835 180.789 162.823C180.548 162.808 180.214 162.825 179.302 162.825C179.181 162.825 179.052 162.793 178.936 162.716C178.823 162.64 178.749 162.54 178.702 162.447C178.616 162.275 178.599 162.08 178.599 161.919C178.599 161.759 178.616 161.564 178.702 161.392C178.749 161.299 178.823 161.199 178.936 161.123C179.052 161.046 179.181 161.014 179.302 161.014L179.302 161.514C179.167 161.514 179.099 161.649 179.099 161.919C179.099 162.156 179.151 162.289 179.254 162.318L179.302 162.325C181.059 162.325 180.821 162.257 181.632 162.528C182.488 162.798 183.052 163.271 183.322 163.947C183.592 164.623 183.727 165.614 183.727 166.921L183.728 180.845H157.773L157.773 166.921ZM181.467 161.014C181.467 161.014 181.467 161.014 181.467 161.514C181.456 161.514 180.378 161.514 179.302 161.514L179.302 161.014H181.467ZM185.958 161.014L185.958 161.514L181.467 161.514C181.467 161.014 181.467 161.014 181.467 161.014H185.958ZM190.314 161.014L190.314 161.514L185.958 161.514L185.958 161.014H190.314ZM192.422 161.014L192.422 161.514H190.314L190.314 161.014H192.422ZM151.22 161.014C151.22 161.014 151.22 161.014 151.22 161.514H149.049L149.049 161.014H151.22ZM155.542 161.014V161.514H151.22C151.22 161.014 151.22 161.014 151.22 161.014H155.542ZM160.094 161.014L160.094 161.514H155.542V161.014H160.094ZM162.238 161.014L162.238 161.514H160.094L160.094 161.014H162.238Z" fill="#04203F"/>
<path fill-rule="evenodd" clip-rule="evenodd" d="M98.1806 160.632C93.6225 160.96 89.41 162.527 85.8822 164.995C85.1402 165.514 84.7276 166.376 84.7172 167.281L84.6638 171.952C84.6638 172.088 84.7765 172.178 85.0018 172.223C85.2271 172.268 85.3623 172.2 85.4073 172.02C86.9394 168.325 88.0852 165.614 90.5636 163.947C93.0869 162.28 97.673 161.446 100.557 161.446C103.666 161.446 106.437 162.347 108.871 164.15C111.349 165.952 113.286 168.521 114.683 171.855C115.819 174.446 116.508 177.443 116.749 180.845C116.782 181.31 116.806 181.784 116.823 182.264C116.838 182.73 116.846 183.203 116.846 183.684C116.846 187.559 116.283 190.938 115.157 193.822C114.03 196.661 112.295 198.846 109.952 200.379C107.654 201.911 104.725 202.677 101.165 202.677C99.0474 202.677 95.0921 202.339 93.0643 201.663C91.0818 200.987 89.3244 199.928 87.7923 198.486C86.5396 197.307 86.1327 195.816 85.6317 193.982C85.52 193.573 85.4036 193.146 85.2721 192.703C85.2271 192.567 85.0694 192.522 84.799 192.567C84.5737 192.613 84.461 192.703 84.461 192.838L84.4318 197.4C84.426 198.307 84.8247 199.177 85.5596 199.709C89.4836 202.55 94.2886 204.261 99.4906 204.362C102.288 204.308 104.963 203.791 107.519 202.812C110.267 201.775 112.701 200.266 114.819 198.283C116.982 196.301 118.671 193.89 119.888 191.051C121.15 188.167 121.78 184.9 121.78 181.25C121.78 178.637 121.397 176.113 120.631 173.68C120.132 171.965 119.407 170.379 118.454 168.922C118.031 168.275 117.562 167.653 117.049 167.056C115.427 165.074 113.264 163.497 110.56 162.325C107.902 161.153 104.635 160.568 100.76 160.568C100.627 160.568 100.484 160.568 100.334 160.57C99.7256 160.577 98.9814 160.598 98.1806 160.632Z" fill="#04203F"/>
<path d="M100.76 160.068C104.681 160.068 108.02 160.66 110.76 161.866L111.271 162.096C113.797 163.267 115.855 164.809 117.428 166.73L117.815 167.195C118.194 167.664 118.546 168.149 118.873 168.649C119.851 170.145 120.596 171.773 121.108 173.53L121.25 173.996C121.937 176.335 122.28 178.753 122.28 181.25C122.28 184.957 121.639 188.292 120.346 191.247C119.104 194.146 117.375 196.615 115.159 198.648L115.16 198.649C112.994 200.676 110.505 202.218 107.697 203.278L107.698 203.279C105.087 204.279 102.353 204.807 99.4998 204.862H99.4812C94.1741 204.759 89.2704 203.013 85.2664 200.114C84.388 199.479 83.9247 198.449 83.9314 197.397L83.9607 192.835C83.9615 192.605 84.0681 192.411 84.2332 192.279C84.3782 192.163 84.5516 192.107 84.7009 192.077L84.7087 192.075L84.7166 192.074C84.882 192.047 85.0749 192.035 85.2576 192.087C85.4413 192.14 85.6147 192.259 85.7107 192.456L85.7468 192.545L85.7488 192.553L85.7517 192.561C85.885 193.01 86.0026 193.441 86.114 193.85L86.3005 194.524C86.7287 196.041 87.1427 197.189 88.1345 198.122C89.6141 199.515 91.309 200.536 93.2224 201.189L93.6052 201.305C94.5484 201.57 95.8247 201.779 97.1365 201.926C98.6278 202.093 100.127 202.177 101.165 202.177C104.654 202.177 107.479 201.426 109.675 199.962L109.678 199.96C111.927 198.49 113.6 196.39 114.692 193.638C115.79 190.825 116.346 187.511 116.346 183.684C116.346 183.289 116.34 182.899 116.329 182.514H97.8992C97.0212 182.514 96.2345 182.905 95.7039 183.524C95.6714 183.562 95.64 183.6 95.6101 183.639L95.5925 183.662L95.5701 183.68C95.4583 183.771 95.3149 183.827 95.1589 183.827C94.7971 183.827 94.5076 183.532 94.5076 183.172V179.937C94.5077 179.577 94.7972 179.282 95.1589 179.282C95.276 179.282 95.3863 179.313 95.4812 179.367L95.5701 179.43L95.5925 179.447L95.6091 179.47C95.6397 179.509 95.6709 179.548 95.7029 179.585C96.2335 180.204 97.0209 180.595 97.8992 180.595H116.227C115.972 177.357 115.303 174.513 114.225 172.056L114.222 172.048C112.854 168.783 110.969 166.294 108.577 164.554L108.573 164.552C106.228 162.815 103.562 161.947 100.557 161.947C99.157 161.947 97.3267 162.149 95.5369 162.559C93.7404 162.97 92.0293 163.578 90.8396 164.364L90.8386 164.364C88.511 165.931 87.4151 168.482 85.8689 172.211L85.8679 172.21C85.8094 172.383 85.6961 172.552 85.4959 172.653C85.289 172.756 85.0718 172.747 84.9041 172.713C84.7547 172.683 84.5813 172.628 84.4363 172.512C84.2706 172.379 84.1638 172.183 84.1638 171.952V171.947L84.2175 167.276C84.2296 166.225 84.7086 165.206 85.5955 164.585C89.1951 162.067 93.4938 160.468 98.1443 160.133H98.1521L98.1589 160.132C98.964 160.098 99.7137 160.077 100.328 160.071C100.48 160.069 100.625 160.068 100.76 160.068ZM100.334 160.57C99.7256 160.577 98.9814 160.598 98.1806 160.632C93.6225 160.96 89.41 162.527 85.8822 164.995C85.1402 165.514 84.7276 166.376 84.7172 167.281L84.6638 171.952C84.6638 172.088 84.7765 172.178 85.0018 172.223C85.2271 172.268 85.3623 172.2 85.4073 172.02C86.9394 168.325 88.0852 165.614 90.5636 163.947C93.0869 162.28 97.673 161.446 100.557 161.446C103.666 161.446 106.437 162.347 108.871 164.15C111.349 165.952 113.286 168.521 114.683 171.855C115.819 174.446 116.508 177.443 116.749 180.845C116.782 181.31 116.806 181.784 116.823 182.264C116.838 182.73 116.846 183.203 116.846 183.684C116.846 187.559 116.283 190.938 115.157 193.822C114.03 196.661 112.295 198.846 109.952 200.379C107.654 201.911 104.725 202.677 101.165 202.677C99.0474 202.677 95.0921 202.339 93.0643 201.663C91.0818 200.987 89.3244 199.928 87.7923 198.486C86.5396 197.307 86.1327 195.816 85.6317 193.982C85.52 193.573 85.4036 193.146 85.2721 192.703C85.2271 192.567 85.0694 192.522 84.799 192.567C84.5737 192.613 84.461 192.703 84.461 192.838L84.4318 197.4C84.426 198.307 84.8247 199.177 85.5596 199.709C89.4836 202.55 94.2886 204.261 99.4906 204.362C102.288 204.308 104.963 203.791 107.519 202.812C110.267 201.775 112.701 200.266 114.819 198.283C116.982 196.301 118.671 193.89 119.888 191.051C121.15 188.167 121.78 184.9 121.78 181.25C121.78 178.637 121.397 176.113 120.631 173.68C120.132 171.965 119.407 170.379 118.454 168.922C118.031 168.275 117.562 167.653 117.049 167.056C115.427 165.074 113.264 163.497 110.56 162.325C107.902 161.153 104.635 160.568 100.76 160.568C100.627 160.568 100.484 160.568 100.334 160.57ZM95.1589 179.782C95.0776 179.782 95.0077 179.849 95.0076 179.937V183.172C95.0076 183.26 95.0775 183.327 95.1589 183.327C95.1895 183.327 95.2169 183.316 95.241 183.3C95.2683 183.266 95.2957 183.231 95.324 183.198L95.4441 183.066C96.0614 182.418 96.9334 182.014 97.8992 182.014H116.311C116.299 181.704 116.283 181.398 116.263 181.095H97.8992C96.9334 181.095 96.0615 180.691 95.4441 180.043L95.324 179.91C95.2955 179.877 95.268 179.843 95.241 179.809C95.217 179.793 95.1896 179.782 95.1589 179.782Z" fill="#04203F"/>
<path d="M0.647902 203.555C0.557781 203.555 0.51272 203.42 0.51272 203.15C0.51272 202.879 0.557781 202.744 0.647902 202.744C2.31514 202.744 2.08 202.632 2.93615 202.406C3.7923 202.181 4.35555 201.73 4.62591 201.054C4.94134 200.379 5.09905 199.387 5.09905 198.08V166.786C5.09905 165.479 4.94134 164.51 4.62591 163.88C4.35555 163.204 3.7923 162.753 2.93615 162.528C2.08 162.257 2.30242 162.325 0.635181 162.325C0.545061 162.325 0.5 162.19 0.5 161.919C0.5 161.649 0.545061 161.514 0.635181 161.514C1.71663 161.514 2.81639 161.514 2.81639 161.514H7.12677H11.2498C11.2498 161.514 12.1665 161.514 13.1578 161.514C13.293 161.514 13.3606 161.649 13.3606 161.919C13.3606 162.19 13.293 162.325 13.1578 162.325C11.6708 162.325 12.0158 162.257 11.2498 162.528C10.5288 162.753 10.0332 163.204 9.7628 163.88C9.5375 164.51 9.42485 165.479 9.42485 166.786V197.945C9.42485 199.342 9.51497 200.333 9.69521 200.919C9.87545 201.505 10.3261 201.866 11.047 202.001C11.768 202.091 12.9846 202.136 14.6969 202.136H23.7541C25.6015 202.136 26.9083 202.068 27.6743 201.933C28.4403 201.798 28.9135 201.437 29.0937 200.852C29.2739 200.266 29.3641 199.297 29.3641 197.945V166.786C29.3641 165.479 29.2289 164.51 28.9585 163.88C28.7332 163.204 28.2376 162.753 27.4715 162.528C26.7506 162.257 27.0801 162.325 25.5931 162.325C25.4579 162.325 25.3903 162.19 25.3903 161.919C25.3903 161.649 25.4579 161.514 25.5931 161.514H26.3207H28.9585C28.9585 161.514 30.7384 161.514 31.5946 161.514C32.9464 161.514 35.54 161.514 35.54 161.514C35.54 161.514 36.4963 161.514 37.5327 161.514C37.6228 161.514 37.6679 161.649 37.6679 161.919C37.6679 162.19 37.6228 162.325 37.5327 162.325C36.0457 162.325 36.416 162.257 35.65 162.528C34.884 162.753 34.3658 163.204 34.0954 163.88C33.825 164.51 33.6899 165.479 33.6899 166.786V198.08C33.6899 199.387 33.8701 200.333 34.2306 200.919C34.6361 201.46 35.267 201.798 36.1231 201.933C37.0243 202.068 38.2635 202.136 39.8406 202.136H48.0191C49.9116 202.136 51.2409 202.068 52.0069 201.933C52.7729 201.798 53.2235 201.437 53.3587 200.852C53.539 200.266 53.6291 199.297 53.6291 197.945V166.786C53.6291 165.479 53.4939 164.51 53.2236 163.88C52.9983 163.204 52.5026 162.753 51.7365 162.528C51.0156 162.257 49.86 162.257 48.373 162.257C48.2378 162.257 48.1703 162.122 48.1703 161.852C48.1703 161.581 48.2378 161.446 48.373 161.446C49.4094 161.446 51.8041 161.446 51.8041 161.446H55.882H60.1854C60.1854 161.446 61.3246 161.446 62.406 161.446C62.5412 161.446 62.6088 161.581 62.6088 161.852C62.6088 162.122 62.5412 162.257 62.406 162.257C61.0405 162.257 60.5763 162.257 59.9057 162.528C59.2351 162.798 58.6759 163.204 58.3604 163.88C58.0901 164.51 57.9549 165.479 57.9549 166.786V198.08C57.9549 199.387 58.0901 200.379 58.3604 201.054C58.6759 201.73 59.2616 202.181 60.1178 202.406C60.9739 202.632 60.7388 202.744 62.406 202.744C62.5412 202.744 62.6088 202.879 62.6088 203.15C62.6088 203.42 62.5412 203.555 62.406 203.555H0.647902Z" fill="#04203F"/>
<path d="M0.0126953 203.149C0.0127116 203 0.0237153 202.833 0.0722656 202.688C0.116567 202.555 0.270576 202.244 0.647461 202.244C1.48216 202.244 1.79146 202.214 1.98926 202.171C2.08617 202.15 2.16402 202.124 2.29102 202.081C2.41848 202.038 2.57749 201.984 2.80859 201.923C3.54862 201.728 3.96347 201.366 4.16211 200.869L4.16699 200.855L4.17285 200.843C4.44223 200.265 4.59863 199.361 4.59863 198.08V166.786C4.59863 165.502 4.44099 164.628 4.17871 164.104L4.16895 164.085L4.16211 164.065C3.9635 163.569 3.54871 163.206 2.80859 163.012L2.79688 163.008L2.78516 163.005C2.34633 162.866 2.24628 162.837 2.05762 162.824C1.81855 162.809 1.50331 162.825 0.634766 162.825C0.258036 162.825 0.103953 162.515 0.0595703 162.382C0.0109838 162.236 0 162.069 0 161.919C2.15379e-05 161.769 0.0110319 161.603 0.0595703 161.457C0.103919 161.324 0.257963 161.014 0.634766 161.014L0.635181 161.514C0.545061 161.514 0.5 161.649 0.5 161.919C0.5 162.156 0.534533 162.289 0.603516 162.318L0.635181 162.325C2.30242 162.325 2.08 162.257 2.93615 162.528C3.7923 162.753 4.35555 163.204 4.62591 163.88C4.94134 164.51 5.09905 165.479 5.09905 166.786V198.08C5.09905 199.387 4.94134 200.379 4.62591 201.054L4.57129 201.179C4.28351 201.786 3.73843 202.195 2.93615 202.406L2.66016 202.485C2.10896 202.658 2.10661 202.744 0.647902 202.744C0.557781 202.744 0.51272 202.879 0.51272 203.15L0.521484 203.327C0.535566 203.454 0.566931 203.528 0.616211 203.549L0.647902 203.555H62.406L62.4531 203.549C62.5569 203.519 62.6088 203.387 62.6088 203.15C62.6088 202.913 62.5568 202.78 62.4531 202.751L62.406 202.744C60.9472 202.744 60.9449 202.658 60.3936 202.485L60.1178 202.406C59.2616 202.181 58.6759 201.73 58.3604 201.054C58.1239 200.463 57.9905 199.63 57.9609 198.556L57.9549 198.08V166.786C57.9549 165.479 58.0901 164.51 58.3604 163.88C58.6759 163.204 59.2351 162.798 59.9057 162.528C60.4085 162.325 60.7954 162.274 61.5332 162.262L62.406 162.257C62.5412 162.257 62.6088 162.122 62.6088 161.852C62.6088 161.615 62.5568 161.483 62.4531 161.453L62.406 161.446L62.4062 160.946C62.5275 160.946 62.6562 160.978 62.7725 161.056C62.8855 161.131 62.9584 161.231 63.0049 161.324C63.0909 161.496 63.1084 161.691 63.1084 161.852C63.1084 162.012 63.0909 162.208 63.0049 162.38C62.9583 162.473 62.8855 162.573 62.7725 162.648C62.6562 162.726 62.5275 162.758 62.4062 162.758C61.019 162.758 60.657 162.764 60.0928 162.991C59.4979 163.231 59.0625 163.564 58.8174 164.082C58.5896 164.618 58.4551 165.501 58.4551 166.786V198.08C58.4551 199.352 58.5869 200.263 58.8174 200.851C59.0589 201.362 59.5066 201.729 60.2451 201.923C60.4763 201.984 60.6352 202.038 60.7627 202.081C60.89 202.124 60.9683 202.15 61.0654 202.171C61.2632 202.214 61.5721 202.244 62.4062 202.244C62.5275 202.244 62.6562 202.276 62.7725 202.354C62.8855 202.429 62.9584 202.529 63.0049 202.622C63.0909 202.794 63.1084 202.989 63.1084 203.149C63.1084 203.31 63.0909 203.506 63.0049 203.678C62.9583 203.771 62.8855 203.871 62.7725 203.946C62.6562 204.024 62.5275 204.056 62.4062 204.056H0.647461C0.270836 204.055 0.116687 203.745 0.0722656 203.612C0.023679 203.467 0.0126953 203.299 0.0126953 203.149ZM23.7539 201.636L23.7541 202.136H14.6969L14.6973 201.636H23.7539ZM28.8643 197.945V166.786C28.8643 165.497 28.7283 164.611 28.499 164.076L28.4912 164.058L28.4844 164.038C28.3177 163.538 27.9611 163.193 27.3301 163.008L27.3125 163.002L27.2959 162.996C26.889 162.844 26.8816 162.832 26.7764 162.823C26.7086 162.817 26.613 162.816 26.418 162.818C26.2305 162.82 25.9681 162.825 25.5928 162.825C25.4716 162.825 25.3428 162.793 25.2266 162.716C25.1136 162.64 25.0407 162.54 24.9941 162.447C24.9082 162.275 24.8907 162.081 24.8906 161.92C24.8906 161.759 24.9081 161.564 24.9941 161.392C25.0407 161.299 25.1136 161.198 25.2266 161.123C25.3428 161.046 25.4716 161.014 25.5928 161.014L25.5931 161.514C25.4579 161.514 25.3903 161.649 25.3903 161.919L25.4033 162.097C25.4245 162.224 25.4718 162.297 25.5459 162.318L25.5931 162.325C27.0801 162.325 26.7506 162.257 27.4715 162.528C28.2376 162.753 28.7332 163.204 28.9585 163.88C29.2289 164.51 29.3641 165.479 29.3641 166.786V197.945L29.3594 198.435C29.3397 199.533 29.2514 200.339 29.0937 200.852L29.0566 200.959C28.8533 201.482 28.3924 201.806 27.6743 201.933L27.3613 201.98C26.5728 202.084 25.3704 202.136 23.7541 202.136L23.7539 201.636C25.6006 201.636 26.8682 201.567 27.5869 201.44C28.2269 201.327 28.5067 201.061 28.6162 200.705C28.7727 200.196 28.8643 199.292 28.8643 197.945ZM48.0195 201.636L48.0191 202.136H39.8406L39.8408 201.636H48.0195ZM53.1289 197.945V166.786C53.1289 165.497 52.9929 164.611 52.7637 164.076L52.7559 164.058L52.749 164.038C52.5824 163.538 52.2266 163.193 51.5957 163.008L51.5605 162.996C51.2721 162.888 50.8642 162.823 50.3125 162.79C49.7657 162.757 49.1212 162.758 48.373 162.758C48.2518 162.758 48.1232 162.726 48.0068 162.648C47.8937 162.573 47.82 162.473 47.7734 162.38C47.6874 162.208 47.6699 162.012 47.6699 161.852C47.6699 161.691 47.6875 161.496 47.7734 161.324C47.82 161.231 47.8937 161.131 48.0068 161.056C48.1232 160.978 48.2518 160.946 48.373 160.946L48.373 161.446L48.3252 161.453C48.222 161.483 48.1703 161.616 48.1703 161.852C48.1703 162.122 48.2378 162.257 48.373 162.257C49.86 162.257 51.0156 162.257 51.7365 162.528C52.5026 162.753 52.9983 163.204 53.2236 163.88C53.4939 164.51 53.6291 165.479 53.6291 166.786V197.945L53.625 198.435C53.6053 199.533 53.5164 200.339 53.3587 200.852C53.2235 201.437 52.7729 201.798 52.0069 201.933L51.6934 201.98C50.9 202.084 49.6749 202.136 48.0191 202.136L48.0195 201.636C49.9122 201.636 51.2017 201.567 51.9199 201.44C52.248 201.383 52.4664 201.284 52.6074 201.171C52.7407 201.064 52.8277 200.927 52.8711 200.739L52.876 200.722L52.8809 200.705C53.0373 200.196 53.1289 199.292 53.1289 197.945ZM33.6899 198.08V166.786C33.6899 165.643 33.793 164.758 34 164.132L34.0954 163.88C34.3319 163.288 34.7581 162.869 35.374 162.623L35.65 162.528C36.2239 162.325 36.16 162.312 36.7188 162.318L37.5327 162.325C37.6003 162.325 37.6423 162.249 37.6592 162.097L37.6679 161.919C37.6679 161.649 37.6228 161.514 37.5327 161.514L37.5322 161.014C37.9093 161.014 38.064 161.324 38.1084 161.457C38.157 161.603 38.168 161.77 38.168 161.92C38.1679 162.07 38.1569 162.236 38.1084 162.382C38.064 162.515 37.9093 162.825 37.5322 162.825C37.1571 162.825 36.8972 162.82 36.7129 162.818C36.5211 162.816 36.43 162.817 36.3652 162.823C36.2587 162.833 36.2524 162.845 35.8164 162.999L35.8037 163.004L35.791 163.008C35.1558 163.195 34.7669 163.547 34.5596 164.065L34.5547 164.076C34.3254 164.611 34.1895 165.497 34.1895 166.786V198.08C34.1895 199.345 34.3667 200.169 34.6445 200.636C34.9521 201.035 35.4442 201.319 36.1963 201.438C37.0615 201.568 38.2734 201.636 39.8408 201.636L39.8406 202.136L38.7207 202.123C37.8406 202.102 37.0926 202.054 36.4766 201.98L36.1231 201.933C35.267 201.798 34.6361 201.46 34.2306 200.919C33.8701 200.333 33.6899 199.387 33.6899 198.08ZM9.42485 197.945V166.786C9.42485 165.479 9.5375 164.51 9.7628 163.88C9.99939 163.288 10.4086 162.869 10.9902 162.623L11.2498 162.528C11.8239 162.325 11.774 162.312 12.3398 162.318L13.1578 162.325C13.259 162.325 13.3224 162.249 13.3477 162.097L13.3606 161.919C13.3606 161.683 13.3087 161.55 13.2051 161.521L13.1578 161.514L13.1582 161.014C13.2792 161.014 13.4073 161.046 13.5234 161.123C13.6366 161.198 13.7103 161.299 13.7568 161.392C13.8429 161.564 13.8604 161.759 13.8604 161.92C13.8603 162.081 13.8428 162.275 13.7568 162.447C13.7103 162.54 13.6366 162.64 13.5234 162.716C13.4073 162.793 13.2792 162.825 13.1582 162.825C12.7828 162.825 12.5207 162.82 12.334 162.818C12.1404 162.816 12.0455 162.817 11.9766 162.823C11.8635 162.833 11.8452 162.848 11.416 162.999L11.3984 163.005C10.8185 163.186 10.4432 163.531 10.2305 164.056C10.0368 164.603 9.9248 165.499 9.9248 166.786V197.945C9.92481 199.339 10.0166 200.265 10.1729 200.772C10.2862 201.141 10.5554 201.397 11.1318 201.507C11.8223 201.591 13.0043 201.636 14.6973 201.636L14.6969 202.136L13.5059 202.127C12.4074 202.11 11.5878 202.068 11.047 202.001C10.3711 201.874 9.93308 201.549 9.73242 201.026L9.69521 200.919C9.53755 200.407 9.44843 199.584 9.42871 198.45L9.42485 197.945ZM26.3203 161.014L26.3207 161.514H25.5931L25.5928 161.014H26.3203ZM28.959 161.014L28.9585 161.514H26.3207L26.3203 161.014H28.959ZM31.5947 161.014L31.5946 161.514H28.9585L28.959 161.014H31.5947ZM35.54 161.014C35.5401 161.014 35.54 161.016 35.54 161.514H31.5946L31.5947 161.014H35.54ZM37.5322 161.014L37.5327 161.514H35.54V161.014H37.5322ZM2.81641 161.014C2.81641 161.014 2.81641 161.015 2.81639 161.514L0.635181 161.514L0.634766 161.014H2.81641ZM7.12695 161.014L7.12677 161.514H2.81639C2.81641 161.015 2.81641 161.014 2.81641 161.014H7.12695ZM11.25 161.014L11.2498 161.514H7.12677L7.12695 161.014H11.25ZM13.1582 161.014L13.1578 161.514H11.2498L11.25 161.014H13.1582ZM51.8037 160.946C51.8037 160.946 51.8041 160.946 51.8041 161.446H48.373L48.373 160.946H51.8037ZM55.8818 160.946L55.882 161.446H51.8041C51.8041 160.946 51.8037 160.946 51.8037 160.946H55.8818ZM60.1855 160.946L60.1854 161.446H55.882L55.8818 160.946H60.1855ZM62.4062 160.946L62.406 161.446H60.1854L60.1855 160.946H62.4062Z" fill="#04203F"/>
<path fill-rule="evenodd" clip-rule="evenodd" d="M95.5134 179.748C95.4785 179.707 95.4447 179.665 95.4118 179.623C95.3428 179.566 95.2547 179.532 95.1588 179.532C94.9371 179.532 94.7575 179.713 94.7575 179.937V183.172C94.7575 183.396 94.9371 183.577 95.1588 183.577C95.2545 183.577 95.3426 183.543 95.4116 183.487C95.4445 183.444 95.4787 183.402 95.5138 183.361C96.0899 182.69 96.9446 182.264 97.8988 182.264H116.823H117.831V180.845H116.749H97.8988C96.9445 180.845 96.0895 180.419 95.5134 179.748Z" fill="#04203F"/>
<path d="M95.3171 179.046C95.4202 179.064 95.5175 179.1 95.6052 179.15L95.7292 179.236L95.7722 179.272L95.8073 179.316C95.8355 179.353 95.8632 179.389 95.8923 179.423L95.8933 179.422C96.3784 179.987 97.0968 180.345 97.8991 180.345H118.331V182.765H97.8991C97.0971 182.765 96.3784 183.121 95.8933 183.686C95.8631 183.722 95.8343 183.757 95.8073 183.792L95.7731 183.837L95.7282 183.874C95.5738 184 95.3749 184.077 95.1589 184.077C94.6568 184.077 94.2575 183.667 94.2575 183.172V179.937C94.2575 179.442 94.6568 179.032 95.1589 179.032L95.3171 179.046ZM95.1588 179.532C94.9371 179.532 94.7575 179.713 94.7575 179.937V183.172C94.7575 183.396 94.9371 183.577 95.1588 183.577C95.2545 183.577 95.3426 183.543 95.4116 183.487C95.4445 183.444 95.4787 183.402 95.5138 183.361C96.0899 182.69 96.9446 182.264 97.8988 182.264H117.831V180.845H97.8988C96.9445 180.845 96.0895 180.419 95.5134 179.748C95.4785 179.707 95.4447 179.665 95.4118 179.623C95.3428 179.566 95.2547 179.532 95.1588 179.532Z" fill="#04203F"/>
<path d="M124.896 74.1445V37.1235C124.896 35.1209 124.733 33.6363 124.408 32.6695C124.083 31.6337 123.459 30.9432 122.538 30.5979C122.351 30.5087 122.211 30.4291 122.088 30.3591C121.639 30.104 121.415 29.9764 119.969 29.9764C119.86 29.9764 119.806 29.7692 119.806 29.3549C119.806 28.9406 119.86 28.7334 119.969 28.7334H138.688C138.85 28.7334 138.932 28.9406 138.932 29.3549C138.932 29.7692 138.85 29.9764 138.688 29.9764C137.305 29.9764 137.075 30.1002 136.617 30.3478C136.482 30.4205 136.328 30.5038 136.118 30.5979C135.251 30.9432 134.655 31.6337 134.329 32.6695C134.058 33.6363 133.923 35.1209 133.923 37.1235V84.8748C133.923 87.0155 133.977 88.5347 134.085 89.4324C134.248 90.3301 134.6 90.8826 135.143 91.0897C135.739 91.2278 136.688 91.2969 137.989 91.2969H150.35C151.759 91.2969 152.762 91.1933 153.359 90.9861C154.009 90.7099 154.416 90.1229 154.578 89.2252C154.741 88.2585 154.822 86.8083 154.822 84.8748V37.1235C154.822 35.1209 154.66 33.6363 154.335 32.6695C154.063 31.6337 153.467 30.9432 152.545 30.5979C152.336 30.5038 152.182 30.4205 152.047 30.3478C151.588 30.1002 151.359 29.9764 149.976 29.9764C149.814 29.9764 149.732 29.7692 149.732 29.3549C149.732 28.9406 149.814 28.7334 149.976 28.7334C150.898 28.8025 152.062 28.7334 152.062 28.7334H168.777C168.885 28.7334 168.939 28.9406 168.939 29.3549C168.939 29.7692 168.885 29.9764 168.777 29.9764C167.394 29.9764 167.164 30.1002 166.706 30.3478C166.571 30.4205 166.417 30.5038 166.207 30.5979C165.286 30.9432 164.662 31.6337 164.337 32.6695C164.012 33.6363 163.849 35.1209 163.849 37.1235V84.8748C163.849 87.0155 163.903 88.5347 164.012 89.4324C164.174 90.3301 164.527 90.8826 165.069 91.0897C165.665 91.2278 166.641 91.2969 167.996 91.2969H180.357C181.875 91.2969 182.932 91.1933 183.529 90.9861C184.125 90.779 184.478 90.2265 184.586 89.3288C184.749 88.4312 184.83 86.9465 184.83 84.8748V37.1235C184.83 35.1209 184.667 33.6363 184.342 32.6695C184.071 31.6337 183.475 30.9432 182.553 30.5979C182.366 30.5087 182.226 30.4291 182.103 30.3591C181.655 30.104 181.43 29.9764 179.984 29.9764C179.875 29.9764 179.821 29.7692 179.821 29.3549C179.821 28.9406 179.875 28.7334 179.984 28.7334H198.703C198.865 28.7334 198.947 28.9406 198.947 29.3549C198.947 29.7692 198.865 29.9764 198.703 29.9764C197.32 29.9764 197.091 30.1002 196.632 30.3478C196.497 30.4205 196.343 30.5038 196.134 30.5979C195.212 30.9432 194.589 31.6337 194.263 32.6695C193.992 33.6363 193.857 35.1209 193.857 37.1235V74.1443C191.599 77.8121 190.975 82.0872 190.746 85.6098L190.683 86.7543L190.682 86.7938C190.635 89.0163 190.603 91.2441 190.586 93.4721H128.167C128.149 91.2441 128.117 89.0163 128.071 86.7938L128.07 86.7543L128.006 85.6098C127.778 82.0873 127.153 77.8123 124.896 74.1445Z" fill="#4A607B"/>
<path d="M125.188 96.576C125.182 93.3351 125.146 90.0902 125.078 86.8563C124.807 81.1315 123.764 74.4286 117.326 71.0987C116.417 70.7082 115.445 70.4816 114.492 70.4102C114.031 70.3803 113.568 70.5165 113.204 70.8071C112.84 71.0975 112.604 71.5155 112.548 71.9728C112.491 72.4303 112.619 72.8934 112.902 73.2636C113.184 73.6339 113.6 73.878 114.054 73.9608C114.644 74.0783 115.184 74.2792 115.673 74.5587C119.056 76.5314 120.17 82.2224 120.06 86.8037L120.06 86.8563C119.986 90.3635 119.949 93.8837 119.949 97.3977V101.71C119.948 104.721 119.633 110.5 119.404 114.42C119.337 115.57 120.25 116.538 121.402 116.538H122.581C123.639 116.538 124.515 115.715 124.58 114.659L124.587 114.552C124.726 112.293 124.902 109.45 125.027 106.844H193.726C193.851 109.45 194.027 112.292 194.166 114.55L194.173 114.659C194.238 115.715 195.114 116.538 196.172 116.538H197.351C198.502 116.538 199.416 115.57 199.349 114.42C199.12 110.5 198.805 104.721 198.804 101.71V97.3977C198.804 93.8837 198.767 90.3635 198.693 86.8563L198.692 86.8037C198.583 82.2224 199.697 76.5314 203.08 74.5587C203.569 74.2792 204.109 74.0783 204.699 73.9608C205.153 73.878 205.568 73.6339 205.851 73.2636C206.134 72.8934 206.261 72.4303 206.205 71.9728C206.149 71.5155 205.913 71.0975 205.549 70.8071C205.184 70.5165 204.722 70.3803 204.261 70.4102C203.308 70.4816 202.336 70.7082 201.427 71.0987C194.989 74.4286 193.946 81.1315 193.675 86.8563C193.607 90.0902 193.571 93.3351 193.565 96.576H125.188Z" fill="#04203F"/>
<path d="M225.369 0V133.946H93.3843V0H225.369ZM96.3843 130.946H222.369V3H96.3843V130.946Z" fill="#D0AE6F"/>
</svg>
