<svg width="88" height="88" viewBox="0 0 88 88" fill="none" xmlns="http://www.w3.org/2000/svg">
<g clip-path="url(#clip0_70_436)">
<path d="M43.7947 0.000119778C32.1608 0.0544119 21.0219 4.71407 12.8146 12.9598C4.60738 21.2055 -0.00012668 32.3661 2.61226e-09 44.0001C2.61228e-09 55.6696 4.6357 66.8612 12.8873 75.1128C21.1389 83.3644 32.3305 88.0001 44 88.0001C55.6695 88.0001 66.8611 83.3644 75.1127 75.1128C83.3643 66.8612 88 55.6696 88 44.0001C88 32.3306 83.3643 21.139 75.1127 12.8874C66.8611 4.63582 55.6695 0.000119778 44 0.000119778C43.9316 -3.9926e-05 43.8631 -3.9926e-05 43.7947 0.000119778ZM61.9887 26.4881C62.3553 26.4808 63.1657 26.5725 63.6937 27.0015C64.0445 27.3061 64.2683 27.7314 64.3207 28.1931C64.3793 28.5341 64.4527 29.3151 64.394 29.9238C63.734 36.8831 60.8667 53.7645 59.4073 61.5561C58.7913 64.8561 57.5777 65.9598 56.4007 66.0661C53.8487 66.3044 51.909 64.3794 49.434 62.7588C45.562 60.2178 43.373 58.6374 39.6147 56.1588C35.2697 53.2988 38.0857 51.7221 40.5607 49.1555C41.2097 48.4808 52.4663 38.2398 52.6863 37.3121C52.712 37.1948 52.7377 36.7621 52.481 36.5348C52.2243 36.3074 51.843 36.3844 51.568 36.4468C51.1793 36.5348 44.9937 40.6268 33.011 48.7118C31.251 49.9218 29.6633 50.5085 28.237 50.4718C26.6677 50.4425 23.6463 49.5881 21.3987 48.8584C18.6413 47.9601 16.4523 47.4871 16.643 45.9655C16.742 45.1735 17.8347 44.3631 19.9173 43.5345C32.7433 37.9465 41.294 34.2615 45.5767 32.4831C57.794 27.4011 60.335 26.5175 61.9887 26.4881Z" fill="#D0AE6F"/>
</g>
<defs>
<clipPath id="clip0_70_436">
<rect width="88" height="88" fill="white"/>
</clipPath>
</defs>
</svg>
