<svg width="88" height="89" viewBox="0 0 88 89" fill="none" xmlns="http://www.w3.org/2000/svg">
<g clip-path="url(#clip0_70_438)">
<path d="M64.064 53.3334C62.975 52.7809 57.618 50.1183 56.6207 49.7474C55.6197 49.3803 54.8937 49.1986 54.164 50.3037C53.4417 51.4051 51.3517 53.8859 50.7173 54.6202C50.083 55.3582 49.445 55.4472 48.356 54.8983C47.267 54.3421 43.7543 53.1814 39.5927 49.4285C36.355 46.5064 34.166 42.8982 33.5317 41.7931C32.8973 40.6917 33.4657 40.0947 34.0083 39.5458C34.4997 39.0526 35.101 38.259 35.6437 37.6175C36.19 36.9722 36.3697 36.5124 36.7363 35.7744C37.0993 35.0402 36.9197 34.3987 36.6447 33.8461C36.3697 33.2936 34.1917 27.8683 33.286 25.6618C32.3987 23.5147 31.5003 23.8077 30.833 23.7706C30.1987 23.7409 29.4727 23.7335 28.743 23.7335C28.017 23.7335 26.8363 24.0079 25.839 25.113C24.8417 26.2144 22.0257 28.8807 22.0257 34.3059C22.0257 39.7275 25.9307 44.9674 26.4733 45.7054C27.0197 46.4396 34.1587 57.572 45.089 62.3447C47.6887 63.4794 49.7163 64.158 51.3003 64.6624C53.911 65.5042 56.287 65.3855 58.1607 65.0999C60.2543 64.7847 64.6067 62.4337 65.516 59.8601C66.4253 57.2865 66.4253 55.08 66.1503 54.6202C65.879 54.1604 65.1567 53.8859 64.064 53.3334ZM44.1833 80.7862H44.1687C37.6778 80.7867 31.3063 79.0217 25.7217 75.6761L24.398 74.8825L10.681 78.5241L14.3403 64.9961L13.4787 63.6092C9.85026 57.7658 7.93077 51.0034 7.94198 44.1034C7.94565 23.8929 24.2073 7.45019 44.198 7.45019C53.878 7.45019 62.9787 11.2698 69.8207 18.1969C73.1965 21.5961 75.8722 25.6386 77.693 30.0905C79.5138 34.5424 80.4435 39.3153 80.4283 44.133C80.4173 64.3434 64.1593 80.7862 44.1833 80.7862ZM75.031 12.9348C70.991 8.82199 66.1842 5.56094 60.889 3.34062C55.5938 1.12031 49.9156 -0.0151161 44.1833 0.000151958C20.1483 0.000151958 0.586651 19.7841 0.575651 44.0997C0.575651 51.8723 2.58132 59.4596 6.39832 66.1457L0.208984 89.0002L23.3273 82.8666C29.7205 86.3892 36.8846 88.2353 44.165 88.2362H44.1833C68.2147 88.2362 87.78 68.4523 87.791 44.133C87.8087 38.3379 86.6901 32.5968 84.4999 27.2417C82.3097 21.8866 79.0913 17.0239 75.031 12.9348Z" fill="#D0AE6F"/>
</g>
<defs>
<clipPath id="clip0_70_438">
<rect width="88" height="89" fill="white"/>
</clipPath>
</defs>
</svg>
